<svg id="Layer_1" data-name="Layer 1" xmlns="http://www.w3.org/2000/svg" xmlns:xlink="http://www.w3.org/1999/xlink"
    viewBox="0 0 612 792">
    <defs>
        <style>
            .cls-1,
            .cls-15,
            .cls-30,
            .cls-34,
            .cls-35,
            .cls-36 {
                fill: none;
            }

            .cls-2 {
                clip-path: url(#clip-path);
            }

            .cls-3 {
                fill: #a4a4a4;
            }

            .cls-4 {
                fill: #fff;
            }

            .cls-5 {
                fill: #a3a3a3;
            }

            .cls-6 {
                fill: #010101;
            }

            .cls-7 {
                fill: #00ccfc;
            }

            .cls-8 {
                fill: #04ea78;
            }

            .cls-9 {
                fill: #ed354a;
            }

            .cls-10 {
                fill: #f8cc03;
            }

            .cls-11 {
                fill: #a5a4a4;
            }

            .cls-12 {
                fill: #5cc7f2;
            }

            .cls-13,
            .cls-16,
            .cls-17 {
                fill: #231f20;
            }

            .cls-14 {
                clip-path: url(#clip-path-2);
            }

            .cls-15 {
                stroke: #f1b74d;
                stroke-width: 39px;
            }

            .cls-15,
            .cls-30 {
                stroke-miterlimit: 10;
            }

            .cls-16,
            .cls-17 {
                font-size: 14px;
            }

            .cls-16 {
                font-family: MyriadPro-Bold, Myriad Pro;
                font-weight: 700;
            }

            .cls-17 {
                font-family: MyriadPro-Regular, Myriad Pro;
            }

            .cls-18 {
                letter-spacing: -0.01em;
            }

            .cls-19 {
                letter-spacing: 0em;
            }

            .cls-20 {
                letter-spacing: 0em;
            }

            .cls-21 {
                letter-spacing: 0em;
            }

            .cls-22 {
                letter-spacing: -0.01em;
            }

            .cls-23 {
                letter-spacing: -0.01em;
            }

            .cls-24 {
                letter-spacing: 0.02em;
            }

            .cls-25 {
                letter-spacing: -0.01em;
            }

            .cls-26 {
                letter-spacing: 0em;
            }

            .cls-27 {
                letter-spacing: 0em;
            }

            .cls-28 {
                fill: #dcddde;
            }

            .cls-29 {
                clip-path: url(#clip-path-3);
            }

            .cls-30 {
                stroke: #cbcbcb;
                stroke-width: 0.53px;
            }

            .cls-31 {
                fill: #fd0607;
            }

            .cls-32 {
                fill: #6c7281;
            }

            .cls-33 {
                clip-path: url(#clip-path-4);
            }

            .cls-34 {
                stroke: #bcbec0;
                stroke-width: 0.5px;
            }

            .cls-35 {
                stroke: #f4b74e;
                stroke-width: 7px;
            }

            .cls-36 {
                stroke: #231f20;
                stroke-width: 0.75px;
            }

            .cls-37 {
                fill: #ef4c27;
            }

            .cls-38 {
                fill: #ea3323;
            }
        </style>
        <clipPath id="clip-path">
            <rect class="cls-1" x="412.4" y="722.16" width="167.4" height="28.66" />
        </clipPath>
        <clipPath id="clip-path-2">
            <rect class="cls-1" y="252.36" width="612" height="458.64" />
        </clipPath>
        <clipPath id="clip-path-3">
            <rect class="cls-1" x="33.12" y="183.56" width="63.06" height="64.99" />
        </clipPath>
        <clipPath id="clip-path-4">
            <rect class="cls-1" width="612" height="792" />
        </clipPath>
    </defs>
    <g id="Store_logos" data-name="Store logos">
        <g class="cls-2">
            <path class="cls-3"
                d="M479.15,722.16H417a7.19,7.19,0,0,0-1.22.11,3.62,3.62,0,0,0-1.15.38,3.84,3.84,0,0,0-1.69,1.69,4,4,0,0,0-.38,1.16,7,7,0,0,0-.11,1.21c0,.19,0,.37,0,.56v14c0,.19,0,.37,0,.56a7.07,7.07,0,0,0,.11,1.21,3.62,3.62,0,0,0,.38,1.15,3.47,3.47,0,0,0,.71,1,4.06,4.06,0,0,0,1,.72,4.2,4.2,0,0,0,1.15.38,8.38,8.38,0,0,0,1.22.11h63.41a8.25,8.25,0,0,0,1.21-.11,4.38,4.38,0,0,0,1.16-.38,4.06,4.06,0,0,0,1-.72,3.67,3.67,0,0,0,.71-1,4.2,4.2,0,0,0,.38-1.15,9.89,9.89,0,0,0,.11-1.21v-.56c0-.22,0-.44,0-.66V727.94c0-.22,0-.44,0-.66v-.56a9.71,9.71,0,0,0-.11-1.21,4.38,4.38,0,0,0-.38-1.16,3.89,3.89,0,0,0-1.69-1.69,3.76,3.76,0,0,0-1.16-.38,7.07,7.07,0,0,0-1.21-.11h-1.22" />
            <path
                d="M417.52,745.87H417a8.47,8.47,0,0,1-1.13-.1,3.63,3.63,0,0,1-1-.33,3.21,3.21,0,0,1-.84-.62,3.26,3.26,0,0,1-.62-.85,3.46,3.46,0,0,1-.33-1,7.31,7.31,0,0,1-.1-1.14c0-.13,0-.55,0-.55v-14s0-.42,0-.54a7.31,7.31,0,0,1,.1-1.14,3.63,3.63,0,0,1,.33-1,3.17,3.17,0,0,1,.61-.84,3.43,3.43,0,0,1,.85-.62,3.63,3.63,0,0,1,1-.33,7.08,7.08,0,0,1,1.13-.1h63.39a7,7,0,0,1,1.12.1,3.59,3.59,0,0,1,1,.33A3.35,3.35,0,0,1,484,724.6a3.46,3.46,0,0,1,.33,1,8.62,8.62,0,0,1,.1,1.14v.54c0,.23,0,.44,0,.66v12.68c0,.23,0,.44,0,.66v.56a8.32,8.32,0,0,1-.1,1.12,3.59,3.59,0,0,1-.33,1,3.38,3.38,0,0,1-.62.84,3,3,0,0,1-.84.61,3.32,3.32,0,0,1-1,.34,8.47,8.47,0,0,1-1.13.1H417.52Z" />
            <path class="cls-4"
                d="M427.41,734.46a3,3,0,0,1,1.43-2.51,3,3,0,0,0-2.42-1.31c-1-.11-2,.61-2.52.61s-1.33-.6-2.19-.58a3.2,3.2,0,0,0-2.71,1.65c-1.17,2-.3,5,.83,6.65.56.81,1.21,1.7,2.07,1.67s1.16-.53,2.17-.53,1.3.53,2.18.51,1.47-.8,2-1.62a6.27,6.27,0,0,0,.92-1.87,2.89,2.89,0,0,1-1.77-2.67" />
            <path class="cls-4"
                d="M425.76,729.56a1.19,1.19,0,1,0-1.27-1.11,2.81,2.81,0,0,0-.69,2,2.49,2.49,0,0,0,2-.93" />
            <path class="cls-4"
                d="M438,738.61h-2.87l-.69,2h-1.21l2.71-7.52h1.27l2.71,7.52h-1.23Zm-2.57-.94h2.27l-1.12-3.3h0Z" />
            <path class="cls-4"
                d="M445.83,737.9c0,1.7-.91,2.8-2.29,2.8a1.88,1.88,0,0,1-1.73-1h0v2.72h-1.13v-7.3h1.09v.91h0a2,2,0,0,1,1.75-1c1.39,0,2.31,1.1,2.31,2.8m-1.16,0c0-1.11-.57-1.84-1.45-1.84s-1.44.74-1.44,1.84.58,1.85,1.44,1.85,1.45-.73,1.45-1.85" />
            <path class="cls-4"
                d="M451.87,737.9c0,1.7-.91,2.8-2.29,2.8a1.88,1.88,0,0,1-1.73-1h0v2.72H446.7v-7.3h1.09v.91h0a2,2,0,0,1,1.75-1c1.39,0,2.31,1.1,2.31,2.8m-1.16,0c0-1.11-.57-1.84-1.45-1.84s-1.44.74-1.44,1.84.58,1.85,1.44,1.85,1.45-.73,1.45-1.85" />
            <path class="cls-4"
                d="M455.86,738.55c.09.74.81,1.23,1.8,1.23s1.63-.49,1.63-1.16-.41-.93-1.38-1.17l-1-.24c-1.38-.33-2-1-2-2,0-1.3,1.13-2.19,2.74-2.19s2.68.89,2.71,2.19h-1.13c-.07-.75-.69-1.2-1.6-1.2s-1.53.46-1.53,1.12.4.85,1.37,1.09l.83.2c1.54.37,2.18,1,2.18,2.09,0,1.41-1.12,2.29-2.9,2.29s-2.8-.86-2.87-2.22Z" />
            <path class="cls-4"
                d="M462.91,733.86v1.3h1v.89h-1v3c0,.47.21.69.67.69l.37,0v.88a2.56,2.56,0,0,1-.62,0c-1.11,0-1.55-.41-1.55-1.48v-3.14H461v-.89h.79v-1.3Z" />
            <path class="cls-4"
                d="M464.56,737.9a2.61,2.61,0,1,1,2.6,2.81,2.53,2.53,0,0,1-2.6-2.81m4.06,0c0-1.18-.54-1.88-1.46-1.88s-1.45.7-1.45,1.88.54,1.88,1.45,1.88,1.46-.69,1.46-1.88" />
            <path class="cls-4"
                d="M470.7,735.16h1.07v.93h0a1.3,1.3,0,0,1,1.32-1,1.58,1.58,0,0,1,.38,0v1.05a1.4,1.4,0,0,0-.5-.06,1.12,1.12,0,0,0-1.18,1.08,1.08,1.08,0,0,0,0,.18v3.25H470.7Z" />
            <path class="cls-4"
                d="M478.7,739a2.21,2.21,0,0,1-2.37,1.68,2.49,2.49,0,0,1-2.58-2.78,2.53,2.53,0,0,1,2.54-2.84,2.42,2.42,0,0,1,2.47,2.71v.38h-3.88v.07a1.43,1.43,0,0,0,1.3,1.55h.18a1.25,1.25,0,0,0,1.27-.77Zm-3.81-1.64h2.74a1.32,1.32,0,0,0-1.24-1.39h-.1a1.39,1.39,0,0,0-1.4,1.38Z" />
            <path class="cls-4"
                d="M435.33,727.45a1.61,1.61,0,0,1,1.71,1.48c0,.11,0,.21,0,.32a1.61,1.61,0,0,1-1.7,1.82H434v-3.62Zm-.75,3.11h.68a1.15,1.15,0,0,0,1.21-1.07,1.69,1.69,0,0,0,0-.23,1.16,1.16,0,0,0-1-1.29h-.9Z" />
            <path class="cls-4"
                d="M437.66,729.7a1.3,1.3,0,0,1,2.58-.24v.24a1.3,1.3,0,0,1-2.58.25,1,1,0,0,1,0-.25m2,0c0-.59-.26-.93-.73-.93s-.73.34-.73.93.26.94.73.94.73-.34.73-.94" />
            <polygon class="cls-4"
                points="443.66 731.07 443.1 731.07 442.54 729.06 442.49 729.06 441.93 731.07 441.38 731.07 440.63 728.34 441.17 728.34 441.66 730.42 441.7 730.42 442.26 728.34 442.78 728.34 443.34 730.42 443.38 730.42 443.87 728.34 444.41 728.34 443.66 731.07" />
            <path class="cls-4"
                d="M445,728.34h.52v.43h0a.81.81,0,0,1,.81-.48.89.89,0,0,1,1,.82,1.21,1.21,0,0,1,0,.19v1.77h-.54v-1.63c0-.44-.19-.66-.59-.66a.61.61,0,0,0-.65.6.27.27,0,0,0,0,.09v1.6H445Z" />
            <rect class="cls-4" x="448.22" y="727.27" width="0.54" height="3.79" />
            <path class="cls-4"
                d="M449.5,729.7a1.3,1.3,0,1,1,2.58-.24,1,1,0,0,1,0,.24,1.3,1.3,0,0,1-2.58.25,1,1,0,0,1,0-.25m2,0c0-.59-.26-.93-.73-.93s-.73.34-.73.93.26.94.73.94.73-.34.73-.94" />
            <path class="cls-4"
                d="M452.64,730.3c0-.49.37-.78,1-.82l.74,0v-.24c0-.28-.19-.45-.56-.45s-.51.11-.57.31h-.52c.05-.47.5-.77,1.12-.77s1.07.34,1.07.91v1.87h-.52v-.39h-.05a.88.88,0,0,1-.82.43.82.82,0,0,1-.9-.73s0-.06,0-.08m1.76-.24v-.22l-.67,0c-.37,0-.54.15-.54.39s.21.39.5.39a.64.64,0,0,0,.71-.58v0" />
            <path class="cls-4"
                d="M455.64,729.7c0-.86.45-1.41,1.14-1.41a.9.9,0,0,1,.83.48h0v-1.5h.54v3.8h-.51v-.43h-.05a.93.93,0,0,1-.85.47c-.7,0-1.14-.54-1.14-1.41m.56,0c0,.58.27.93.73.93s.73-.35.73-.93-.28-.92-.73-.92-.73.35-.73.92" />
            <path class="cls-4"
                d="M460.42,729.7a1.29,1.29,0,1,1,2.57-.24,1,1,0,0,1,0,.24,1.29,1.29,0,1,1-2.57.25,1,1,0,0,1,0-.25m2,0c0-.59-.27-.93-.73-.93s-.73.34-.73.93.26.94.73.94.73-.34.73-.94" />
            <path class="cls-4"
                d="M463.72,728.34h.51v.43h0a.79.79,0,0,1,.81-.48.89.89,0,0,1,1,.82.61.61,0,0,1,0,.19v1.77h-.53v-1.63c0-.44-.2-.66-.59-.66a.63.63,0,0,0-.66.6v1.69h-.53Z" />
            <path class="cls-4"
                d="M469.08,727.66v.69h.59v.46h-.59v1.4c0,.28.12.41.38.41h.21v.45l-.29,0c-.6,0-.84-.21-.84-.73v-1.54h-.43v-.46h.43v-.69Z" />
            <path class="cls-4"
                d="M470.41,727.27h.53v1.51h0a.83.83,0,0,1,.83-.49.9.9,0,0,1,.95.85,1,1,0,0,1,0,.17v1.76h-.54v-1.63c0-.44-.2-.66-.58-.66a.64.64,0,0,0-.69.59v1.7h-.53Z" />
            <path class="cls-4"
                d="M475.89,730.33a1.09,1.09,0,0,1-1.18.79,1.24,1.24,0,0,1-1.27-1.21,1.41,1.41,0,0,1,0-.2,1.25,1.25,0,0,1,1.08-1.41h.18a1.2,1.2,0,0,1,1.22,1.37v.19H474v0a.72.72,0,0,0,.66.78h.07a.66.66,0,0,0,.65-.33Zm-1.89-.88h1.38a.65.65,0,0,0-.61-.7h-.06a.7.7,0,0,0-.71.69Z" />
            <path class="cls-5"
                d="M534.09,746.54H496.83a3,3,0,0,1-2.87-1.43,3.78,3.78,0,0,1-.54-1.81c0-5.91,0-11.82,0-17.72a3.17,3.17,0,0,1,3.41-3.26h74.6a3.12,3.12,0,0,1,3.23,2.12,4.69,4.69,0,0,1,.21,1.34c0,5.76,0,11.52,0,17.29a3.29,3.29,0,0,1-3.5,3.48q-18.63,0-37.27,0m0-.58h37.19c2,0,3-1,3-3V725.67a2.6,2.6,0,0,0-2.75-2.77h-74.3a8.43,8.43,0,0,0-.87,0,2.49,2.49,0,0,0-2.34,2.54q0,9,0,17.93a2.5,2.5,0,0,0,2.29,2.53,8.46,8.46,0,0,0,1,0h36.75" />
            <path class="cls-6"
                d="M534.06,746H497.31a8.46,8.46,0,0,1-1,0A2.5,2.5,0,0,1,494,743.4q0-9,0-17.93a2.49,2.49,0,0,1,2.35-2.54,8.14,8.14,0,0,1,.86,0h74.3a2.6,2.6,0,0,1,2.75,2.77V743c0,2-1,3-3,3H534.06m-24.2-9c1-.54,1.94-1,2.88-1.61s.93-1.25,0-1.8-1.92-1.08-2.87-1.62l-5.67-3.23c-1-.59-2.07-1.18-3.12-1.75-.68-.38-.85-.34-1.39.11a3.62,3.62,0,0,0-.22.89c0,4.32,0,8.64,0,13a3.74,3.74,0,0,0,.3,1c.37.48.82.32,1.22.09q4.44-2.51,8.86-5m16-.67h-3.64v1.14h2.67a7.85,7.85,0,0,1-.72,1.27,2.76,2.76,0,0,1-3.38.44,2.87,2.87,0,0,1-1.27-3.42,2.76,2.76,0,0,1,2.89-1.9,11.19,11.19,0,0,1,1.72.57l.81-.59a3.12,3.12,0,0,0-.24-.25,3.86,3.86,0,0,0-4.39-.41,3.71,3.71,0,0,0-2.16,3.68,4.07,4.07,0,0,0,6.66,2.88,3.57,3.57,0,0,0,1-3.41m15.37-.39a2.34,2.34,0,0,0-3.07.41,2.65,2.65,0,0,0-.25,3.2,2.55,2.55,0,0,0,1.56,1.08,2.42,2.42,0,0,0,1.83-.4c.06.71-.08,1.3-.72,1.56a1.46,1.46,0,0,1-1.93-.77l-.94.41a2.45,2.45,0,0,0,2.69,1.53,2.25,2.25,0,0,0,2-2.12,4.74,4.74,0,0,0,0-.65c0-1.34,0-2.68,0-4a3.51,3.51,0,0,0-.07-.5c-.4.11-.83-.19-1.15.28m12,1.73c.64,0,1.19,0,1.74,0a2.36,2.36,0,0,0,2.29-2.16,2.24,2.24,0,0,0-2-2.46c-1-.1-2.1,0-3.16,0v7.47h1.14Zm9.75,2.83H564c0-1,0-2,0-3a2,2,0,0,0-1.73-2,2.18,2.18,0,0,0-2.55,1.17l1,.39a1.34,1.34,0,0,1,1.52-.45.88.88,0,0,1,.66.86,2.77,2.77,0,0,0-2.48.11,1.48,1.48,0,0,0-.82,1.41,1.52,1.52,0,0,0,.95,1.41,2,2,0,0,0,2.3-.33c0,.14.1.26.14.38m-31-2.41a2.5,2.5,0,0,0,2.58,2.59,2.58,2.58,0,0,0,0-5.15,2.5,2.5,0,0,0-2.6,2.56m-3.06,2.59a2.58,2.58,0,1,0,.08-5.15,2.58,2.58,0,1,0-.08,5.15m20.74-3.19c-.49-1.42-1.39-2.08-2.57-2a2.4,2.4,0,0,0-2.14,2.18,2.54,2.54,0,0,0,4.66,1.78l-.85-.56c-1,.95-1.82.92-2.44-.05l3.34-1.39m16.55,5.28,3.08-7.08H568c-.42,1-.83,2.06-1.29,3.21l-1.33-3.18h-1.25l2,4.52c-.37.84-.73,1.66-1.12,2.53Zm-22.91-2.27h1.07v-7.49h-1.07Zm14.61,0H559V733h-1.11Zm-35.8-12.13h-1.76v.55h1.23c-.32.89-1,1.21-1.73.88a1.36,1.36,0,0,1-.69-1.91c.43-.82,1.23-.94,2.24-.32.1-.11.2-.23.31-.34a1.83,1.83,0,0,0-2.47-.31,2,2,0,0,0-.64,2.49,2,2,0,0,0,2.37,1,1.6,1.6,0,0,0,1.14-2M539,726.6v3.64h.54v-2.52l.1,0,1.64,2.59.54,0v-3.67l-.57.07v2.5l-1.62-2.54Zm-4.38,1.82a1.84,1.84,0,0,0,1.88,2,1.94,1.94,0,0,0,.06-3.88,1.83,1.83,0,0,0-1.94,1.91m-12-1.81v3.64h2.22c0-.17,0-.32,0-.53h-1.61v-1h1.49c0-.21,0-.36,0-.54h-1.43v-1h1.62v-.54Zm3.62.54v3.09h.64v-3l1-.06c0-.19,0-.36,0-.51h-2.59c0,.21,0,.36.07.53Zm6,3.1v-3.06l.92-.07v-.51h-2.55v.51l1,.09v3Zm-2.19,0v-3.67l-.49,0v3.63Z" />
            <path class="cls-7"
                d="M499.78,741.87a3.74,3.74,0,0,1-.3-1c0-4.32,0-8.64,0-13a3.62,3.62,0,0,1,.22-.89c.64.61,1.29,1.19,1.92,1.82,1.86,1.85,3.71,3.73,5.56,5.59q-3.69,3.72-7.4,7.43" />
            <path class="cls-8"
                d="M507.18,734.44c-1.85-1.86-3.7-3.74-5.56-5.59-.62-.63-1.28-1.21-1.92-1.82.53-.45.71-.49,1.39-.11,1.05.57,2.08,1.16,3.12,1.75l5.67,3.24-2.5,2.52h-.2" />
            <path class="cls-9"
                d="M507.18,734.44h.2l2.48,2.5q-4.42,2.52-8.86,5c-.4.23-.85.39-1.22-.09q3.71-3.72,7.4-7.43" />
            <path class="cls-10"
                d="M509.86,736.93l-2.48-2.5c.83-.84,1.66-1.69,2.5-2.53.95.54,1.92,1.06,2.87,1.62s.91,1.26,0,1.8-1.92,1.07-2.88,1.61" />
            <path class="cls-6"
                d="M541.42,738a1.42,1.42,0,0,1-1.28,1.54,1.46,1.46,0,0,1-1.44-1.47,1.44,1.44,0,0,1,1.42-1.56,1.36,1.36,0,0,1,1.3,1.49" />
            <path class="cls-6"
                d="M553.28,734c.55,0,1.05,0,1.55,0a1.29,1.29,0,0,1,1.26,1.23,1.26,1.26,0,0,1-1.2,1.27,8.19,8.19,0,0,1-.86,0h-.75Z" />
            <path class="cls-6" d="M562.86,738.43a1.25,1.25,0,0,1-1,1.1.92.92,0,0,1-1.08-.57c.33-.84,1.1-1,2.12-.53" />
            <path class="cls-6"
                d="M533.1,738.06a1.42,1.42,0,1,1,2.83,0,1.52,1.52,0,0,1-1.42,1.52,1.49,1.49,0,0,1-1.41-1.51" />
            <path class="cls-6"
                d="M527.49,738.05a1.43,1.43,0,0,1,1.38-1.52,1.45,1.45,0,0,1,1.46,1.46,1.5,1.5,0,0,1-1.44,1.57,1.46,1.46,0,0,1-1.4-1.51" />
            <path class="cls-6" d="M548.26,737l-2.22.92a1.4,1.4,0,0,1,1-1.35,1.05,1.05,0,0,1,1.26.43" />
            <path class="cls-6"
                d="M537.77,728.47a1.3,1.3,0,0,1-1.35,1.36,1.38,1.38,0,0,1,.06-2.76,1.29,1.29,0,0,1,1.29,1.4" />
            <path d="M576.78,787.23H501.35a3,3,0,0,1-3-3V766.1a3,3,0,0,1,3-3h75.43a3,3,0,0,1,3,3v18.11a3,3,0,0,1-3,3" />
            <path class="cls-11"
                d="M576.78,763.57a2.54,2.54,0,0,1,2.54,2.53v18.11a2.54,2.54,0,0,1-2.54,2.53H501.35a2.53,2.53,0,0,1-2.53-2.53V766.1a2.53,2.53,0,0,1,2.53-2.53h75.43m0-.48H501.35a3,3,0,0,0-3,3v18.11a3,3,0,0,0,3,3h75.43a3,3,0,0,0,3-3V766.1a3,3,0,0,0-3-3" />
            <path class="cls-4"
                d="M539.45,776.21a2.57,2.57,0,1,0,2.58,2.57,2.53,2.53,0,0,0-2.58-2.57m0,4.13a1.56,1.56,0,1,1,1.45-1.56,1.49,1.49,0,0,1-1.45,1.56m-5.62-4.13a2.57,2.57,0,1,0,2.58,2.57,2.53,2.53,0,0,0-2.58-2.57m0,4.13a1.56,1.56,0,1,1,1.45-1.56,1.49,1.49,0,0,1-1.45,1.56M527.14,777v1.09h2.61a2.29,2.29,0,0,1-.59,1.37,2.69,2.69,0,0,1-2,.8,2.9,2.9,0,0,1,0-5.8,2.78,2.78,0,0,1,2,.78l.77-.77a3.81,3.81,0,0,0-2.74-1.09,4,4,0,1,0,0,8,3.54,3.54,0,0,0,3.73-3.67,3.51,3.51,0,0,0-.06-.68Zm27.35.85a2.4,2.4,0,0,0-2.2-1.64,2.44,2.44,0,0,0-2.42,2.57,2.55,2.55,0,0,0,4.68,1.43l-.87-.58a1.48,1.48,0,0,1-1.26.71,1.31,1.31,0,0,1-1.25-.78l3.43-1.42Zm-3.5.85a1.4,1.4,0,0,1,1.34-1.49,1,1,0,0,1,.95.54Zm-2.79,2.49h1.12v-7.54H548.2Zm-1.85-4.4h0a1.78,1.78,0,0,0-1.35-.58,2.57,2.57,0,0,0,0,5.14,1.75,1.75,0,0,0,1.35-.59h0v.37a1.32,1.32,0,0,1-1.37,1.51,1.45,1.45,0,0,1-1.3-.91l-1,.41a2.44,2.44,0,0,0,2.28,1.51,2.35,2.35,0,0,0,2.44-2.67v-4.61h-1.07Zm-1.29,3.55a1.47,1.47,0,0,1-1.43-1.55,1.49,1.49,0,0,1,1.43-1.57,1.46,1.46,0,0,1,1.37,1.57,1.44,1.44,0,0,1-1.37,1.55m14.71-6.69h-2.7v7.54h1.13v-2.86h1.57a2.34,2.34,0,1,0,0-4.68m0,3.63h-1.6V774.7h1.6a1.29,1.29,0,1,1,0,2.58m7-1.08a2.12,2.12,0,0,0-2,1.15l1,.42a1.06,1.06,0,0,1,1-.55,1.08,1.08,0,0,1,1.18,1v.08a2.43,2.43,0,0,0-1.17-.29c-1.08,0-2.18.59-2.18,1.7a1.74,1.74,0,0,0,1.88,1.65,1.59,1.59,0,0,0,1.43-.73h0v.58h1.09v-2.89a2.07,2.07,0,0,0-2.29-2.09m-.14,4.13c-.37,0-.88-.18-.88-.64s.64-.8,1.19-.8a2.05,2.05,0,0,1,1,.25,1.36,1.36,0,0,1-1.34,1.19m6.39-4-1.29,3.28h0l-1.34-3.28h-1.21l2,4.58L570,783.48h1.17l3.1-7.12Zm-10.14,4.83H564v-7.54h-1.12Z" />
            <path class="cls-12"
                d="M504.63,767.64a1.21,1.21,0,0,0-.28.85v13.33a1.17,1.17,0,0,0,.28.85l0,.05,7.47-7.48v-.17l-7.47-7.47,0,0" />
        </g>
    </g>
    <g id="Footer_text" data-name="Footer text">
        <path class="cls-13" d="M38,723.11v8.43H37v-8.43Z" />
        <path class="cls-13"
            d="M40.14,731.54v-5.22h-.85v-.83h.85v-.29a2.8,2.8,0,0,1,.7-2.11,2.1,2.1,0,0,1,1.47-.57,2.48,2.48,0,0,1,.94.18l-.15.85a1.57,1.57,0,0,0-.7-.14c-.94,0-1.18.83-1.18,1.75v.33h1.47v.83H41.22v5.22Z" />
        <path class="cls-13"
            d="M46.72,725.49l1.33,3.57c.14.4.29.88.39,1.24h0c.11-.36.24-.83.39-1.26l1.2-3.55h1.16l-1.65,4.31c-.79,2.07-1.32,3.13-2.07,3.78a3,3,0,0,1-1.35.72l-.28-.93a2.62,2.62,0,0,0,1-.54,3.27,3.27,0,0,0,.93-1.22.8.8,0,0,0,.09-.26,1.07,1.07,0,0,0-.08-.29l-2.24-5.57Z" />
        <path class="cls-13"
            d="M57.56,728.46a3,3,0,0,1-3,3.21,2.87,2.87,0,0,1-2.9-3.11,3,3,0,0,1,3-3.21A2.86,2.86,0,0,1,57.56,728.46Zm-4.8.06c0,1.33.76,2.33,1.84,2.33s1.84-1,1.84-2.35c0-1-.52-2.33-1.82-2.33S52.76,727.37,52.76,728.52Z" />
        <path class="cls-13"
            d="M64,729.89c0,.62,0,1.17,0,1.65h-1l-.07-1h0a2.28,2.28,0,0,1-2,1.12c-1,0-2.09-.52-2.09-2.65v-3.53H60v3.35c0,1.15.35,1.92,1.35,1.92a1.58,1.58,0,0,0,1.45-1,1.64,1.64,0,0,0,.1-.56v-3.71H64Z" />
        <path class="cls-13"
            d="M68.92,725.49l.8,3.07c.18.68.34,1.3.45,1.93h0c.14-.62.34-1.27.54-1.92l1-3.08h.92l.94,3c.22.73.4,1.36.54,2h0c.1-.62.27-1.25.46-2l.87-3h1.08l-2,6h-1l-.93-2.89c-.21-.68-.39-1.28-.54-2h0a18.15,18.15,0,0,1-.55,2l-1,2.88h-1l-1.82-6Z" />
        <path class="cls-13"
            d="M78.17,728.71a1.94,1.94,0,0,0,2.08,2.1,4,4,0,0,0,1.67-.31l.19.79a5,5,0,0,1-2,.37,2.81,2.81,0,0,1-3-3c0-1.82,1.08-3.26,2.84-3.26a2.56,2.56,0,0,1,2.5,2.85,3,3,0,0,1,0,.51Zm3.23-.79a1.56,1.56,0,0,0-1.53-1.78,1.81,1.81,0,0,0-1.68,1.78Z" />
        <path class="cls-13"
            d="M83.82,727.37c0-.71,0-1.32,0-1.88h1l0,1.18h0a1.82,1.82,0,0,1,1.68-1.32,1,1,0,0,1,.31,0v1a2,2,0,0,0-.37,0A1.54,1.54,0,0,0,85,727.8a3.67,3.67,0,0,0,0,.51v3.23H83.82Z" />
        <path class="cls-13"
            d="M88.41,728.71a1.94,1.94,0,0,0,2.08,2.1,4.06,4.06,0,0,0,1.67-.31l.19.79a5,5,0,0,1-2,.37,2.81,2.81,0,0,1-3-3c0-1.82,1.08-3.26,2.84-3.26a2.57,2.57,0,0,1,2.5,2.85,4.58,4.58,0,0,1,0,.51Zm3.23-.79a1.56,1.56,0,0,0-1.53-1.78,1.82,1.82,0,0,0-1.69,1.78Z" />
        <path class="cls-13"
            d="M97.32,728.71a1.94,1.94,0,0,0,2.08,2.1,4,4,0,0,0,1.67-.31l.19.79a5,5,0,0,1-2,.37,2.81,2.81,0,0,1-3-3c0-1.82,1.08-3.26,2.84-3.26a2.57,2.57,0,0,1,2.5,2.85,4.58,4.58,0,0,1,0,.51Zm3.23-.79A1.56,1.56,0,0,0,99,726.14a1.81,1.81,0,0,0-1.68,1.78Z" />
        <path class="cls-13"
            d="M103.45,725.49l.86,1.3c.23.33.41.65.61,1h0c.2-.36.4-.67.6-1l.85-1.28h1.19l-2.06,2.92,2.12,3.13h-1.25l-.89-1.37c-.23-.35-.43-.68-.65-1h0c-.2.37-.41.69-.64,1l-.87,1.37h-1.22l2.15-3.09-2-3Z" />
        <path class="cls-13"
            d="M108.72,727.46c0-.77,0-1.4,0-2h1l0,1h0a2.39,2.39,0,0,1,2.15-1.17c1.46,0,2.56,1.24,2.56,3.07,0,2.18-1.33,3.25-2.75,3.25a2.11,2.11,0,0,1-1.86-.95h0V734h-1.09Zm1.09,1.61a2.81,2.81,0,0,0,0,.45,1.69,1.69,0,0,0,1.65,1.29c1.16,0,1.84-.95,1.84-2.34,0-1.21-.64-2.25-1.8-2.25a1.75,1.75,0,0,0-1.66,1.37,1.63,1.63,0,0,0-.08.45Z" />
        <path class="cls-13"
            d="M121.31,728.46a3,3,0,0,1-3,3.21,2.87,2.87,0,0,1-2.9-3.11,3,3,0,0,1,3-3.21A2.87,2.87,0,0,1,121.31,728.46Zm-4.8.06c0,1.33.76,2.33,1.84,2.33s1.83-1,1.83-2.35c0-1-.51-2.33-1.81-2.33S116.51,727.37,116.51,728.52Z" />
        <path class="cls-13"
            d="M122.55,730.41a2.89,2.89,0,0,0,1.45.44c.8,0,1.17-.4,1.17-.9s-.31-.81-1.12-1.11c-1.09-.39-1.6-1-1.6-1.72a1.87,1.87,0,0,1,2.09-1.77,3,3,0,0,1,1.48.37l-.27.8a2.38,2.38,0,0,0-1.24-.35c-.65,0-1,.38-1,.83s.36.72,1.15,1c1,.4,1.58.93,1.58,1.83,0,1.06-.82,1.81-2.26,1.81a3.47,3.47,0,0,1-1.7-.41Z" />
        <path class="cls-13"
            d="M128.26,728.71a1.94,1.94,0,0,0,2.07,2.1,4.07,4.07,0,0,0,1.68-.31l.19.79a5,5,0,0,1-2,.37,2.81,2.81,0,0,1-3-3c0-1.82,1.08-3.26,2.84-3.26a2.57,2.57,0,0,1,2.5,2.85,4.58,4.58,0,0,1,0,.51Zm3.22-.79a1.55,1.55,0,0,0-1.52-1.78,1.82,1.82,0,0,0-1.69,1.78Z" />
        <path class="cls-13"
            d="M139.13,722.66V730c0,.54,0,1.15.05,1.57h-1l0-1h0a2.24,2.24,0,0,1-2.06,1.18c-1.46,0-2.59-1.23-2.59-3.07,0-2,1.24-3.25,2.72-3.25a2,2,0,0,1,1.82.92h0v-3.61ZM138,728a1.75,1.75,0,0,0-.05-.46,1.62,1.62,0,0,0-1.58-1.28c-1.14,0-1.81,1-1.81,2.34s.6,2.24,1.78,2.24a1.65,1.65,0,0,0,1.61-1.32A1.78,1.78,0,0,0,138,729Z" />
        <path class="cls-13"
            d="M144.94,723.75v1.74h1.57v.83h-1.57v3.27c0,.75.21,1.17.82,1.17a2.92,2.92,0,0,0,.64-.07l0,.82a2.68,2.68,0,0,1-1,.15,1.51,1.51,0,0,1-1.18-.46,2.21,2.21,0,0,1-.43-1.58v-3.3h-.94v-.83h.94V724Z" />
        <path class="cls-13"
            d="M153.15,728.46a3,3,0,0,1-3,3.21,2.87,2.87,0,0,1-2.89-3.11,3,3,0,0,1,3-3.21A2.87,2.87,0,0,1,153.15,728.46Zm-4.8.06c0,1.33.76,2.33,1.84,2.33s1.83-1,1.83-2.35c0-1-.51-2.33-1.81-2.33S148.35,727.37,148.35,728.52Z" />
        <path class="cls-13"
            d="M163.11,731.26a5.41,5.41,0,0,1-2.23.4,3.94,3.94,0,0,1-4.16-4.26,4.2,4.2,0,0,1,4.4-4.43,4.5,4.5,0,0,1,2,.38l-.26.89a4,4,0,0,0-1.7-.35,3.13,3.13,0,0,0-3.29,3.47,3.07,3.07,0,0,0,3.24,3.39,4.35,4.35,0,0,0,1.77-.35Z" />
        <path class="cls-13"
            d="M171.42,727.24c0,2.9-1.76,4.43-3.91,4.43s-3.79-1.72-3.79-4.27,1.66-4.43,3.91-4.43S171.42,724.74,171.42,727.24Zm-6.53.13c0,1.8,1,3.42,2.68,3.42s2.7-1.59,2.7-3.5c0-1.68-.87-3.43-2.69-3.43S164.89,725.52,164.89,727.37Z" />
        <path class="cls-13"
            d="M174.68,731.54l-2.74-8.43h1.17l1.31,4.15c.36,1.14.68,2.16.9,3.15h0c.23-1,.58-2,1-3.14l1.42-4.16h1.17l-3,8.43Z" />
        <path class="cls-13" d="M180.9,723.11v8.43h-1.09v-8.43Z" />
        <path class="cls-13"
            d="M182.8,723.22a15.59,15.59,0,0,1,2.31-.17,4.81,4.81,0,0,1,3.41,1.05,3.88,3.88,0,0,1,1.19,3,4.5,4.5,0,0,1-1.21,3.28,5.19,5.19,0,0,1-3.73,1.21,18.14,18.14,0,0,1-2-.1Zm1.08,7.45a6.84,6.84,0,0,0,1.1.07,3.24,3.24,0,0,0,3.59-3.58c0-2-1.11-3.25-3.41-3.25a6.5,6.5,0,0,0-1.28.11Z" />
        <path class="cls-13" d="M193.8,727.75v.81h-3.09v-.81Z" />
        <path class="cls-13" d="M197.12,724.44h0l-1.42.76-.21-.84,1.78-1h.93v8.13h-1.06Z" />
        <path class="cls-13"
            d="M201.78,730.76a4.09,4.09,0,0,0,.89,0,3,3,0,0,0,1.7-.78,3.56,3.56,0,0,0,1.08-2.17h0a2.39,2.39,0,0,1-1.91.88,2.35,2.35,0,0,1-2.4-2.49,2.78,2.78,0,0,1,2.77-2.89c1.66,0,2.69,1.35,2.69,3.43a5.11,5.11,0,0,1-1.4,3.81,4.1,4.1,0,0,1-2.36,1.09,5.55,5.55,0,0,1-1,.06Zm.4-4.67a1.57,1.57,0,0,0,1.57,1.72,1.83,1.83,0,0,0,1.6-.85.74.74,0,0,0,.1-.4c0-1.39-.52-2.45-1.67-2.45C202.85,724.11,202.18,724.94,202.18,726.09Z" />
        <path class="cls-13"
            d="M213.91,731.54l-.09-.77h0a2.22,2.22,0,0,1-1.85.9,1.72,1.72,0,0,1-1.85-1.73c0-1.47,1.3-2.27,3.64-2.25v-.13a1.25,1.25,0,0,0-1.37-1.4,3.07,3.07,0,0,0-1.58.45l-.25-.72a3.73,3.73,0,0,1,2-.54c1.85,0,2.3,1.26,2.3,2.47v2.27a8.12,8.12,0,0,0,.1,1.45Zm-.16-3.09c-1.2,0-2.57.19-2.57,1.36a1,1,0,0,0,1,1.05,1.5,1.5,0,0,0,1.46-1,1.09,1.09,0,0,0,.07-.35Z" />
        <path class="cls-13"
            d="M217.86,723.75v1.74h1.57v.83h-1.57v3.27c0,.75.21,1.17.82,1.17a2.92,2.92,0,0,0,.64-.07l.05.82a2.62,2.62,0,0,1-1,.15,1.51,1.51,0,0,1-1.19-.46,2.26,2.26,0,0,1-.43-1.58v-3.3h-.93v-.83h.93V724Z" />
        <path class="cls-13"
            d="M224.65,723.75v1.74h1.57v.83h-1.57v3.27c0,.75.21,1.17.82,1.17a2.92,2.92,0,0,0,.64-.07l0,.82a2.64,2.64,0,0,1-1,.15,1.51,1.51,0,0,1-1.18-.46,2.21,2.21,0,0,1-.43-1.58v-3.3h-.94v-.83h.94V724Z" />
        <path class="cls-13"
            d="M227.46,722.66h1.1v3.78h0a2,2,0,0,1,.79-.78,2.25,2.25,0,0,1,1.13-.31c.81,0,2.11.5,2.11,2.59v3.6h-1.1v-3.48c0-1-.36-1.8-1.4-1.8a1.59,1.59,0,0,0-1.48,1.1,1.39,1.39,0,0,0-.07.53v3.65h-1.1Z" />
        <path class="cls-13"
            d="M235.62,723.79a.68.68,0,0,1-1.36,0,.67.67,0,0,1,.69-.69A.65.65,0,0,1,235.62,723.79Zm-1.22,7.75v-6h1.1v6Z" />
        <path class="cls-13"
            d="M237.17,730.41a2.92,2.92,0,0,0,1.45.44c.8,0,1.18-.4,1.18-.9s-.32-.81-1.13-1.11c-1.09-.39-1.6-1-1.6-1.72a1.87,1.87,0,0,1,2.09-1.77,3,3,0,0,1,1.49.37l-.28.8a2.35,2.35,0,0,0-1.24-.35c-.65,0-1,.38-1,.83s.36.72,1.15,1c1,.4,1.59.93,1.59,1.83,0,1.06-.83,1.81-2.26,1.81a3.42,3.42,0,0,1-1.7-.41Z" />
        <path class="cls-13" d="M244.92,722.66H246v8.88h-1.1Z" />
        <path class="cls-13"
            d="M253.34,728.46a3,3,0,0,1-3,3.21,2.88,2.88,0,0,1-2.9-3.11,3,3,0,0,1,3-3.21A2.86,2.86,0,0,1,253.34,728.46Zm-4.79.06c0,1.33.76,2.33,1.83,2.33s1.84-1,1.84-2.35c0-1-.51-2.33-1.81-2.33S248.55,727.37,248.55,728.52Z" />
        <path class="cls-13"
            d="M259,731.31a4,4,0,0,1-1.73.35,2.87,2.87,0,0,1-3-3.09,3.07,3.07,0,0,1,3.24-3.21,3.71,3.71,0,0,1,1.53.31l-.25.85a2.58,2.58,0,0,0-1.28-.28,2.28,2.28,0,0,0,0,4.55,3.29,3.29,0,0,0,1.35-.3Z" />
        <path class="cls-13"
            d="M263.68,731.54l-.09-.77h0a2.25,2.25,0,0,1-1.85.9,1.72,1.72,0,0,1-1.85-1.73c0-1.47,1.3-2.27,3.64-2.25v-.13a1.25,1.25,0,0,0-1.38-1.4,3,3,0,0,0-1.57.45l-.25-.72a3.69,3.69,0,0,1,2-.54c1.85,0,2.3,1.26,2.3,2.47v2.27a9.17,9.17,0,0,0,.1,1.45Zm-.16-3.09c-1.2,0-2.56.19-2.56,1.36a1,1,0,0,0,1,1.05,1.52,1.52,0,0,0,1.46-1,1.07,1.07,0,0,0,.06-.35Z" />
        <path class="cls-13"
            d="M267.65,723.75v1.74h1.57v.83h-1.57v3.27c0,.75.21,1.17.82,1.17a2.92,2.92,0,0,0,.64-.07l.05.82a2.68,2.68,0,0,1-1,.15,1.51,1.51,0,0,1-1.18-.46,2.21,2.21,0,0,1-.43-1.58v-3.3h-.94v-.83h.94V724Z" />
        <path class="cls-13"
            d="M271.68,723.79a.64.64,0,0,1-.7.67.66.66,0,0,1-.66-.67.67.67,0,0,1,.69-.69A.65.65,0,0,1,271.68,723.79Zm-1.22,7.75v-6h1.1v6Z" />
        <path class="cls-13"
            d="M278.86,728.46a3,3,0,0,1-3,3.21,2.87,2.87,0,0,1-2.89-3.11,3,3,0,0,1,3-3.21A2.87,2.87,0,0,1,278.86,728.46Zm-4.8.06c0,1.33.76,2.33,1.84,2.33s1.83-1,1.83-2.35c0-1-.51-2.33-1.81-2.33S274.06,727.37,274.06,728.52Z" />
        <path class="cls-13"
            d="M280.25,727.12c0-.62,0-1.13-.05-1.63h1l.06,1h0a2.22,2.22,0,0,1,2-1.14c.83,0,2.13.5,2.13,2.57v3.62h-1.1v-3.49c0-1-.36-1.79-1.4-1.79a1.56,1.56,0,0,0-1.47,1.13,1.53,1.53,0,0,0-.07.51v3.64h-1.1Z" />
        <path class="cls-13" d="M286.47,733.07a17.77,17.77,0,0,0,.75-3l1.22-.13a15,15,0,0,1-1.18,3Z" />
        <path class="cls-13"
            d="M37.31,737.49l1.33,3.57c.13.4.28.88.38,1.24h0c.11-.36.24-.83.39-1.26l1.2-3.55H41.8l-1.65,4.31c-.79,2.07-1.33,3.13-2.08,3.78a2.91,2.91,0,0,1-1.35.72l-.27-.93a2.7,2.7,0,0,0,1-.54,3.27,3.27,0,0,0,.93-1.22.73.73,0,0,0,.08-.26,1,1,0,0,0-.07-.29l-2.24-5.57Z" />
        <path class="cls-13"
            d="M48.15,740.46a3,3,0,0,1-3,3.21,2.87,2.87,0,0,1-2.9-3.11,3,3,0,0,1,3-3.21A2.87,2.87,0,0,1,48.15,740.46Zm-4.8.06c0,1.33.76,2.33,1.84,2.33s1.83-1,1.83-2.35c0-1-.51-2.33-1.81-2.33S43.35,739.37,43.35,740.52Z" />
        <path class="cls-13"
            d="M54.6,741.89c0,.62,0,1.17,0,1.65h-1l-.06-1h0a2.28,2.28,0,0,1-2,1.12c-1,0-2.09-.52-2.09-2.65v-3.53h1.1v3.35c0,1.15.35,1.92,1.35,1.92a1.58,1.58,0,0,0,1.45-1,1.64,1.64,0,0,0,.1-.56v-3.71h1.1Z" />
        <path class="cls-13"
            d="M56.42,739.37c0-.71,0-1.32-.05-1.88h1l0,1.18h.05a1.82,1.82,0,0,1,1.68-1.32,1,1,0,0,1,.31,0v1a2,2,0,0,0-.37,0,1.54,1.54,0,0,0-1.48,1.41,3.67,3.67,0,0,0-.05.51v3.23H56.42Z" />
        <path class="cls-13" d="M63.16,734.66h1.1v8.88h-1.1Z" />
        <path class="cls-13"
            d="M71.59,740.46a3,3,0,0,1-3,3.21,2.88,2.88,0,0,1-2.9-3.11,3,3,0,0,1,3-3.21A2.87,2.87,0,0,1,71.59,740.46Zm-4.8.06c0,1.33.76,2.33,1.83,2.33s1.84-1,1.84-2.35c0-1-.51-2.33-1.81-2.33S66.79,739.37,66.79,740.52Z" />
        <path class="cls-13"
            d="M77.29,743.31a4.08,4.08,0,0,1-1.74.35,2.87,2.87,0,0,1-3-3.09,3.07,3.07,0,0,1,3.25-3.21,3.66,3.66,0,0,1,1.52.31l-.25.85a2.53,2.53,0,0,0-1.27-.28,2.28,2.28,0,0,0,0,4.55,3.25,3.25,0,0,0,1.35-.3Z" />
        <path class="cls-13"
            d="M81.92,743.54l-.08-.77h0a2.25,2.25,0,0,1-1.85.9,1.72,1.72,0,0,1-1.85-1.73c0-1.47,1.3-2.27,3.64-2.25v-.13a1.25,1.25,0,0,0-1.38-1.4,3,3,0,0,0-1.57.45l-.25-.72a3.69,3.69,0,0,1,2-.54c1.85,0,2.3,1.26,2.3,2.47v2.27a9.17,9.17,0,0,0,.1,1.45Zm-.16-3.09c-1.2,0-2.56.19-2.56,1.36a1,1,0,0,0,1,1.05,1.52,1.52,0,0,0,1.46-1,1.07,1.07,0,0,0,.06-.35Z" />
        <path class="cls-13" d="M84.6,734.66h1.1v8.88H84.6Z" />
        <path class="cls-13"
            d="M90.2,739.46c0-.77,0-1.4,0-2h1l0,1h0a2.39,2.39,0,0,1,2.15-1.17c1.46,0,2.56,1.24,2.56,3.07,0,2.18-1.32,3.25-2.75,3.25a2.11,2.11,0,0,1-1.86-.95h0V746H90.2Zm1.09,1.61a2,2,0,0,0,0,.45A1.69,1.69,0,0,0,93,742.81c1.16,0,1.83-.95,1.83-2.34,0-1.21-.63-2.25-1.8-2.25a1.75,1.75,0,0,0-1.66,1.37,1.63,1.63,0,0,0-.07.45Z" />
        <path class="cls-13"
            d="M102.37,741.89c0,.62,0,1.17,0,1.65h-1l-.06-1h0a2.27,2.27,0,0,1-2,1.12c-1,0-2.09-.52-2.09-2.65v-3.53h1.1v3.35c0,1.15.35,1.92,1.35,1.92a1.58,1.58,0,0,0,1.45-1,1.43,1.43,0,0,0,.1-.56v-3.71h1.1Z" />
        <path class="cls-13"
            d="M104.15,743.54c0-.42,0-1,0-1.57v-7.31h1.09v3.8h0a2.27,2.27,0,0,1,2.06-1.11c1.5,0,2.56,1.25,2.55,3.09,0,2.16-1.36,3.23-2.71,3.23a2.16,2.16,0,0,1-2-1.13h0l-.05,1Zm1.14-2.43a1.7,1.7,0,0,0,1.7,1.69c1.14,0,1.83-.94,1.83-2.33,0-1.21-.62-2.25-1.8-2.25a1.75,1.75,0,0,0-1.67,1.35,2,2,0,0,0-.06.45Z" />
        <path class="cls-13" d="M111.31,734.66h1.1v8.88h-1.1Z" />
        <path class="cls-13"
            d="M115.49,735.79a.69.69,0,0,1-1.37,0,.67.67,0,0,1,.69-.69A.66.66,0,0,1,115.49,735.79Zm-1.23,7.75v-6h1.1v6Z" />
        <path class="cls-13"
            d="M121.5,743.31a4.08,4.08,0,0,1-1.74.35,2.88,2.88,0,0,1-3-3.09,3.07,3.07,0,0,1,3.25-3.21,3.66,3.66,0,0,1,1.52.31l-.25.85a2.53,2.53,0,0,0-1.27-.28,2.28,2.28,0,0,0,0,4.55,3.25,3.25,0,0,0,1.35-.3Z" />
        <path class="cls-13"
            d="M125.44,734.66h1.1v3.78h0a2,2,0,0,1,.79-.78,2.21,2.21,0,0,1,1.12-.31c.81,0,2.11.5,2.11,2.59v3.6h-1.1v-3.48c0-1-.36-1.8-1.4-1.8a1.58,1.58,0,0,0-1.47,1.1,1.39,1.39,0,0,0-.07.53v3.65h-1.1Z" />
        <path class="cls-13"
            d="M133,740.71a1.93,1.93,0,0,0,2.07,2.1,4,4,0,0,0,1.67-.31l.19.79a5,5,0,0,1-2,.37,2.8,2.8,0,0,1-3-3c0-1.82,1.07-3.26,2.83-3.26a2.56,2.56,0,0,1,2.5,2.85,3,3,0,0,1,0,.51Zm3.22-.79a1.56,1.56,0,0,0-1.52-1.78,1.82,1.82,0,0,0-1.69,1.78Z" />
        <path class="cls-13"
            d="M142,743.54l-.08-.77h0a2.25,2.25,0,0,1-1.85.9,1.72,1.72,0,0,1-1.85-1.73c0-1.47,1.3-2.27,3.64-2.25v-.13a1.25,1.25,0,0,0-1.38-1.4,3,3,0,0,0-1.57.45l-.25-.72a3.69,3.69,0,0,1,2-.54c1.85,0,2.3,1.26,2.3,2.47v2.27a9.17,9.17,0,0,0,.1,1.45Zm-.16-3.09c-1.2,0-2.56.19-2.56,1.36a1,1,0,0,0,1,1.05,1.52,1.52,0,0,0,1.46-1,1.07,1.07,0,0,0,.06-.35Z" />
        <path class="cls-13" d="M144.66,734.66h1.1v8.88h-1.1Z" />
        <path class="cls-13"
            d="M148.93,735.75v1.74h1.58v.83h-1.58v3.27c0,.75.22,1.17.83,1.17a2.92,2.92,0,0,0,.64-.07l0,.82a2.68,2.68,0,0,1-1,.15,1.54,1.54,0,0,1-1.19-.46,2.26,2.26,0,0,1-.42-1.58v-3.3h-.94v-.83h.94V736Z" />
        <path class="cls-13"
            d="M151.75,734.66h1.1v3.78h0a2,2,0,0,1,.79-.78,2.21,2.21,0,0,1,1.12-.31c.82,0,2.12.5,2.12,2.59v3.6h-1.1v-3.48c0-1-.37-1.8-1.4-1.8a1.58,1.58,0,0,0-1.48,1.1,1.39,1.39,0,0,0-.07.53v3.65h-1.1Z" />
        <path class="cls-13"
            d="M164.68,743.54l-.08-.77h0a2.25,2.25,0,0,1-1.85.9,1.72,1.72,0,0,1-1.85-1.73c0-1.47,1.3-2.27,3.64-2.25v-.13a1.25,1.25,0,0,0-1.38-1.4,3,3,0,0,0-1.57.45l-.25-.72a3.69,3.69,0,0,1,2-.54c1.85,0,2.3,1.26,2.3,2.47v2.27a9.17,9.17,0,0,0,.1,1.45Zm-.16-3.09c-1.2,0-2.56.19-2.56,1.36a1,1,0,0,0,1,1.05,1.52,1.52,0,0,0,1.46-1,1.07,1.07,0,0,0,.06-.35Z" />
        <path class="cls-13"
            d="M172.42,741.89c0,.62,0,1.17.05,1.65h-1l-.07-1h0a2.28,2.28,0,0,1-2,1.12c-.95,0-2.09-.52-2.09-2.65v-3.53h1.1v3.35c0,1.15.35,1.92,1.35,1.92a1.58,1.58,0,0,0,1.45-1,1.64,1.64,0,0,0,.1-.56v-3.71h1.1Z" />
        <path class="cls-13"
            d="M175.57,735.75v1.74h1.58v.83h-1.58v3.27c0,.75.21,1.17.83,1.17a2.81,2.81,0,0,0,.63-.07l.05.82a2.62,2.62,0,0,1-1,.15,1.53,1.53,0,0,1-1.19-.46,2.26,2.26,0,0,1-.42-1.58v-3.3h-.94v-.83h.94V736Z" />
        <path class="cls-13"
            d="M178.38,734.66h1.1v3.78h0a2,2,0,0,1,.79-.78,2.21,2.21,0,0,1,1.12-.31c.81,0,2.11.5,2.11,2.59v3.6h-1.1v-3.48c0-1-.36-1.8-1.4-1.8a1.58,1.58,0,0,0-1.47,1.1,1.38,1.38,0,0,0-.08.53v3.65h-1.1Z" />
        <path class="cls-13"
            d="M190.8,740.46a3,3,0,0,1-3,3.21,2.88,2.88,0,0,1-2.9-3.11,3,3,0,0,1,3-3.21A2.87,2.87,0,0,1,190.8,740.46Zm-4.8.06c0,1.33.76,2.33,1.83,2.33s1.84-1,1.84-2.35c0-1-.51-2.33-1.81-2.33S186,739.37,186,740.52Z" />
        <path class="cls-13"
            d="M192.18,739.37c0-.71,0-1.32-.05-1.88h1l0,1.18h.05a1.82,1.82,0,0,1,1.68-1.32,1,1,0,0,1,.31,0v1a2,2,0,0,0-.37,0,1.54,1.54,0,0,0-1.48,1.41,3.67,3.67,0,0,0,0,.51v3.23h-1.09Z" />
        <path class="cls-13"
            d="M197.55,735.79a.69.69,0,0,1-1.37,0,.67.67,0,0,1,.69-.69A.66.66,0,0,1,197.55,735.79Zm-1.23,7.75v-6h1.1v6Z" />
        <path class="cls-13"
            d="M200.57,735.75v1.74h1.58v.83h-1.58v3.27c0,.75.21,1.17.83,1.17a2.81,2.81,0,0,0,.63-.07l.05.82a2.62,2.62,0,0,1-1,.15,1.53,1.53,0,0,1-1.19-.46,2.26,2.26,0,0,1-.42-1.58v-3.3h-.94v-.83h.94V736Z" />
        <path class="cls-13"
            d="M203.9,737.49l1.32,3.57c.14.4.29.88.39,1.24h0c.12-.36.24-.83.39-1.26l1.2-3.55h1.16l-1.65,4.31c-.78,2.07-1.32,3.13-2.07,3.78a3,3,0,0,1-1.35.72l-.28-.93a2.74,2.74,0,0,0,1-.54,3.26,3.26,0,0,0,.92-1.22.8.8,0,0,0,.09-.26,1.07,1.07,0,0,0-.08-.29l-2.23-5.57Z" />
        <path class="cls-13"
            d="M212,739.12c0-.62,0-1.13-.05-1.63h1l.05,1h0a2.1,2.1,0,0,1,1.9-1.11,1.8,1.8,0,0,1,1.72,1.21h0a2.55,2.55,0,0,1,.68-.79,2.07,2.07,0,0,1,1.33-.42c.8,0,2,.52,2,2.62v3.57H219.6v-3.43c0-1.16-.43-1.86-1.32-1.86a1.43,1.43,0,0,0-1.3,1,1.82,1.82,0,0,0-.08.55v3.74h-1.08v-3.63c0-1-.42-1.66-1.26-1.66a1.49,1.49,0,0,0-1.36,1.1,1.36,1.36,0,0,0-.09.54v3.65H212Z" />
        <path class="cls-13"
            d="M225.81,743.54l-.09-.77h0a2.22,2.22,0,0,1-1.85.9,1.72,1.72,0,0,1-1.85-1.73c0-1.47,1.3-2.27,3.64-2.25v-.13a1.25,1.25,0,0,0-1.37-1.4,3.07,3.07,0,0,0-1.58.45l-.25-.72a3.73,3.73,0,0,1,2-.54c1.85,0,2.3,1.26,2.3,2.47v2.27a8.12,8.12,0,0,0,.1,1.45Zm-.16-3.09c-1.2,0-2.57.19-2.57,1.36a1,1,0,0,0,1,1.05,1.5,1.5,0,0,0,1.46-1,1.09,1.09,0,0,0,.07-.35Z" />
        <path class="cls-13"
            d="M228.78,737.49l1.33,3.57c.14.4.29.88.39,1.24h0c.11-.36.24-.83.39-1.26l1.2-3.55h1.16l-1.65,4.31c-.79,2.07-1.32,3.13-2.07,3.78a3,3,0,0,1-1.35.72l-.28-.93a2.62,2.62,0,0,0,1-.54,3.27,3.27,0,0,0,.93-1.22.8.8,0,0,0,.09-.26,1.07,1.07,0,0,0-.08-.29l-2.24-5.57Z" />
        <path class="cls-13"
            d="M236.92,739.12c0-.62,0-1.13,0-1.63h1l.06,1h0a2.22,2.22,0,0,1,2-1.14c.84,0,2.14.5,2.14,2.57v3.62H241v-3.49c0-1-.36-1.79-1.4-1.79a1.55,1.55,0,0,0-1.47,1.13,1.52,1.52,0,0,0-.08.51v3.64h-1.1Z" />
        <path class="cls-13"
            d="M249.33,740.46a3,3,0,0,1-3,3.21,2.87,2.87,0,0,1-2.9-3.11,3,3,0,0,1,3-3.21A2.86,2.86,0,0,1,249.33,740.46Zm-4.8.06c0,1.33.77,2.33,1.84,2.33s1.84-1,1.84-2.35c0-1-.51-2.33-1.81-2.33S244.53,739.37,244.53,740.52Z" />
        <path class="cls-13"
            d="M252.05,735.75v1.74h1.57v.83h-1.57v3.27c0,.75.21,1.17.82,1.17a2.92,2.92,0,0,0,.64-.07l.05.82a2.64,2.64,0,0,1-1,.15,1.51,1.51,0,0,1-1.18-.46,2.21,2.21,0,0,1-.43-1.58v-3.3H250v-.83H251V736Z" />
        <path class="cls-13"
            d="M256.08,735.79a.64.64,0,0,1-.7.67.66.66,0,0,1-.66-.67.67.67,0,0,1,.69-.69A.65.65,0,0,1,256.08,735.79Zm-1.22,7.75v-6H256v6Z" />
        <path class="cls-13"
            d="M257.9,743.54v-5.22h-.85v-.83h.85v-.29a2.8,2.8,0,0,1,.7-2.11,2.1,2.1,0,0,1,1.47-.57,2.52,2.52,0,0,1,.94.18l-.15.85a1.57,1.57,0,0,0-.7-.14c-.94,0-1.18.83-1.18,1.75v.33h1.47v.83H259v5.22Z" />
        <path class="cls-13"
            d="M261.83,737.49l1.33,3.57c.14.4.29.88.39,1.24h0c.11-.36.24-.83.39-1.26l1.2-3.55h1.16l-1.65,4.31c-.79,2.07-1.32,3.13-2.07,3.78a3,3,0,0,1-1.35.72l-.28-.93a2.62,2.62,0,0,0,1-.54,3.27,3.27,0,0,0,.93-1.22.8.8,0,0,0,.09-.26,1.07,1.07,0,0,0-.08-.29l-2.24-5.57Z" />
        <path class="cls-13"
            d="M270.37,737.49l1.33,3.57c.13.4.28.88.38,1.24h0c.11-.36.24-.83.39-1.26l1.19-3.55h1.17l-1.65,4.31c-.79,2.07-1.33,3.13-2.08,3.78a2.91,2.91,0,0,1-1.35.72l-.27-.93a2.7,2.7,0,0,0,1-.54,3.27,3.27,0,0,0,.93-1.22.73.73,0,0,0,.08-.26,1,1,0,0,0-.07-.29l-2.24-5.57Z" />
        <path class="cls-13"
            d="M281.22,740.46a3,3,0,0,1-3,3.21,2.87,2.87,0,0,1-2.9-3.11,3,3,0,0,1,3-3.21A2.87,2.87,0,0,1,281.22,740.46Zm-4.8.06c0,1.33.76,2.33,1.84,2.33s1.83-1,1.83-2.35c0-1-.51-2.33-1.81-2.33S276.42,739.37,276.42,740.52Z" />
        <path class="cls-13"
            d="M287.67,741.89c0,.62,0,1.17.05,1.65h-1l-.06-1h0a2.28,2.28,0,0,1-2,1.12c-1,0-2.09-.52-2.09-2.65v-3.53h1.1v3.35c0,1.15.35,1.92,1.35,1.92a1.58,1.58,0,0,0,1.45-1,1.64,1.64,0,0,0,.1-.56v-3.71h1.1Z" />
        <path class="cls-13"
            d="M38.24,747.75v1.74h1.57v.83H38.24v3.27c0,.75.21,1.17.82,1.17a2.92,2.92,0,0,0,.64-.07l0,.82a2.64,2.64,0,0,1-1,.15,1.51,1.51,0,0,1-1.18-.46,2.21,2.21,0,0,1-.43-1.58v-3.3h-.93v-.83h.93V748Z" />
        <path class="cls-13"
            d="M41.05,746.66h1.1v3.78h0a2,2,0,0,1,.79-.78,2.25,2.25,0,0,1,1.13-.31c.81,0,2.11.5,2.11,2.59v3.6H45.1v-3.48c0-1-.36-1.8-1.4-1.8a1.59,1.59,0,0,0-1.48,1.1,1.39,1.39,0,0,0-.07.53v3.65h-1.1Z" />
        <path class="cls-13"
            d="M48,751.37c0-.71,0-1.32-.05-1.88h1l0,1.18H49a1.8,1.8,0,0,1,1.67-1.32,1,1,0,0,1,.31,0v1a2,2,0,0,0-.37,0,1.54,1.54,0,0,0-1.48,1.41,3.67,3.67,0,0,0,0,.51v3.23H48Z" />
        <path class="cls-13"
            d="M57.42,752.46a3,3,0,0,1-3,3.21,2.87,2.87,0,0,1-2.9-3.11,3,3,0,0,1,3-3.21A2.86,2.86,0,0,1,57.42,752.46Zm-4.8.06c0,1.33.77,2.33,1.84,2.33s1.84-1,1.84-2.35c0-1-.51-2.33-1.81-2.33S52.62,751.37,52.62,752.52Z" />
        <path class="cls-13"
            d="M63.87,753.89c0,.62,0,1.17.05,1.65H63l-.06-1h0a2.27,2.27,0,0,1-2,1.12c-1,0-2.09-.52-2.09-2.65v-3.53h1.1v3.35c0,1.15.35,1.92,1.35,1.92a1.58,1.58,0,0,0,1.45-1,1.43,1.43,0,0,0,.1-.56v-3.71h1.1Z" />
        <path class="cls-13"
            d="M70.91,749.49c0,.43,0,.92,0,1.66v3.51a3.45,3.45,0,0,1-.86,2.76,3.22,3.22,0,0,1-2.2.73,3.91,3.91,0,0,1-2-.5l.27-.84a3.43,3.43,0,0,0,1.78.48c1.12,0,2-.59,2-2.12v-.67h0a2.17,2.17,0,0,1-1.92,1,2.71,2.71,0,0,1-2.58-3A2.9,2.9,0,0,1,68,749.35a2,2,0,0,1,1.88,1h0l0-.91Zm-1.14,2.38a1.6,1.6,0,0,0-1.6-1.66c-1,0-1.8.89-1.8,2.29,0,1.19.6,2.17,1.79,2.17a1.61,1.61,0,0,0,1.53-1.12,2,2,0,0,0,.08-.59Z" />
        <path class="cls-13"
            d="M72.69,746.66h1.1v3.78h0a2,2,0,0,1,.79-.78,2.21,2.21,0,0,1,1.12-.31c.82,0,2.12.5,2.12,2.59v3.6h-1.1v-3.48c0-1-.37-1.8-1.4-1.8a1.58,1.58,0,0,0-1.48,1.1,1.39,1.39,0,0,0-.07.53v3.65h-1.1Z" />
        <path class="cls-13"
            d="M83.6,747.75v1.74h1.57v.83H83.6v3.27c0,.75.21,1.17.82,1.17a2.92,2.92,0,0,0,.64-.07l0,.82a2.62,2.62,0,0,1-1,.15A1.51,1.51,0,0,1,83,755.2a2.26,2.26,0,0,1-.43-1.58v-3.3h-.93v-.83h.93V748Z" />
        <path class="cls-13"
            d="M86.41,746.66h1.1v3.78h0a2,2,0,0,1,.78-.78,2.28,2.28,0,0,1,1.13-.31c.81,0,2.11.5,2.11,2.59v3.6h-1.1v-3.48c0-1-.36-1.8-1.4-1.8a1.58,1.58,0,0,0-1.47,1.1,1.21,1.21,0,0,0-.08.53v3.65h-1.1Z" />
        <path class="cls-13"
            d="M94,752.71a1.94,1.94,0,0,0,2.08,2.1,4.06,4.06,0,0,0,1.67-.31l.19.79a5,5,0,0,1-2,.37,2.81,2.81,0,0,1-3-3c0-1.82,1.08-3.26,2.84-3.26a2.57,2.57,0,0,1,2.5,2.85,4.58,4.58,0,0,1,0,.51Zm3.23-.79a1.56,1.56,0,0,0-1.53-1.78A1.82,1.82,0,0,0,94,751.92Z" />
        <path class="cls-13"
            d="M108.36,755.3a5.54,5.54,0,0,1-2.16.36c-2.91,0-4.41-1.81-4.41-4.21a4.3,4.3,0,0,1,4.6-4.48,4.88,4.88,0,0,1,2.07.38l-.39,1.51a4.11,4.11,0,0,0-1.6-.31,2.77,2.77,0,0,0,0,5.54,4.71,4.71,0,0,0,1.58-.28Z" />
        <path class="cls-13"
            d="M117,751.24c0,2.76-1.68,4.43-4.14,4.43s-4-1.88-4-4.28S110.47,747,113,747,117,748.91,117,751.24Zm-6.09.11c0,1.65.78,2.81,2,2.81s2-1.22,2-2.86-.73-2.81-2-2.81S110.87,749.71,110.87,751.35Z" />
        <path class="cls-13"
            d="M120.11,755.54l-2.7-8.43h2.09l1,3.56c.29,1,.55,2,.75,3h0c.21-1,.48-2,.76-3l1.08-3.6h2l-2.84,8.43Z" />
        <path class="cls-13" d="M128,747.11v8.43h-1.92v-8.43Z" />
        <path class="cls-13"
            d="M129.64,747.22a17.35,17.35,0,0,1,2.57-.17,5.43,5.43,0,0,1,3.45.9,3.74,3.74,0,0,1,1.42,3.17,4.26,4.26,0,0,1-1.4,3.42,6.06,6.06,0,0,1-3.88,1.08,17,17,0,0,1-2.16-.12Zm1.91,6.88a3.24,3.24,0,0,0,.66,0,2.62,2.62,0,0,0,2.85-2.95,2.42,2.42,0,0,0-2.65-2.68,3.71,3.71,0,0,0-.86.08Z" />
        <path class="cls-13"
            d="M142.82,753.37l-.6,2.17h-2l2.57-8.43h2.5l2.61,8.43h-2.05l-.65-2.17ZM145,752l-.52-1.79c-.15-.5-.3-1.12-.43-1.62h0c-.13.5-.25,1.13-.39,1.62l-.5,1.79Z" />
        <path class="cls-13" d="M148.94,746.66h1.89v8.88h-1.89Z" />
        <path class="cls-13"
            d="M153.84,753.09c.06.78.83,1.16,1.72,1.16a5.51,5.51,0,0,0,1.69-.25l.25,1.29a6.06,6.06,0,0,1-2.21.37,2.94,2.94,0,0,1-3.27-3.11,3.06,3.06,0,0,1,3.09-3.26c2,0,2.72,1.53,2.72,3.05a4.14,4.14,0,0,1-.06.75Zm2.23-1.3a1.1,1.1,0,0,0-1.07-1.24,1.25,1.25,0,0,0-1.18,1.24Z" />
        <path class="cls-13"
            d="M159,751.44c0-.9,0-1.49-.05-2h1.64l.06,1.13h0a1.79,1.79,0,0,1,1.65-1.26,2.42,2.42,0,0,1,.4,0v1.79a2.37,2.37,0,0,0-.51-.05,1.22,1.22,0,0,0-1.3,1,2.86,2.86,0,0,0,0,.43v3.1H159Z" />
        <path class="cls-13"
            d="M166.1,747.67v1.75h1.36v1.4H166.1V753c0,.73.17,1.07.75,1.07a2.75,2.75,0,0,0,.56-.05v1.44a3.75,3.75,0,0,1-1.24.16,1.94,1.94,0,0,1-1.42-.53,2.51,2.51,0,0,1-.52-1.81v-2.5h-.82v-1.4h.82V748.1Z" />
        <path class="cls-13"
            d="M174.7,755.54l-.09-.77h0a2.25,2.25,0,0,1-1.85.9,1.72,1.72,0,0,1-1.85-1.73c0-1.47,1.3-2.27,3.64-2.25v-.13a1.25,1.25,0,0,0-1.38-1.4,3.06,3.06,0,0,0-1.57.45l-.25-.72a3.73,3.73,0,0,1,2-.54c1.85,0,2.3,1.26,2.3,2.47v2.27a8.12,8.12,0,0,0,.1,1.45Zm-.17-3.09c-1.2,0-2.56.19-2.56,1.36a1,1,0,0,0,1,1.05,1.5,1.5,0,0,0,1.46-1,1.07,1.07,0,0,0,.06-.35Z" />
        <path class="cls-13"
            d="M177.37,751.46c0-.77,0-1.4-.05-2h1l.05,1h0a2.4,2.4,0,0,1,2.15-1.17c1.47,0,2.57,1.24,2.57,3.07,0,2.18-1.33,3.25-2.75,3.25a2.14,2.14,0,0,1-1.87-.95h0V758h-1.09Zm1.09,1.61a2,2,0,0,0,0,.45,1.69,1.69,0,0,0,1.65,1.29c1.16,0,1.84-.95,1.84-2.34,0-1.21-.64-2.25-1.8-2.25a1.75,1.75,0,0,0-1.66,1.37,1.63,1.63,0,0,0-.08.45Z" />
        <path class="cls-13"
            d="M184.48,751.46c0-.77,0-1.4,0-2h1l.05,1h0a2.39,2.39,0,0,1,2.15-1.17c1.46,0,2.56,1.24,2.56,3.07,0,2.18-1.33,3.25-2.75,3.25a2.11,2.11,0,0,1-1.86-.95h0V758h-1.09Zm1.09,1.61a2.81,2.81,0,0,0,.05.45,1.69,1.69,0,0,0,1.65,1.29c1.16,0,1.84-.95,1.84-2.34,0-1.21-.64-2.25-1.8-2.25a1.75,1.75,0,0,0-1.66,1.37,1.63,1.63,0,0,0-.08.45Z" />
        <path class="cls-13" d="M191.05,754.89a.74.74,0,0,1,.75-.79.79.79,0,0,1,0,1.57A.73.73,0,0,1,191.05,754.89Z" />
    </g>
    <g class="cls-14">
        <line class="cls-15" x1="1221.7" y1="251.1" x2="621.49" y2="851.32" />
        <line class="cls-15" x1="1118.34" y1="249" x2="519.21" y2="848.13" />
        <line class="cls-15" x1="1014.97" y1="246.91" x2="416.93" y2="844.95" />
        <line class="cls-15" x1="911.61" y1="244.81" x2="314.65" y2="841.77" />
        <line class="cls-15" x1="808.25" y1="242.72" x2="212.37" y2="838.59" />
        <line class="cls-15" x1="704.88" y1="240.62" x2="110.09" y2="835.41" />
        <line class="cls-15" x1="601.52" y1="238.53" x2="7.82" y2="832.23" />
        <line class="cls-15" x1="498.15" y1="236.43" x2="-94.46" y2="829.05" />
        <line class="cls-15" x1="394.79" y1="234.34" x2="-196.74" y2="825.87" />
        <line class="cls-15" x1="291.42" y1="232.24" x2="-299.02" y2="822.69" />
        <line class="cls-15" x1="188.06" y1="230.15" x2="-401.3" y2="819.5" />
        <line class="cls-15" x1="84.69" y1="228.05" x2="-503.58" y2="816.32" />
    </g>
    <g id="QR">
        <polygon class="cls-4" points="85.5 252.5 86.02 711 531 711 531 252.36 85.5 252.5" />
        <!-- qr code -->
        <svg x="95" y="240" width="430" height="430">
        {{ qr_code|safe }}
        </svg>
        <!-- end qr code -->

        <!-- location details -->
        <style type="text/css">
            @import url('https://fonts.googleapis.com/css?family=Lato:400,700%7CNoto+Sans:400,700&amp;display=fallback');

            .big { 
                font-family: Noto Sans;
                font-size: 13px;
                font-weight: bold;
            }
            .regular { 
                font-family: Noto Sans;
                font-size: 12px;
                font-weight: normal;
            }
        </style>

        <text x="305" y="663" class="big" text-anchor="middle" fill="black">{{ name }}</text>
        <text x="305" y="680" class="regular" text-anchor="middle" fill="black">{{ address }}</text>
        <text x="305" y="695" class="regular" text-anchor="middle" fill="black">{{ address_details }}</text>
        <!-- end location details -->
    </g>
    <rect class="cls-28" y="178.56" width="612" height="73.73" />
    <g id="Header_text" data-name="Header text">
        <path class="cls-13"
            d="M38.91,110.91a16,16,0,0,0,6.93,1.72c2.87,0,4.39-1.19,4.39-3s-1.31-2.71-4.64-3.9C41,104.14,38,101.6,38,97.58c0-4.71,3.93-8.32,10.45-8.32a16.91,16.91,0,0,1,7.06,1.4l-1.4,5a13.14,13.14,0,0,0-5.78-1.31c-2.7,0-4,1.23-4,2.66,0,1.76,1.56,2.54,5.13,3.9,4.88,1.8,7.17,4.34,7.17,8.24,0,4.63-3.56,8.57-11.15,8.57a18.09,18.09,0,0,1-7.83-1.68Z" />
        <path class="cls-13"
            d="M76,116.85a15,15,0,0,1-5.58.91c-6.48,0-10.62-3.94-10.62-10.25,0-5.87,4-10.66,11.48-10.66a14.31,14.31,0,0,1,4.76.78l-1,4.63a8.46,8.46,0,0,0-3.48-.62,5.62,5.62,0,0,0,.12,11.24,9.61,9.61,0,0,0,3.57-.62Z" />
        <path class="cls-13"
            d="M91,117.35l-.37-2h-.12a7.21,7.21,0,0,1-5.74,2.46,6.15,6.15,0,0,1-6.48-6.15c0-5.21,4.67-7.71,11.77-7.67v-.29c0-1.06-.58-2.58-3.65-2.58a11.32,11.32,0,0,0-5.54,1.52l-1.14-4a16.53,16.53,0,0,1,7.79-1.76c6.68,0,8.81,3.93,8.81,8.65v7a30.5,30.5,0,0,0,.29,4.88Zm-.74-9.47c-3.28,0-5.82.73-5.82,3.15a2.24,2.24,0,0,0,2.46,2.38,3.4,3.4,0,0,0,3.24-2.3,4.47,4.47,0,0,0,.12-1.06Z" />
        <path class="cls-13"
            d="M101.23,103.69c0-2.5-.08-4.63-.16-6.39h5.41l.29,2.74h.12a7.34,7.34,0,0,1,6.19-3.19c4.1,0,7.17,2.7,7.17,8.61v11.89H114V106.24c0-2.59-.9-4.35-3.15-4.35a3.32,3.32,0,0,0-3.16,2.34,4.13,4.13,0,0,0-.25,1.55v11.57h-6.23Z" />
        <path class="cls-13"
            d="M140.51,91.56V97.3H145v4.59h-4.47v7.26c0,2.42.57,3.52,2.46,3.52a10.34,10.34,0,0,0,1.84-.16l0,4.71a12.09,12.09,0,0,1-4,.54,6.47,6.47,0,0,1-4.68-1.73c-1.15-1.18-1.72-3.11-1.72-5.94v-8.2h-2.67V97.3h2.67V93Z" />
        <path class="cls-13"
            d="M148.58,88.24h6.24V99.68h.08a7.23,7.23,0,0,1,2.46-2.05,6.89,6.89,0,0,1,3.24-.78c4,0,7,2.74,7,8.77v11.73h-6.23v-11c0-2.63-.91-4.43-3.24-4.43a3.33,3.33,0,0,0-3.12,2.17,4.09,4.09,0,0,0-.2,1.4v11.89h-6.24Z" />
        <path class="cls-13"
            d="M177.41,109.31c.2,2.58,2.74,3.81,5.66,3.81a17.43,17.43,0,0,0,5.53-.82l.82,4.23a19.79,19.79,0,0,1-7.26,1.23c-6.8,0-10.7-3.94-10.7-10.21,0-5.09,3.16-10.7,10.13-10.7,6.48,0,8.94,5,8.94,10a14.84,14.84,0,0,1-.21,2.46Zm7.34-4.26c0-1.52-.66-4.06-3.53-4.06-2.62,0-3.69,2.38-3.85,4.06Z" />
        <path class="cls-13"
            d="M217.59,116.85a15,15,0,0,1-5.58.91c-6.48,0-10.62-3.94-10.62-10.25,0-5.87,4-10.66,11.48-10.66a14.27,14.27,0,0,1,4.76.78l-1,4.63a8.42,8.42,0,0,0-3.48-.62,5.62,5.62,0,0,0,.12,11.24,9.57,9.57,0,0,0,3.57-.62Z" />
        <path class="cls-13"
            d="M240.38,107.1c0,7.34-5.2,10.7-10.57,10.7-5.87,0-10.38-3.86-10.38-10.33s4.27-10.62,10.7-10.62C236.28,96.85,240.38,101.07,240.38,107.1Zm-14.51.2c0,3.45,1.43,6,4.1,6,2.42,0,4-2.42,4-6,0-3-1.15-6-4-6C227,101.27,225.87,104.35,225.87,107.3Z" />
        <path class="cls-13"
            d="M263.79,88.24v23.12c0,2.26.09,4.63.17,6h-5.54l-.28-3h-.09a7,7,0,0,1-6.27,3.41c-4.76,0-8.57-4.06-8.57-10.29,0-6.77,4.18-10.66,9-10.66,2.46,0,4.39.86,5.29,2.25h.08V88.24Zm-6.23,17.54a10.36,10.36,0,0,0-.08-1.1,3.75,3.75,0,0,0-3.65-3.08c-2.83,0-4.3,2.54-4.3,5.7,0,3.4,1.68,5.54,4.26,5.54a3.65,3.65,0,0,0,3.61-3,5.4,5.4,0,0,0,.16-1.43Z" />
        <path class="cls-13"
            d="M273.59,109.31c.21,2.58,2.75,3.81,5.66,3.81a17.54,17.54,0,0,0,5.54-.82l.82,4.23a19.83,19.83,0,0,1-7.26,1.23c-6.81,0-10.7-3.94-10.7-10.21,0-5.09,3.15-10.7,10.12-10.7,6.48,0,8.94,5,8.94,10a15.11,15.11,0,0,1-.2,2.46Zm7.34-4.26c0-1.52-.65-4.06-3.52-4.06-2.63,0-3.69,2.38-3.86,4.06Z" />
        <path class="cls-13" d="M289.34,114a3.61,3.61,0,0,1,3.69-3.82,3.8,3.8,0,1,1-3.69,3.82Z" />
        <path class="cls-13" d="M45,127.71v10.62H55.27V127.71H61.5v27.64H55.27V143.78H45v11.57H38.71V127.71Z" />
        <path class="cls-13"
            d="M71.42,147.31c.21,2.58,2.75,3.81,5.66,3.81a17.49,17.49,0,0,0,5.54-.82l.82,4.23a19.79,19.79,0,0,1-7.26,1.23c-6.81,0-10.7-3.94-10.7-10.21,0-5.09,3.16-10.7,10.13-10.7,6.47,0,8.93,5,8.93,10a15.11,15.11,0,0,1-.2,2.46Zm7.34-4.26c0-1.52-.65-4.06-3.52-4.06-2.63,0-3.69,2.38-3.86,4.06Z" />
        <path class="cls-13" d="M88.27,126.24h6.24v29.11H88.27Z" />
        <path class="cls-13"
            d="M99.55,142c0-2.62-.08-4.88-.16-6.72h5.41l.28,2.79h.09a7.66,7.66,0,0,1,6.68-3.24c4.39,0,8.32,3.81,8.32,10.21,0,7.29-4.63,10.74-9.1,10.74a6.25,6.25,0,0,1-5.21-2.3h-.08v10H99.55Zm6.23,4.72a6.36,6.36,0,0,0,.12,1.31,3.78,3.78,0,0,0,3.65,2.95c2.71,0,4.31-2.25,4.31-5.66,0-3.2-1.44-5.61-4.22-5.61a3.92,3.92,0,0,0-3.74,3.15,5,5,0,0,0-.12,1.11Z" />
        <path class="cls-13" d="M132.35,126.24h6.23v29.11h-6.23Z" />
        <path class="cls-13"
            d="M150.06,129.72a3.13,3.13,0,0,1-3.36,3.12,3.14,3.14,0,1,1,0-6.28A3.13,3.13,0,0,1,150.06,129.72Zm-6.44,25.63v-20h6.24v20Z" />
        <path class="cls-13"
            d="M154.86,141.69c0-2.5-.08-4.63-.17-6.39h5.25l.29,2.7h.12a7,7,0,0,1,6.07-3.15,5.68,5.68,0,0,1,5.49,3.4H172a8.78,8.78,0,0,1,2.58-2.42,7.21,7.21,0,0,1,3.81-1c3.86,0,6.77,2.7,6.77,8.69v11.81h-6.07V144.44c0-2.91-.94-4.59-3-4.59a3,3,0,0,0-2.87,2.17,5.05,5.05,0,0,0-.25,1.6v11.73H167V144.11c0-2.54-.9-4.26-2.87-4.26a3.17,3.17,0,0,0-2.91,2.25,4.27,4.27,0,0,0-.24,1.56v11.69h-6.07Z" />
        <path class="cls-13"
            d="M196.55,129.72a3.13,3.13,0,0,1-3.36,3.12,3.14,3.14,0,1,1,0-6.28A3.13,3.13,0,0,1,196.55,129.72Zm-6.43,25.63v-20h6.23v20Z" />
        <path class="cls-13"
            d="M208.32,129.56v5.74h4.47v4.59h-4.47v7.26c0,2.42.57,3.52,2.46,3.52a10.34,10.34,0,0,0,1.84-.16l0,4.71a12.16,12.16,0,0,1-4.06.54,6.49,6.49,0,0,1-4.68-1.73c-1.14-1.18-1.72-3.11-1.72-5.94v-8.2h-2.66V135.3h2.66V131Z" />
        <path class="cls-13"
            d="M231.65,129.56v5.74h4.47v4.59h-4.47v7.26c0,2.42.57,3.52,2.46,3.52a10.34,10.34,0,0,0,1.84-.16l0,4.71a12.09,12.09,0,0,1-4.05.54,6.49,6.49,0,0,1-4.68-1.73c-1.15-1.18-1.72-3.11-1.72-5.94v-8.2h-2.67V135.3h2.67V131Z" />
        <path class="cls-13"
            d="M239.73,126.24H246v11.44H246a7.42,7.42,0,0,1,2.46-2.05,6.89,6.89,0,0,1,3.24-.78c4,0,7,2.74,7,8.77v11.73h-6.23v-11c0-2.63-.9-4.43-3.24-4.43a3.33,3.33,0,0,0-3.12,2.17,4.09,4.09,0,0,0-.2,1.4v11.89h-6.23Z" />
        <path class="cls-13"
            d="M268.55,147.31c.2,2.58,2.74,3.81,5.66,3.81a17.43,17.43,0,0,0,5.53-.82l.82,4.23a19.79,19.79,0,0,1-7.26,1.23c-6.8,0-10.7-3.94-10.7-10.21,0-5.09,3.16-10.7,10.13-10.7,6.48,0,8.94,5,8.94,10a13.81,13.81,0,0,1-.21,2.46Zm7.34-4.26c0-1.52-.66-4.06-3.53-4.06-2.62,0-3.69,2.38-3.85,4.06Z" />
        <path class="cls-13"
            d="M293.64,149.89a12.17,12.17,0,0,0,5.37,1.52c1.89,0,2.67-.66,2.67-1.68s-.62-1.52-3-2.3c-4.14-1.39-5.74-3.65-5.7-6,0-3.73,3.2-6.56,8.16-6.56a13.54,13.54,0,0,1,5.66,1.14l-1.11,4.31a9.84,9.84,0,0,0-4.34-1.15c-1.52,0-2.38.62-2.38,1.64s.78,1.44,3.24,2.3c3.81,1.31,5.41,3.24,5.45,6.19,0,3.73-2.95,6.48-8.69,6.48a14.22,14.22,0,0,1-6.48-1.4Z" />
        <path class="cls-13"
            d="M311.47,142c0-2.62-.08-4.88-.16-6.72h5.41l.29,2.79h.08a7.68,7.68,0,0,1,6.68-3.24c4.39,0,8.33,3.81,8.33,10.21,0,7.29-4.64,10.74-9.1,10.74a6.24,6.24,0,0,1-5.21-2.3h-.08v10h-6.24Zm6.24,4.72a6.36,6.36,0,0,0,.12,1.31,3.77,3.77,0,0,0,3.65,2.95c2.7,0,4.3-2.25,4.3-5.66,0-3.2-1.43-5.61-4.22-5.61a3.91,3.91,0,0,0-3.73,3.15,5,5,0,0,0-.12,1.11Z" />
        <path class="cls-13"
            d="M336,141.9c0-3-.08-4.88-.16-6.6h5.37l.2,3.69h.17a5.88,5.88,0,0,1,5.41-4.14,6.58,6.58,0,0,1,1.31.08v5.86a9.1,9.1,0,0,0-1.68-.16,4,4,0,0,0-4.26,3.15,7.57,7.57,0,0,0-.13,1.4v10.17H336Z" />
        <path class="cls-13"
            d="M356,147.31c.21,2.58,2.75,3.81,5.66,3.81a17.43,17.43,0,0,0,5.53-.82l.82,4.23a19.77,19.77,0,0,1-7.25,1.23c-6.81,0-10.71-3.94-10.71-10.21,0-5.09,3.16-10.7,10.13-10.7,6.48,0,8.94,5,8.94,10a15.11,15.11,0,0,1-.2,2.46Zm7.34-4.26c0-1.52-.66-4.06-3.53-4.06-2.62,0-3.69,2.38-3.85,4.06Z" />
        <path class="cls-13"
            d="M384.29,155.35l-.37-2h-.12a7.21,7.21,0,0,1-5.74,2.46,6.15,6.15,0,0,1-6.48-6.15c0-5.21,4.67-7.71,11.77-7.67v-.29c0-1.06-.58-2.58-3.65-2.58a11.29,11.29,0,0,0-5.54,1.52l-1.15-4a16.59,16.59,0,0,1,7.79-1.76c6.69,0,8.82,3.93,8.82,8.65v7a30.5,30.5,0,0,0,.29,4.88Zm-.74-9.47c-3.28,0-5.82.73-5.82,3.15a2.24,2.24,0,0,0,2.46,2.38,3.4,3.4,0,0,0,3.24-2.3,4.47,4.47,0,0,0,.12-1.06Z" />
        <path class="cls-13"
            d="M414,126.24v23.12c0,2.26.09,4.63.17,6H408.6l-.28-3h-.09A7,7,0,0,1,402,155.8c-4.75,0-8.57-4.06-8.57-10.29,0-6.77,4.18-10.66,9-10.66,2.46,0,4.39.86,5.29,2.25h.08V126.24Zm-6.23,17.54a10.36,10.36,0,0,0-.08-1.1A3.75,3.75,0,0,0,404,139.6c-2.83,0-4.3,2.54-4.3,5.7,0,3.4,1.68,5.54,4.26,5.54a3.65,3.65,0,0,0,3.61-3,5.4,5.4,0,0,0,.16-1.43Z" />
        <path class="cls-13" d="M418.2,152a3.61,3.61,0,0,1,3.69-3.82A3.8,3.8,0,1,1,418.2,152Z" />
        <path class="cls-13"
            d="M108.72,200.12a18.48,18.48,0,0,1,3.18-.25,5.29,5.29,0,0,1,3.59,1.06,3.46,3.46,0,0,1,1.12,2.68,3.77,3.77,0,0,1-1,2.74,5.3,5.3,0,0,1-3.91,1.4,5.42,5.42,0,0,1-1.33-.11v5.13h-1.66Zm1.66,6.17a5.26,5.26,0,0,0,1.36.13c2,0,3.21-1,3.21-2.73s-1.19-2.51-3-2.51a7.26,7.26,0,0,0-1.55.13Z" />
        <path class="cls-13"
            d="M126.64,208.1a4.49,4.49,0,0,1-4.58,4.88,4.37,4.37,0,0,1-4.41-4.73c0-3.08,2-4.88,4.56-4.88S126.64,205.29,126.64,208.1Zm-7.3.09c0,2,1.16,3.54,2.8,3.54s2.79-1.51,2.79-3.58c0-1.55-.78-3.53-2.76-3.53S119.34,206.44,119.34,208.19Z" />
        <path class="cls-13"
            d="M130.61,201a1,1,0,0,1-1.06,1,1,1,0,0,1-1-1,1,1,0,0,1,1.05-1A1,1,0,0,1,130.61,201Zm-1.86,11.78v-9.19h1.67v9.19Z" />
        <path class="cls-13"
            d="M133.2,206.06c0-.95,0-1.72-.08-2.48h1.48l.1,1.52h0a3.38,3.38,0,0,1,3-1.73c1.28,0,3.25.76,3.25,3.91v5.49h-1.67v-5.3c0-1.48-.55-2.72-2.13-2.72a2.38,2.38,0,0,0-2.24,1.71,2.62,2.62,0,0,0-.11.78v5.53H133.2Z" />
        <path class="cls-13"
            d="M145.68,200.93v2.65h2.39v1.27h-2.39v5c0,1.14.32,1.78,1.25,1.78a3.62,3.62,0,0,0,1-.11l.08,1.25a4,4,0,0,1-1.49.23,2.34,2.34,0,0,1-1.8-.7,3.4,3.4,0,0,1-.65-2.4v-5h-1.42v-1.27H144v-2.21Z" />
        <path class="cls-13"
            d="M154.59,203.58l2,5.43c.21.61.44,1.33.59,1.88h0c.17-.55.36-1.25.59-1.92l1.82-5.39h1.77l-2.51,6.55c-1.2,3.15-2,4.77-3.15,5.76A4.63,4.63,0,0,1,153.7,217l-.42-1.41a4.41,4.41,0,0,0,1.46-.81,5.1,5.1,0,0,0,1.41-1.87,1.29,1.29,0,0,0,.13-.4,1.64,1.64,0,0,0-.11-.43l-3.4-8.47Z" />
        <path class="cls-13"
            d="M171.08,208.1A4.49,4.49,0,0,1,166.5,213a4.37,4.37,0,0,1-4.41-4.73c0-3.08,2-4.88,4.56-4.88S171.08,205.29,171.08,208.1Zm-7.3.09c0,2,1.16,3.54,2.8,3.54s2.79-1.51,2.79-3.58c0-1.55-.78-3.53-2.75-3.53S163.78,206.44,163.78,208.19Z" />
        <path class="cls-13"
            d="M180.88,210.26c0,1,0,1.79.08,2.51h-1.48l-.1-1.5h0a3.44,3.44,0,0,1-3,1.71c-1.45,0-3.18-.8-3.18-4v-5.37h1.67v5.09c0,1.74.54,2.92,2.06,2.92a2.41,2.41,0,0,0,2.2-1.52,2.52,2.52,0,0,0,.15-.85v-5.64h1.67Z" />
        <path class="cls-13"
            d="M183.66,206.44c0-1.08,0-2-.08-2.86h1.47l0,1.8h.08a2.76,2.76,0,0,1,2.54-2,2.28,2.28,0,0,1,.48,0V205a2.37,2.37,0,0,0-.57-.06,2.35,2.35,0,0,0-2.24,2.15,4.46,4.46,0,0,0-.08.78v4.9h-1.65Z" />
        <path class="cls-13"
            d="M193.9,206.58c0-1.18,0-2.13-.08-3h1.5l.08,1.57h0a3.61,3.61,0,0,1,3.27-1.78c2.22,0,3.89,1.88,3.89,4.67,0,3.31-2,4.94-4.18,4.94a3.23,3.23,0,0,1-2.83-1.44h0v5H193.9Zm1.65,2.45a3.62,3.62,0,0,0,.08.68,2.58,2.58,0,0,0,2.51,2c1.76,0,2.79-1.45,2.79-3.55,0-1.85-1-3.42-2.74-3.42a2.65,2.65,0,0,0-2.52,2.07,2.55,2.55,0,0,0-.12.68Z" />
        <path class="cls-13"
            d="M204.71,199.28h1.67V205h0a3.1,3.1,0,0,1,1.2-1.18,3.47,3.47,0,0,1,1.71-.47c1.23,0,3.21.76,3.21,3.93v5.47h-1.67v-5.28c0-1.48-.56-2.74-2.13-2.74a2.39,2.39,0,0,0-2.24,1.67,2,2,0,0,0-.12.8v5.55h-1.67Z" />
        <path class="cls-13"
            d="M223.58,208.1A4.49,4.49,0,0,1,219,213a4.37,4.37,0,0,1-4.41-4.73c0-3.08,2-4.88,4.56-4.88S223.58,205.29,223.58,208.1Zm-7.3.09c0,2,1.16,3.54,2.79,3.54s2.8-1.51,2.8-3.58c0-1.55-.78-3.53-2.76-3.53S216.28,206.44,216.28,208.19Z" />
        <path class="cls-13"
            d="M225.69,206.06c0-.95,0-1.72-.08-2.48h1.48l.1,1.52h0a3.38,3.38,0,0,1,3-1.73c1.28,0,3.25.76,3.25,3.91v5.49h-1.67v-5.3c0-1.48-.55-2.72-2.13-2.72a2.38,2.38,0,0,0-2.24,1.71,2.62,2.62,0,0,0-.11.78v5.53h-1.67Z" />
        <path class="cls-13"
            d="M237.16,208.48a2.94,2.94,0,0,0,3.15,3.19,6,6,0,0,0,2.55-.48l.29,1.2a7.4,7.4,0,0,1-3.06.57,4.27,4.27,0,0,1-4.52-4.64c0-2.77,1.63-4.95,4.31-4.95,3,0,3.8,2.64,3.8,4.33a6,6,0,0,1-.06.78Zm4.9-1.2c0-1.06-.43-2.72-2.31-2.72a2.77,2.77,0,0,0-2.57,2.72Z" />
        <path class="cls-13"
            d="M254.87,212.77l-.13-1.16h-.06a3.42,3.42,0,0,1-2.81,1.37,2.62,2.62,0,0,1-2.81-2.64c0-2.22,2-3.44,5.52-3.42v-.19a1.9,1.9,0,0,0-2.09-2.13,4.58,4.58,0,0,0-2.39.69l-.38-1.11a5.74,5.74,0,0,1,3-.81c2.81,0,3.5,1.92,3.5,3.76v3.44a12.4,12.4,0,0,0,.15,2.2Zm-.25-4.69c-1.82,0-3.89.28-3.89,2.07a1.47,1.47,0,0,0,1.57,1.59,2.3,2.3,0,0,0,2.23-1.53,2.1,2.1,0,0,0,.09-.54Z" />
        <path class="cls-13"
            d="M260.87,200.93v2.65h2.4v1.27h-2.4v5c0,1.14.33,1.78,1.26,1.78a3.68,3.68,0,0,0,1-.11l.07,1.25a3.9,3.9,0,0,1-1.48.23,2.31,2.31,0,0,1-1.8-.7,3.4,3.4,0,0,1-.65-2.4v-5h-1.43v-1.27h1.43v-2.21Z" />
        <path class="cls-13"
            d="M271.19,200.93v2.65h2.39v1.27h-2.39v5c0,1.14.32,1.78,1.25,1.78a3.62,3.62,0,0,0,1-.11l.08,1.25A3.94,3.94,0,0,1,272,213a2.35,2.35,0,0,1-1.81-.7,3.45,3.45,0,0,1-.64-2.4v-5h-1.43v-1.27h1.43v-2.21Z" />
        <path class="cls-13"
            d="M275.46,199.28h1.68V205h0a3.16,3.16,0,0,1,1.2-1.18,3.5,3.5,0,0,1,1.71-.47c1.24,0,3.21.76,3.21,3.93v5.47h-1.67v-5.28c0-1.48-.55-2.74-2.13-2.74a2.4,2.4,0,0,0-2.24,1.67,2.15,2.15,0,0,0-.11.8v5.55h-1.68Z" />
        <path class="cls-13"
            d="M286.94,208.48a2.94,2.94,0,0,0,3.15,3.19,6,6,0,0,0,2.55-.48l.28,1.2a7.31,7.31,0,0,1-3.05.57,4.28,4.28,0,0,1-4.53-4.64c0-2.77,1.64-4.95,4.32-4.95,3,0,3.8,2.64,3.8,4.33a6,6,0,0,1-.06.78Zm4.9-1.2c0-1.06-.43-2.72-2.32-2.72a2.77,2.77,0,0,0-2.56,2.72Z" />
        <path class="cls-13"
            d="M310.18,214.65c-1.73-.46-3.42-1-4.91-1.48a2.29,2.29,0,0,0-.77-.19c-3-.11-5.65-2.36-5.65-6.48s2.51-6.74,6-6.74,5.74,2.69,5.74,6.47c0,3.29-1.52,5.4-3.65,6.14v.08c1.27.32,2.66.62,3.74.81Zm-1.37-8.34c0-2.56-1.33-5.2-4.05-5.2s-4.16,2.58-4.14,5.35,1.48,5.17,4.07,5.17S308.81,209.24,308.81,206.31Z" />
        <path class="cls-13"
            d="M312.7,200.14a17.39,17.39,0,0,1,3.18-.27,5.2,5.2,0,0,1,3.7,1,3.17,3.17,0,0,1,1,2.43,3.36,3.36,0,0,1-2.41,3.26v.06a3.22,3.22,0,0,1,1.88,2.59,20.39,20.39,0,0,0,1,3.51h-1.71a17.34,17.34,0,0,1-.85-3.06c-.38-1.77-1.06-2.43-2.56-2.49h-1.56v5.55H312.7Zm1.66,5.83h1.69c1.76,0,2.89-1,2.89-2.43,0-1.66-1.2-2.38-2.95-2.4a6.39,6.39,0,0,0-1.63.16Z" />
        <path class="cls-13"
            d="M333.45,212.43a6.16,6.16,0,0,1-2.64.53,4.37,4.37,0,0,1-4.58-4.69,4.67,4.67,0,0,1,4.94-4.88,5.59,5.59,0,0,1,2.32.47l-.38,1.29a3.88,3.88,0,0,0-1.94-.43,3.46,3.46,0,0,0-.06,6.91,4.79,4.79,0,0,0,2.06-.46Z" />
        <path class="cls-13"
            d="M343.62,208.1A4.49,4.49,0,0,1,339,213a4.37,4.37,0,0,1-4.41-4.73c0-3.08,2-4.88,4.56-4.88S343.62,205.29,343.62,208.1Zm-7.3.09c0,2,1.16,3.54,2.79,3.54s2.8-1.51,2.8-3.58c0-1.55-.78-3.53-2.76-3.53S336.32,206.44,336.32,208.19Z" />
        <path class="cls-13"
            d="M353.67,199.28V210.4c0,.81,0,1.74.07,2.37h-1.5l-.07-1.6h0A3.4,3.4,0,0,1,349,213c-2.22,0-3.93-1.88-3.93-4.67,0-3.06,1.88-4.94,4.12-4.94a3.08,3.08,0,0,1,2.78,1.4h0v-5.49Zm-1.67,8a2.87,2.87,0,0,0-.08-.71,2.46,2.46,0,0,0-2.41-1.93c-1.73,0-2.76,1.52-2.76,3.55,0,1.86.91,3.4,2.72,3.4a2.51,2.51,0,0,0,2.45-2,2.82,2.82,0,0,0,.08-.73Z" />
        <path class="cls-13"
            d="M357.37,208.48a3,3,0,0,0,3.16,3.19,6,6,0,0,0,2.54-.48l.29,1.2a7.4,7.4,0,0,1-3.06.57,4.27,4.27,0,0,1-4.52-4.64c0-2.77,1.63-4.95,4.31-4.95,3,0,3.8,2.64,3.8,4.33a6,6,0,0,1-.06.78Zm4.9-1.2c0-1.06-.43-2.72-2.31-2.72a2.78,2.78,0,0,0-2.57,2.72Z" />
        <path class="cls-13"
            d="M375.08,212.77l-.13-1.16h-.06a3.42,3.42,0,0,1-2.81,1.37,2.62,2.62,0,0,1-2.81-2.64c0-2.22,2-3.44,5.52-3.42v-.19a1.89,1.89,0,0,0-2.08-2.13,4.59,4.59,0,0,0-2.4.69l-.38-1.11a5.74,5.74,0,0,1,3-.81c2.81,0,3.5,1.92,3.5,3.76v3.44a13.42,13.42,0,0,0,.15,2.2Zm-.25-4.69c-1.82,0-3.89.28-3.89,2.07a1.47,1.47,0,0,0,1.57,1.59,2.3,2.3,0,0,0,2.23-1.53,2.1,2.1,0,0,0,.09-.54Z" />
        <path class="cls-13"
            d="M379.15,206.06c0-.95,0-1.72-.08-2.48h1.48l.1,1.52h0a3.36,3.36,0,0,1,3-1.73c1.28,0,3.25.76,3.25,3.91v5.49H385.3v-5.3c0-1.48-.55-2.72-2.13-2.72a2.38,2.38,0,0,0-2.24,1.71,2.62,2.62,0,0,0-.11.78v5.53h-1.67Z" />
        <path class="cls-13"
            d="M397.63,199.28V210.4c0,.81,0,1.74.08,2.37h-1.5l-.08-1.6h0A3.39,3.39,0,0,1,393,213c-2.22,0-3.93-1.88-3.93-4.67,0-3.06,1.88-4.94,4.12-4.94a3.08,3.08,0,0,1,2.77,1.4h0v-5.49Zm-1.67,8a2.87,2.87,0,0,0-.08-.71,2.44,2.44,0,0,0-2.41-1.93c-1.73,0-2.75,1.52-2.75,3.55,0,1.86.91,3.4,2.71,3.4a2.51,2.51,0,0,0,2.45-2,2.82,2.82,0,0,0,.08-.73Z" />
        <path class="cls-13"
            d="M111.52,227.48l-.92,3.29h-3l3.92-12.8h3.8l4,12.8h-3.12l-1-3.29Zm3.24-2.16L114,222.6c-.23-.76-.46-1.71-.65-2.47h0c-.19.76-.38,1.73-.59,2.47l-.76,2.72Z" />
        <path class="cls-13"
            d="M129.66,217.28V228c0,1,0,2.14.08,2.77h-2.57L127,229.4h0a3.24,3.24,0,0,1-2.91,1.58c-2.2,0-4-1.88-4-4.77,0-3.13,1.94-4.94,4.16-4.94a2.81,2.81,0,0,1,2.45,1h0v-5Zm-2.89,8.13a4.38,4.38,0,0,0,0-.51,1.72,1.72,0,0,0-1.69-1.42c-1.31,0-2,1.17-2,2.64s.78,2.56,2,2.56a1.7,1.7,0,0,0,1.68-1.39,2.73,2.73,0,0,0,.07-.66Z" />
        <path class="cls-13"
            d="M141,217.28V228c0,1,0,2.14.08,2.77H138.5l-.14-1.37h0a3.22,3.22,0,0,1-2.9,1.58c-2.21,0-4-1.88-4-4.77,0-3.13,1.93-4.94,4.16-4.94a2.82,2.82,0,0,1,2.45,1h0v-5Zm-2.88,8.13a4.38,4.38,0,0,0,0-.51,1.73,1.73,0,0,0-1.69-1.42c-1.31,0-2,1.17-2,2.64s.78,2.56,2,2.56a1.69,1.69,0,0,0,1.67-1.39,2.3,2.3,0,0,0,.08-.66Z" />
        <path class="cls-13"
            d="M152.42,230.77l-.17-.93h-.06a3.33,3.33,0,0,1-2.66,1.14,2.85,2.85,0,0,1-3-2.85c0-2.41,2.17-3.57,5.46-3.55v-.14c0-.49-.27-1.19-1.7-1.19a5.21,5.21,0,0,0-2.56.7l-.53-1.86a7.66,7.66,0,0,1,3.61-.82c3.09,0,4.08,1.83,4.08,4v3.23a15.08,15.08,0,0,0,.13,2.26Zm-.34-4.39c-1.52,0-2.7.34-2.7,1.46a1,1,0,0,0,1.14,1.11,1.58,1.58,0,0,0,1.5-1.07,1.93,1.93,0,0,0,.06-.49Z" />
        <path class="cls-13"
            d="M163.16,221.48l1.25,4.31a20.37,20.37,0,0,1,.53,2.26H165c.15-.76.3-1.46.51-2.26l1.2-4.31h3l-3.46,9.29H163.4L160,221.48Z" />
        <path class="cls-13"
            d="M174.06,218.9a1.44,1.44,0,0,1-1.55,1.44,1.46,1.46,0,1,1,0-2.91A1.45,1.45,0,0,1,174.06,218.9Zm-3,11.87v-9.29H174v9.29Z" />
        <path class="cls-13"
            d="M176.27,228.24a5.53,5.53,0,0,0,2.49.71c.87,0,1.23-.31,1.23-.78s-.28-.71-1.37-1.07c-1.92-.64-2.66-1.69-2.64-2.79,0-1.73,1.48-3,3.78-3a6.28,6.28,0,0,1,2.62.53l-.51,2a4.52,4.52,0,0,0-2-.53c-.7,0-1.1.28-1.1.76s.36.66,1.5,1.06c1.76.61,2.5,1.5,2.52,2.87,0,1.73-1.36,3-4,3a6.62,6.62,0,0,1-3-.65Z" />
        <path class="cls-13"
            d="M187.52,218.9a1.45,1.45,0,0,1-1.56,1.44,1.46,1.46,0,1,1,0-2.91A1.45,1.45,0,0,1,187.52,218.9Zm-3,11.87v-9.29h2.89v9.29Z" />
        <path class="cls-13"
            d="M193,218.82v2.66H195v2.13H193V227c0,1.12.26,1.63,1.14,1.63a4.58,4.58,0,0,0,.85-.07l0,2.18a5.43,5.43,0,0,1-1.88.25,3,3,0,0,1-2.16-.8,3.8,3.8,0,0,1-.8-2.75v-3.8H188.9v-2.13h1.24v-2Z" />
        <path class="cls-13"
            d="M208.64,228.26c0,1,0,1.79.08,2.51h-1.48l-.1-1.5h0a3.44,3.44,0,0,1-3,1.71c-1.44,0-3.17-.8-3.17-4v-5.37h1.67v5.09c0,1.74.54,2.92,2.05,2.92a2.42,2.42,0,0,0,2.21-1.52,2.52,2.52,0,0,0,.15-.85v-5.64h1.67Z" />
        <path class="cls-13"
            d="M211.19,229.06a4.4,4.4,0,0,0,2.2.67c1.22,0,1.79-.61,1.79-1.37s-.48-1.24-1.71-1.69c-1.65-.59-2.43-1.5-2.43-2.61,0-1.48,1.19-2.69,3.17-2.69a4.52,4.52,0,0,1,2.26.57l-.42,1.21a3.54,3.54,0,0,0-1.88-.53c-1,0-1.54.57-1.54,1.25s.55,1.11,1.75,1.56c1.6.61,2.41,1.41,2.41,2.78,0,1.61-1.25,2.75-3.44,2.75a5.26,5.26,0,0,1-2.58-.63Z" />
        <path class="cls-13"
            d="M220.8,219a1,1,0,0,1-1.06,1,1,1,0,0,1-1-1,1,1,0,0,1,1.05-1A1,1,0,0,1,220.8,219Zm-1.86,11.78v-9.19h1.67v9.19Z" />
        <path class="cls-13"
            d="M223.39,224.06c0-.95,0-1.72-.08-2.48h1.48l.1,1.52h0a3.36,3.36,0,0,1,3-1.73c1.27,0,3.24.76,3.24,3.91v5.49h-1.67v-5.3c0-1.48-.55-2.72-2.13-2.72a2.38,2.38,0,0,0-2.24,1.71,2.62,2.62,0,0,0-.11.78v5.53h-1.67Z" />
        <path class="cls-13"
            d="M241.85,221.58c0,.66-.07,1.4-.07,2.52v5.34c0,2.11-.42,3.4-1.31,4.2a4.93,4.93,0,0,1-3.35,1.1,6,6,0,0,1-3.06-.76l.42-1.27a5.2,5.2,0,0,0,2.7.72c1.71,0,3-.89,3-3.21v-1h0a3.29,3.29,0,0,1-2.93,1.54c-2.28,0-3.91-1.94-3.91-4.48,0-3.12,2-4.88,4.14-4.88a3.07,3.07,0,0,1,2.87,1.59h0l.08-1.38Zm-1.73,3.62a2.3,2.3,0,0,0-.09-.76,2.41,2.41,0,0,0-2.34-1.76c-1.59,0-2.73,1.35-2.73,3.47,0,1.81.91,3.31,2.71,3.31a2.45,2.45,0,0,0,2.32-1.71,2.78,2.78,0,0,0,.13-.89Z" />
        <path class="cls-13"
            d="M250.59,218.93v2.65H253v1.27h-2.4v5c0,1.14.33,1.78,1.26,1.78a3.62,3.62,0,0,0,1-.11l.07,1.25a3.9,3.9,0,0,1-1.48.23,2.32,2.32,0,0,1-1.8-.7,3.4,3.4,0,0,1-.65-2.4v-5h-1.42v-1.27H249v-2.21Z" />
        <path class="cls-13"
            d="M254.87,217.28h1.67V223h0a3,3,0,0,1,1.2-1.18,3.47,3.47,0,0,1,1.71-.47c1.23,0,3.21.76,3.21,3.93v5.47H261v-5.28c0-1.48-.55-2.74-2.12-2.74a2.41,2.41,0,0,0-2.25,1.67,2.15,2.15,0,0,0-.11.8v5.55h-1.67Z" />
        <path class="cls-13"
            d="M266.35,226.48a2.94,2.94,0,0,0,3.15,3.19,5.91,5.91,0,0,0,2.54-.48l.29,1.2a7.4,7.4,0,0,1-3.06.57,4.27,4.27,0,0,1-4.52-4.64c0-2.77,1.63-4.95,4.31-4.95,3,0,3.8,2.64,3.8,4.33a6,6,0,0,1-.06.78Zm4.9-1.2a2.39,2.39,0,0,0-2.32-2.72,2.78,2.78,0,0,0-2.57,2.72Z" />
        <path class="cls-13"
            d="M288.23,230.41A8.35,8.35,0,0,1,285,231c-4.43,0-6.71-2.75-6.71-6.4,0-4.37,3.11-6.8,7-6.8a7.46,7.46,0,0,1,3.15.57l-.59,2.3a6.13,6.13,0,0,0-2.43-.48c-2.3,0-4.08,1.39-4.08,4.24a3.83,3.83,0,0,0,4.1,4.18,7.14,7.14,0,0,0,2.41-.42Z" />
        <path class="cls-13"
            d="M301.3,224.23c0,4.2-2.54,6.75-6.28,6.75s-6-2.87-6-6.52c0-3.83,2.45-6.7,6.23-6.7C299.16,217.76,301.3,220.7,301.3,224.23Zm-9.25.18c0,2.5,1.18,4.27,3.12,4.27s3.07-1.86,3.07-4.35c0-2.3-1.1-4.27-3.09-4.27S292.05,221.92,292.05,224.41Z" />
        <path class="cls-13"
            d="M306.11,230.77,302,218h3.17l1.56,5.41c.43,1.52.83,3,1.14,4.58h.05c.33-1.54.73-3.06,1.16-4.52l1.64-5.47h3.07l-4.31,12.8Z" />
        <path class="cls-13" d="M318.08,218v12.8h-2.91V218Z" />
        <path class="cls-13"
            d="M320.59,218.14a25.87,25.87,0,0,1,3.91-.27,8.28,8.28,0,0,1,5.25,1.37,5.65,5.65,0,0,1,2.16,4.82,6.48,6.48,0,0,1-2.13,5.19,9.19,9.19,0,0,1-5.9,1.65,24.26,24.26,0,0,1-3.29-.19Zm2.91,10.45a5.94,5.94,0,0,0,1,0c2.62,0,4.33-1.42,4.33-4.48a3.67,3.67,0,0,0-4-4.07,5.64,5.64,0,0,0-1.31.12Z" />
        <path class="cls-13"
            d="M340.63,227.48l-.91,3.29h-3l3.91-12.8h3.8l4,12.8h-3.11l-1-3.29Zm3.25-2.16-.8-2.72c-.22-.76-.45-1.71-.64-2.47h0c-.19.76-.38,1.73-.59,2.47l-.76,2.72Z" />
        <path class="cls-13" d="M349.92,217.28h2.89v13.49h-2.89Z" />
        <path class="cls-13"
            d="M357.37,227.05c.1,1.19,1.28,1.76,2.62,1.76a8.12,8.12,0,0,0,2.57-.38l.38,2a9.17,9.17,0,0,1-3.36.57c-3.16,0-5-1.82-5-4.73,0-2.36,1.46-5,4.69-5,3,0,4.14,2.34,4.14,4.64a8.13,8.13,0,0,1-.09,1.14Zm3.4-2a1.67,1.67,0,0,0-1.63-1.88,1.9,1.9,0,0,0-1.79,1.88Z" />
        <path class="cls-13"
            d="M365.18,224.54c0-1.37,0-2.26-.07-3.06h2.48l.1,1.71h.08a2.72,2.72,0,0,1,2.5-1.92,2.84,2.84,0,0,1,.61,0V224a3.9,3.9,0,0,0-.78-.08,1.85,1.85,0,0,0-2,1.46,3.27,3.27,0,0,0-.06.65v4.71h-2.89Z" />
        <path class="cls-13"
            d="M376,218.82v2.66h2.07v2.13H376V227c0,1.12.27,1.63,1.14,1.63a4.7,4.7,0,0,0,.86-.07l0,2.18a5.49,5.49,0,0,1-1.89.25,3,3,0,0,1-2.16-.8,3.84,3.84,0,0,1-.8-2.75v-3.8H372v-2.13h1.23v-2Z" />
        <path class="cls-13"
            d="M388.87,230.77l-.13-1.16h-.06a3.42,3.42,0,0,1-2.81,1.37,2.62,2.62,0,0,1-2.81-2.64c0-2.22,2-3.44,5.53-3.42v-.19a1.9,1.9,0,0,0-2.09-2.13,4.52,4.52,0,0,0-2.39.69l-.38-1.11a5.74,5.74,0,0,1,3-.81c2.81,0,3.49,1.92,3.49,3.76v3.44a13.42,13.42,0,0,0,.15,2.2Zm-.24-4.69c-1.83,0-3.9.28-3.9,2.07a1.48,1.48,0,0,0,1.58,1.59,2.28,2.28,0,0,0,2.22-1.53,1.77,1.77,0,0,0,.1-.54Z" />
        <path class="cls-13"
            d="M392.94,224.58c0-1.18,0-2.13-.08-3h1.51l.07,1.57h0a3.61,3.61,0,0,1,3.27-1.78c2.22,0,3.89,1.88,3.89,4.67,0,3.31-2,4.94-4.18,4.94a3.23,3.23,0,0,1-2.83-1.44h0v5h-1.65Zm1.65,2.45a3.62,3.62,0,0,0,.08.68,2.58,2.58,0,0,0,2.51,2c1.76,0,2.79-1.45,2.79-3.55,0-1.85-1-3.42-2.74-3.42a2.65,2.65,0,0,0-2.52,2.07,2.55,2.55,0,0,0-.12.68Z" />
        <path class="cls-13"
            d="M403.75,224.58c0-1.18,0-2.13-.08-3h1.51l.07,1.57h0a3.61,3.61,0,0,1,3.27-1.78c2.22,0,3.89,1.88,3.89,4.67,0,3.31-2,4.94-4.18,4.94a3.23,3.23,0,0,1-2.83-1.44h0v5h-1.65ZM405.4,227a3.62,3.62,0,0,0,.08.68,2.58,2.58,0,0,0,2.51,2c1.76,0,2.79-1.45,2.79-3.55,0-1.85-1-3.42-2.74-3.42a2.65,2.65,0,0,0-2.52,2.07,2.55,2.55,0,0,0-.12.68Z" />
        <path class="cls-13" d="M413.73,229.78a1.13,1.13,0,1,1,1.12,1.2A1.12,1.12,0,0,1,413.73,229.78Z" />
    </g>
    <g class="cls-29">
        <path class="cls-4"
            d="M81.41,187.26H47.89a11.27,11.27,0,0,0-11.07,11.45V233.4a11.28,11.28,0,0,0,11.07,11.45H81.41A11.28,11.28,0,0,0,92.48,233.4V198.71a11.27,11.27,0,0,0-11.07-11.45" />
        <path class="cls-30"
            d="M81.41,187.26H47.89a11.27,11.27,0,0,0-11.07,11.45V233.4a11.28,11.28,0,0,0,11.07,11.45H81.41A11.28,11.28,0,0,0,92.48,233.4V198.71a11.27,11.27,0,0,0-11.07-11.45" />
        <path class="cls-31"
            d="M57.16,215.33c-.12-.46-.26-.91-.39-1.37s-.23-.81-.36-1.26c.34.06.62.11.9.18l1.13.26c.42.09.56,0,.76-.37s.35-.73.55-1.14c.38.47.74.9,1.1,1.33l.74.89.18.18a.26.26,0,0,0,.36.08.51.51,0,0,0,.21-.31,1.29,1.29,0,0,0,0-.48c-.27-1.41-.54-2.83-.82-4.23,0-.1,0-.2,0-.34l.29.14,1,.6c.47.29.57.26.81-.23l1.3-2.77c0-.05.05-.11.11-.21a3.53,3.53,0,0,1,.17.33c.43.9.85,1.8,1.27,2.69.21.44.31.47.73.22s.87-.53,1.35-.83c-.13.72-.26,1.37-.39,2-.17.91-.36,1.82-.53,2.72a1.3,1.3,0,0,0,0,.34c0,.16.09.32.24.34a.53.53,0,0,0,.36-.11,1.6,1.6,0,0,0,.3-.33l1.71-2.05c.17.34.32.67.47,1,.28.6.32.62,1,.49l1.88-.4a1.25,1.25,0,0,1,0,.3c-.21.73-.42,1.46-.62,2.19a2,2,0,0,0-.08.33.46.46,0,0,0,.23.54c.22.13.43.27.67.43l-2,1.72-1.9,1.64a.83.83,0,0,0-.29,1.15c.13.38.28.77.45,1.2l-2.39-.49-1.39-.27a2.13,2.13,0,0,0-.25,0c-.37,0-.47.09-.46.46,0,.9.07,1.8.1,2.71,0,.53,0,1.07,0,1.64h-1c0-.46,0-.92,0-1.37,0-1,.08-2,.1-3,0-.33-.08-.45-.4-.42a10.84,10.84,0,0,0-1.29.21c-.89.17-1.78.36-2.67.55l-.1,0,.35-.93c.31-.81.27-1-.37-1.51l-3.52-3-.21-.2.54-.35c.37-.24.43-.37.31-.8m-5.07-3.49v8.54a3.25,3.25,0,0,0,.92,2.33l3.3,3.49,2.45,2.58a2.82,2.82,0,0,0,2.07.93h8.26a2.47,2.47,0,0,0,1.53-.48,8.81,8.81,0,0,0,1-.93c1.75-1.84,3.49-3.69,5.25-5.53a3.44,3.44,0,0,0,1-2.46c0-2.8,0-5.59,0-8.39a3.37,3.37,0,0,0-1-2.47l-5.67-6a2.92,2.92,0,0,0-2.22-1H61a2.94,2.94,0,0,0-2.21,1l-5.73,6a3.3,3.3,0,0,0-.92,2.34" />
        <path class="cls-32"
            d="M61.1,193.69l1.39,2.54c.67,1.22,1.34,2.43,2,3.66a.52.52,0,0,0,1,0c.22-.42.45-.83.67-1.24l2.14-3.92c.26-.48.53-.95.78-1.44a.5.5,0,0,0-.35-.77,1.46,1.46,0,0,0-.36,0H61.6a1.72,1.72,0,0,0-.39,0,.5.5,0,0,0-.33.73,4.37,4.37,0,0,0,.22.43" />
        <path class="cls-32"
            d="M66.56,234.38c-.37-.68-.74-1.37-1.13-2-.28-.48-.66-.47-.94,0s-.54,1-.81,1.46c-.7,1.28-1.4,2.57-2.11,3.85-.22.41-.46.82-.67,1.24a.54.54,0,0,0,.46.82h7c.27,0,.54,0,.7-.28s0-.53-.11-.77l-2.36-4.3" />
        <path class="cls-32"
            d="M46.83,203l.17.05,5.47,1.55,1.32.37a.53.53,0,0,0,.69-.52l0-.18-.66-2.64c-.4-1.56-.79-3.11-1.18-4.66-.1-.4-.53-.66-.88-.26l-.16.16q-2,2.13-4,4.27c-.3.31-.61.62-.89.94a.54.54,0,0,0,.21.92" />
        <path class="cls-32"
            d="M76,205l.14,0,.87-.25,4.88-1.37,1.18-.34a.53.53,0,0,0,.26-.91,3.85,3.85,0,0,0-.27-.3c-.69-.71-1.37-1.42-2-2.14-.92-1-1.84-1.95-2.77-2.92-.37-.39-.77-.27-.91.27,0,.18-.1.36-.14.54l-1.14,4.47c-.19.77-.39,1.54-.58,2.32A.54.54,0,0,0,76,205" />
        <path class="cls-32"
            d="M83.4,230a.54.54,0,0,0-.23-.78.92.92,0,0,0-.28-.09l-6-1.69-.92-.26a.52.52,0,0,0-.5.67l.9,3.61c.32,1.26.64,2.51,1,3.76a.53.53,0,0,0,.47.45.55.55,0,0,0,.47-.24l5-5.26a.75.75,0,0,0,.14-.17" />
        <path class="cls-32"
            d="M53.81,227.22l-.84.24-4.84,1.36c-.43.12-.86.23-1.28.37a.53.53,0,0,0-.24.91c0,.07.12.13.17.19l2.92,3.09c.66.69,1.32,1.37,2,2.06.12.12.24.26.44.23a.47.47,0,0,0,.42-.3,4,4,0,0,0,.14-.46c.35-1.39.71-2.77,1.06-4.15l.72-2.9a.5.5,0,0,0-.64-.64" />
        <path class="cls-32"
            d="M49.58,215.6l-5.24-3.2c-.33-.2-.66-.42-1-.6a.47.47,0,0,0-.71.42c0,.1,0,.2,0,.3v7.19c0,.11,0,.22,0,.33a.42.42,0,0,0,.43.42,1,1,0,0,0,.47-.15c.88-.52,1.75-1.06,2.63-1.59,1.14-.7,2.29-1.39,3.43-2.1a.55.55,0,0,0,0-1" />
        <path class="cls-32"
            d="M87.29,212.15a.47.47,0,0,0-.66-.37.94.94,0,0,0-.22.12l-5,3c-.4.25-.81.49-1.2.76a.52.52,0,0,0,0,.88l.24.15,4.87,3c.37.23.74.47,1.12.69a.5.5,0,0,0,.82-.47v-7.41a1.93,1.93,0,0,0,0-.34" />
        <path class="cls-4"
            d="M56.85,216.13l-.54.35.21.2,3.52,3c.64.55.68.7.37,1.51l-.35.93.1,0,2.67-.56c.42-.08.85-.16,1.29-.2s.41.09.4.42c0,1-.07,2-.1,3,0,.45,0,.91,0,1.37h1c0-.57,0-1.11,0-1.65,0-.9-.07-1.8-.1-2.7,0-.38.09-.46.46-.46a2.13,2.13,0,0,1,.25,0l1.39.27,2.39.49c-.17-.43-.32-.82-.45-1.2-.2-.58-.15-.76.29-1.15l1.9-1.64,2-1.72c-.24-.16-.45-.3-.67-.43a.46.46,0,0,1-.23-.54c0-.11,0-.22.08-.33.2-.73.42-1.46.62-2.19a2,2,0,0,0,.06-.3l-1.89.4c-.63.13-.67.1-1-.49-.16-.32-.3-.64-.47-1l-1.71,2.05a1.6,1.6,0,0,1-.3.33.53.53,0,0,1-.36.11c-.15,0-.22-.18-.24-.34a1.3,1.3,0,0,1,0-.34c.17-.9.36-1.81.53-2.72.13-.66.26-1.32.39-2-.48.3-.91.57-1.35.83s-.52.22-.73-.21c-.42-.9-.84-1.8-1.27-2.7a3.53,3.53,0,0,0-.17-.33l-.11.21c-.43.93-.87,1.85-1.3,2.77-.24.49-.33.52-.81.23l-1-.6c-.08,0-.17-.08-.29-.14,0,.14,0,.24,0,.34.28,1.4.55,2.81.82,4.23a1.11,1.11,0,0,1,0,.48.54.54,0,0,1-.21.31.27.27,0,0,1-.36-.08l-.18-.19c-.25-.29-.49-.58-.73-.88s-.73-.87-1.11-1.33c-.2.41-.37.78-.55,1.14s-.34.46-.76.37l-1.13-.26-.9-.18c.13.45.24.86.36,1.26s.27.91.39,1.37.06.56-.31.8" />
    </g>
    <g id="Lines">
        <g class="cls-33">
            <line class="cls-34" x1="-16.56" y1="70.6" x2="634.32" y2="70.6" />
        </g>
        <g class="cls-33">
            <line class="cls-35" x1="-9" y1="707.5" x2="622" y2="707.5" />
        </g>
        <g class="cls-33">
            <line class="cls-36" x1="-8" y1="252.38" x2="622" y2="252.38" />
        </g>
    </g>
    <g id="Wordmark">
        <path class="cls-37"
            d="M562,31.23h3.89V39H562Zm5,3.88-.23.07s1.34,1.12,1.34,1.2.15.08.08.3l-.15.45s1.19-.23,1.34-.3.23,0,.23.15-.08,1.42-.08,1.42h.38s-.08-1.35-.08-1.42.08-.15.23-.15,1.34.3,1.34.3a2.46,2.46,0,0,0-.15-.45c-.08-.22,0-.22.08-.3s1.34-1.2,1.34-1.2l-.22-.07c-.16-.08-.08-.15-.08-.22s.22-.83.22-.83-.59.15-.67.15-.15,0-.15-.07a1.74,1.74,0,0,0-.15-.37l-.74.82c-.15.15-.3,0-.23-.15s.38-1.72.38-1.72l-.53.3c-.15.07-.22.07-.22-.08s-.52-1-.52-1l-.53,1c-.07.15-.15.15-.22.08l-.52-.3s.37,1.57.37,1.72-.07.22-.22.15l-.75-.82a.87.87,0,0,1-.15.29c0,.08-.07.15-.15.08a6.5,6.5,0,0,1-.75-.15,6.07,6.07,0,0,0,.3.82.31.31,0,0,1-.14.3m6.71-3.88h3.89V39h-3.89Z" />
        <path
            d="M493.21,48.85c-.74,2.39-2.16,6.28-7.31,6.43-5.38.07-8.59-3.59-8.74-10.39-.22-7.24,2.91-12.77,7.77-12.92,5.45-.07,7.39,6.42,7.46,7.4a.53.53,0,1,0,1.05-.08c0-.37-.45-6.8-.6-7.54s-.75-.45-.89-.15.07-.23-.23.45-1.12.29-1.42.22a11.56,11.56,0,0,0-5.37-1.2c-6.35.15-12.84,4.86-12.69,13.08a12.35,12.35,0,0,0,12.54,12.4,9.28,9.28,0,0,0,9.41-7.47c.29-1-.68-1.2-1-.23m7.17,6.5a2.51,2.51,0,0,1-2.61-2.61A4.45,4.45,0,0,1,500.31,49a19.85,19.85,0,0,1,2.83-1.34h.15a.24.24,0,0,1,.08.15v3.36c0,2.39-1.2,4.18-3,4.18m9.33-.82a1.42,1.42,0,0,1-1.26.89c-.45,0-1.8-.07-1.8-3.58V44.3c0-2.32-1.79-4.19-6.42-4.19-5,0-5.07,2.47-5.07,3.07s.29,1.41,1.56,1.41c1.12,0,1.42-1.27,1.57-1.71s.23-2,2.24-2c1.72,0,2.76,1.49,2.84,3.66v.82c0,.15,0,.3-.08.37v.08a1.79,1.79,0,0,1-1.19,1.42,21.53,21.53,0,0,1-3.81.89c-1,.23-4,1-3.88,4s3.06,4,5.15,4a5.93,5.93,0,0,0,3.73-1.35c.3-.22.3-.22.53.08a4.61,4.61,0,0,0,3.58,1.27c2.39,0,2.69-1.12,2.84-1.5.15-.22-.38-.44-.53-.07m18.15.75c-.6-.15-1.65-.83-1.65-4.11v-6c0-1.42.15-5.08-5.45-5.08a7.6,7.6,0,0,0-4.7,1.57c-.22.23-.37.3-.45-.07s-.22-.75-.3-1-.22-.45-.74-.37-3.81.59-4.41.74-.37.38,0,.45,2.17.23,2.17,3.29v6.42c0,3.74-.75,4-1.42,4.26-.9.22-.45.52-.08.52h6.8c.45,0,.67-.45-.23-.59s-1.71-.68-1.71-3.59V47.58c0-1.57-.38-6.35,3.95-6.42,3.07-.08,3.36,2.46,3.36,4.11v6.35c0,2.61-.74,3.43-1.64,3.58s-.67.52-.22.52h6.94c.37.15.75-.22-.22-.44m7.16.07a2.51,2.51,0,0,1-2.61-2.61A4.53,4.53,0,0,1,535,49a19.71,19.71,0,0,1,2.84-1.34h.15v3.51c0,2.39-1.2,4.18-2.92,4.18m9.26-.82a1.43,1.43,0,0,1-1.27.89c-.44,0-1.79-.07-1.79-3.58V44.3c0-2.32-1.79-4.19-6.42-4.19-5,0-5.08,2.47-5.08,3.07s.3,1.41,1.57,1.41,1.42-1.27,1.57-1.71.22-2,2.24-2c1.72,0,2.84,1.49,2.84,3.73v.75a1.9,1.9,0,0,1-1.27,1.94,22.66,22.66,0,0,1-3.81.9c-1.05.22-4,1-3.88,4s3.06,4,5.15,4a5.91,5.91,0,0,0,3.73-1.34c.3-.23.3-.23.52.07A4.64,4.64,0,0,0,542,56.17c2.39,0,2.69-1.12,2.83-1.49s-.29-.52-.52-.15m8.74,1c-3.29,0-5-3.88-5-7.62,0-4.11,2.32-6.87,4.78-6.72,3.21.22,4,2.76,4.11,7.32v1c-.07,4.48-1.94,6-3.88,6m9.26-.22c-.3-.08-2.17.14-2.17-5.53V31.9c0-.23,0-.83-.67-.83s-5.15.23-5.45.3-.53.38,0,.38,2.91.22,2.91,4.18v5.45c0,.15,0,.23-.07.3v.08c-.08.07-.16,0-.38-.15a7.6,7.6,0,0,0-4.25-1.35A7.7,7.7,0,0,0,544.36,48c0,5.6,3.95,8.29,8.06,8.29a7.74,7.74,0,0,0,4-1.19c.59-.38.52-.3.59.22.08.37,0,1.12,1,1s3.81-.45,4.33-.53.37-.52-.07-.59m6.86.07a2.51,2.51,0,0,1-2.61-2.61A4.53,4.53,0,0,1,569.07,49a19.71,19.71,0,0,1,2.84-1.34h.14a.24.24,0,0,1,.08.15v3.28c0,2.47-1.19,4.26-3,4.26m9.34-.82a1.44,1.44,0,0,1-1.27.89c-.45,0-1.8-.07-1.8-3.58V44.3c0-2.32-1.79-4.19-6.42-4.19-5,0-5.07,2.47-5.07,3.07s.3,1.41,1.57,1.41,1.41-1.27,1.56-1.71.23-2,2.24-2c1.72,0,2.76,1.49,2.84,3.66v1.27a1.79,1.79,0,0,1-1.19,1.42,21.53,21.53,0,0,1-3.81.89c-1,.23-4,1-3.88,4s3.06,4,5.15,4a6,6,0,0,0,3.73-1.35c.3-.22.3-.22.52.08a4.64,4.64,0,0,0,3.59,1.27c2.38,0,2.68-1.12,2.83-1.5.08-.22-.45-.44-.59-.07" />
    </g>
    <g id="Signature">
        <path class="cls-38"
            d="M45,37.55H36v18h9Zm8.95,1.38s-1.09,2.21-1.27,2.4-.27.27-.54.18-1.17-.64-1.17-.64.81,3.58.81,3.86-.18.55-.54.28l-1.63-1.84s-.36.82-.45,1-.18.28-.36.18S47,44,47,44l.63,2c.1.19.19.37-.18.55l-.54.19L50,49.52c.19.18.28.18.19.64a5.34,5.34,0,0,0-.28,1s2.8-.65,3.08-.65.54.09.54.37-.18,3.4-.18,3.4h.9s-.18-3-.18-3.4.27-.37.54-.37,3.08.65,3.08.65l-.28-1c-.18-.46,0-.55.19-.64l3.07-2.76-.54-.19c-.27-.18-.18-.36-.18-.55s.63-2,.63-2-1.44.28-1.72.37-.27-.09-.36-.18-.45-1-.45-1S56.52,45,56.43,45c-.27.18-.63,0-.54-.28s.82-3.86.82-3.86a11.82,11.82,0,0,1-1.18.64c-.19.19-.37.19-.55-.18a20,20,0,0,0-1.08-2.4M71.71,55.59H62.76v-18h8.95Z" />
        <path
            d="M129.08,52.56a.42.42,0,0,0,.38-.24.8.8,0,0,0-.25-.94,1.61,1.61,0,0,0-.87-.19,1.11,1.11,0,0,0-.92.35,1.07,1.07,0,0,0-.2.58h-.78a1.4,1.4,0,0,1,.59-1.27,2.38,2.38,0,0,1,1.33-.37,2.75,2.75,0,0,1,1.43.34,1.13,1.13,0,0,1,.54,1v2.86a.41.41,0,0,0,0,.21.27.27,0,0,0,.23.08h.12l.15,0v.62l-.3.07h-.27a.68.68,0,0,1-.63-.31,1,1,0,0,1-.14-.46,2,2,0,0,1-.74.58,2.2,2.2,0,0,1-1.05.25,1.56,1.56,0,0,1-1.13-.42,1.4,1.4,0,0,1-.44-1,1.37,1.37,0,0,1,.43-1.07,2,2,0,0,1,1.14-.47Zm-2,1.69a.68.68,0,0,0,.27.57A1,1,0,0,0,128,55a2,2,0,0,0,.85-.2,1.16,1.16,0,0,0,.69-1.11V53a1.42,1.42,0,0,1-.39.17l-.47.09-.51.06a2.08,2.08,0,0,0-.68.19.75.75,0,0,0-.39.7m-4.14-3.73a1.8,1.8,0,0,1,1,.24,2.16,2.16,0,0,1,.5.48v-2.5h.81v6.83h-.76v-.69a1.67,1.67,0,0,1-.69.66,1.91,1.91,0,0,1-.91.21,1.85,1.85,0,0,1-1.44-.7,2.74,2.74,0,0,1-.61-1.86,3.21,3.21,0,0,1,.56-1.88,1.81,1.81,0,0,1,1.58-.79m-1.25,2.63a2.5,2.5,0,0,0,.33,1.33,1.2,1.2,0,0,0,1.09.54,1.12,1.12,0,0,0,1-.5,2.34,2.34,0,0,0,.38-1.43A2.08,2.08,0,0,0,124,51.7a1.21,1.21,0,0,0-1-.46,1.29,1.29,0,0,0-1,.49,2.27,2.27,0,0,0-.38,1.42m-3.16-.59a.45.45,0,0,0,.39-.24.85.85,0,0,0,0-.32.69.69,0,0,0-.3-.62,1.63,1.63,0,0,0-.87-.19,1.12,1.12,0,0,0-.93.35,1.16,1.16,0,0,0-.2.58h-.78a1.41,1.41,0,0,1,.6-1.27,2.35,2.35,0,0,1,1.33-.37,2.71,2.71,0,0,1,1.42.34,1.13,1.13,0,0,1,.54,1v2.86a.41.41,0,0,0,0,.21A.29.29,0,0,0,120,55h.13l.15,0v.62l-.3.07h-.28a.68.68,0,0,1-.63-.31,1.39,1.39,0,0,1-.14-.46,2,2,0,0,1-.73.58,2.21,2.21,0,0,1-1.06.25,1.58,1.58,0,0,1-1.13-.42,1.4,1.4,0,0,1-.43-1A1.34,1.34,0,0,1,116,53.2a2,2,0,0,1,1.13-.47Zm-2,1.69a.7.7,0,0,0,.26.57,1,1,0,0,0,.63.21,2,2,0,0,0,.85-.2,1.15,1.15,0,0,0,.7-1.11V53a1.5,1.5,0,0,1-.4.17,3.89,3.89,0,0,1-.47.09l-.5.06a2.15,2.15,0,0,0-.69.19.76.76,0,0,0-.38.7m-5.93-3.65h.79v.71a2.38,2.38,0,0,1,.75-.63,2.1,2.1,0,0,1,.88-.19,1.46,1.46,0,0,1,1.43.74,2.72,2.72,0,0,1,.2,1.16v3.18h-.85V52.44a1.67,1.67,0,0,0-.13-.73.82.82,0,0,0-.81-.47,1.68,1.68,0,0,0-.49.06,1.36,1.36,0,0,0-.87.92,3.64,3.64,0,0,0-.06.75v2.6h-.84Zm-2.63,2a.44.44,0,0,0,.39-.24.67.67,0,0,0,.06-.32.7.7,0,0,0-.31-.62,1.61,1.61,0,0,0-.87-.19,1.14,1.14,0,0,0-.93.35,1.27,1.27,0,0,0-.2.58h-.77a1.4,1.4,0,0,1,.59-1.27,2.38,2.38,0,0,1,1.33-.37,2.71,2.71,0,0,1,1.42.34,1.12,1.12,0,0,1,.55,1v2.86a.33.33,0,0,0,0,.21.27.27,0,0,0,.23.08h.12l.15,0v.62l-.3.07h-.28a.68.68,0,0,1-.62-.31,1.18,1.18,0,0,1-.15-.46,2,2,0,0,1-.73.58,2.2,2.2,0,0,1-1.05.25,1.56,1.56,0,0,1-1.13-.42,1.4,1.4,0,0,1-.44-1,1.34,1.34,0,0,1,.43-1.07,2,2,0,0,1,1.13-.47Zm-2,1.69a.68.68,0,0,0,.27.57,1,1,0,0,0,.62.21,2,2,0,0,0,.86-.2,1.16,1.16,0,0,0,.69-1.11V53a1.42,1.42,0,0,1-.39.17,4,4,0,0,1-.48.09l-.5.06a2.08,2.08,0,0,0-.68.19.75.75,0,0,0-.39.7m-4.52-5.68a2.83,2.83,0,0,1,2,.68,2.45,2.45,0,0,1,.79,1.55h-.9a1.83,1.83,0,0,0-.61-1,1.9,1.9,0,0,0-1.28-.38,2.08,2.08,0,0,0-1.63.7,3.27,3.27,0,0,0-.62,2.17,3.15,3.15,0,0,0,.56,1.94,2,2,0,0,0,1.67.75,1.74,1.74,0,0,0,1.55-.79,3,3,0,0,0,.43-1.08h.9a3,3,0,0,1-.8,1.8,2.82,2.82,0,0,1-2.19.88,2.91,2.91,0,0,1-2-.72A4.42,4.42,0,0,1,99,49.62a2.92,2.92,0,0,1,2.38-1m-8.06,1.28a1.43,1.43,0,0,1,.18-.76,1.26,1.26,0,0,1,1.13-.43H95v.76h-.3c-.25,0-.4.06-.45.2a3.71,3.71,0,0,0-.08,1H95v.66h-.84v4.28h-.82V51.29h-.69v-.66h.69Zm-3.5.61a2.25,2.25,0,0,1,1.63.64A2.52,2.52,0,0,1,92.11,53a3.22,3.22,0,0,1-.58,2,2.13,2.13,0,0,1-1.82.78,2,2,0,0,1-1.62-.69,2.69,2.69,0,0,1-.61-1.86,3,3,0,0,1,.64-2,2.13,2.13,0,0,1,1.7-.74m0,4.57a1.14,1.14,0,0,0,1.14-.62,3.09,3.09,0,0,0,.31-1.4A2.44,2.44,0,0,0,91,51.88a1.26,1.26,0,0,0-1.22-.69,1.19,1.19,0,0,0-1.11.58,2.73,2.73,0,0,0-.35,1.41,2.42,2.42,0,0,0,.35,1.33,1.22,1.22,0,0,0,1.1.52m47.86-16.81h.84V39.6h.8v.69h-.8v3.24a.36.36,0,0,0,.18.35.78.78,0,0,0,.32,0h.13l.17,0v.66l-.3.06a1.88,1.88,0,0,1-.34,0,.9.9,0,0,1-.79-.3,1.32,1.32,0,0,1-.21-.77V40.29H137V39.6h.67Zm-5.46,1.38h.8v.71a2.25,2.25,0,0,1,.74-.63,2.14,2.14,0,0,1,.88-.19,1.45,1.45,0,0,1,1.43.74,2.57,2.57,0,0,1,.2,1.16v3.18h-.84V41.44a1.66,1.66,0,0,0-.14-.73.82.82,0,0,0-.81-.47,1.61,1.61,0,0,0-.48.06,1.35,1.35,0,0,0-.61.41,1.27,1.27,0,0,0-.27.51A3.64,3.64,0,0,0,133,42v2.6h-.84Zm-1.88,2.09a2.37,2.37,0,0,0-.24-.87,1.22,1.22,0,0,0-1.15-.6,1.26,1.26,0,0,0-1,.42,1.53,1.53,0,0,0-.41,1ZM129,39.49a2.33,2.33,0,0,1,1,.25,2,2,0,0,1,.76.64,2.44,2.44,0,0,1,.33.88,5.79,5.79,0,0,1,.07,1.1h-3.64a2.2,2.2,0,0,0,.36,1.21,1.21,1.21,0,0,0,1,.46,1.34,1.34,0,0,0,1.05-.44,1.36,1.36,0,0,0,.31-.58h.82a1.75,1.75,0,0,1-.21.62,2.13,2.13,0,0,1-.41.54,1.87,1.87,0,0,1-.94.5,2.82,2.82,0,0,1-.68.08,2.14,2.14,0,0,1-1.58-.67,2.67,2.67,0,0,1-.64-1.9,2.83,2.83,0,0,1,.65-1.94,2.14,2.14,0,0,1,1.7-.75m-10,.11h.83v.71a2.92,2.92,0,0,1,.54-.53,1.58,1.58,0,0,1,.93-.29,1.45,1.45,0,0,1,1,.3,1.4,1.4,0,0,1,.37.49,1.72,1.72,0,0,1,.65-.59,1.84,1.84,0,0,1,.85-.2,1.36,1.36,0,0,1,1.36.73,2.36,2.36,0,0,1,.2,1.05v3.3h-.87V41.12a.78.78,0,0,0-.25-.68,1,1,0,0,0-.6-.19,1.21,1.21,0,0,0-.85.33,1.44,1.44,0,0,0-.36,1.1v2.89h-.84V41.33a1.71,1.71,0,0,0-.12-.74.75.75,0,0,0-.71-.35,1.26,1.26,0,0,0-.87.37,1.85,1.85,0,0,0-.38,1.33v2.63H119Zm-5.29,0h.8v.71a2.25,2.25,0,0,1,.74-.63,2.14,2.14,0,0,1,.88-.19,1.45,1.45,0,0,1,1.43.74,2.57,2.57,0,0,1,.2,1.16v3.18h-.84V41.44a1.66,1.66,0,0,0-.14-.73.82.82,0,0,0-.81-.47,1.61,1.61,0,0,0-.48.06,1.35,1.35,0,0,0-.61.41,1.27,1.27,0,0,0-.27.51,3.64,3.64,0,0,0-.06.75v2.6h-.84Zm-3.14,0h.8v.86a1.83,1.83,0,0,1,.48-.61,1.22,1.22,0,0,1,.87-.36h.08l.19,0v.88l-.14,0h-.13a1.19,1.19,0,0,0-1,.41,1.4,1.4,0,0,0-.34.94v2.85h-.84Zm-1.91,2.09a2.2,2.2,0,0,0-.23-.87,1.22,1.22,0,0,0-1.15-.6,1.26,1.26,0,0,0-1,.42,1.58,1.58,0,0,0-.42,1Zm-1.33-2.2a2.37,2.37,0,0,1,1,.25,1.91,1.91,0,0,1,.75.64,2.28,2.28,0,0,1,.34.88,5.79,5.79,0,0,1,.07,1.1h-3.64a2.12,2.12,0,0,0,.36,1.21,1.19,1.19,0,0,0,1,.46,1.34,1.34,0,0,0,1-.44,1.48,1.48,0,0,0,.31-.58h.82a1.6,1.6,0,0,1-.22.62,2.11,2.11,0,0,1-.4.54,1.9,1.9,0,0,1-.95.5,2.76,2.76,0,0,1-.68.08,2.12,2.12,0,0,1-1.57-.67,2.67,2.67,0,0,1-.65-1.9,2.88,2.88,0,0,1,.65-1.94,2.15,2.15,0,0,1,1.7-.75m-6.41.11,1.33,4,1.38-4h.92l-1.88,5h-.89l-1.83-5Zm-3.69-.14a2.22,2.22,0,0,1,1.62.64A2.52,2.52,0,0,1,99.51,42a3.22,3.22,0,0,1-.59,2,2.11,2.11,0,0,1-1.81.78,2,2,0,0,1-1.63-.69,2.74,2.74,0,0,1-.6-1.86,3,3,0,0,1,.63-2,2.15,2.15,0,0,1,1.71-.74m0,4.57a1.13,1.13,0,0,0,1.13-.62,3.09,3.09,0,0,0,.31-1.4,2.44,2.44,0,0,0-.22-1.13,1.24,1.24,0,0,0-1.21-.69,1.2,1.2,0,0,0-1.12.58,2.73,2.73,0,0,0-.35,1.41,2.42,2.42,0,0,0,.35,1.33,1.23,1.23,0,0,0,1.11.52m-6.31-6.45a3.6,3.6,0,0,1,1.66.37,2.42,2.42,0,0,1,1.24,1.87h-.91a1.61,1.61,0,0,0-.69-1.08,2.37,2.37,0,0,0-1.33-.35,2.07,2.07,0,0,0-1.59.71,3.07,3.07,0,0,0-.65,2.12,3.36,3.36,0,0,0,.54,2,2,2,0,0,0,1.74.76,2.23,2.23,0,0,0,1.52-.53A2.21,2.21,0,0,0,93,41.69H90.9v-.76h3v3.64H93.3l-.22-.87a3.65,3.65,0,0,1-.83.71,3.12,3.12,0,0,1-1.55.34A3,3,0,0,1,88.62,44a3.71,3.71,0,0,1-1-2.7,3.85,3.85,0,0,1,.93-2.72,2.91,2.91,0,0,1,2.28-1" />
        <path
            d="M202.22,52.56a.45.45,0,0,0,.39-.24.85.85,0,0,0,0-.32.69.69,0,0,0-.3-.62,1.63,1.63,0,0,0-.87-.19,1.12,1.12,0,0,0-.93.35,1.16,1.16,0,0,0-.2.58h-.78a1.46,1.46,0,0,1,.6-1.28,2.43,2.43,0,0,1,1.33-.36,2.62,2.62,0,0,1,1.42.34,1.13,1.13,0,0,1,.54,1v2.86a.46.46,0,0,0,.05.21.29.29,0,0,0,.23.08h.13l.15,0v.61l-.3.07-.28,0a.68.68,0,0,1-.63-.31,1.39,1.39,0,0,1-.14-.46,2,2,0,0,1-.73.58,2.21,2.21,0,0,1-1.06.25,1.58,1.58,0,0,1-1.13-.42,1.4,1.4,0,0,1-.43-1,1.34,1.34,0,0,1,.43-1.07,2,2,0,0,1,1.13-.47Zm-2,1.69a.7.7,0,0,0,.26.57,1,1,0,0,0,.63.21,1.84,1.84,0,0,0,.85-.21,1.13,1.13,0,0,0,.7-1.1V53a1.37,1.37,0,0,1-.4.17,3.89,3.89,0,0,1-.47.09l-.5.06a2.15,2.15,0,0,0-.69.19.76.76,0,0,0-.38.7m-4.14-3.73a1.74,1.74,0,0,1,.95.24,2.17,2.17,0,0,1,.51.48V48.73h.8v6.84h-.75v-.69a1.8,1.8,0,0,1-.69.66,2,2,0,0,1-.92.21,1.82,1.82,0,0,1-1.43-.7,2.71,2.71,0,0,1-.61-1.86,3.21,3.21,0,0,1,.55-1.88,1.82,1.82,0,0,1,1.59-.79m-1.26,2.63a2.41,2.41,0,0,0,.34,1.33,1.18,1.18,0,0,0,1.08.54,1.13,1.13,0,0,0,.95-.5,2.34,2.34,0,0,0,.38-1.43,2.14,2.14,0,0,0-.38-1.39,1.27,1.27,0,0,0-2,0,2.21,2.21,0,0,0-.39,1.42m-3.15-.59a.42.42,0,0,0,.38-.24.67.67,0,0,0,.06-.32.7.7,0,0,0-.31-.62,1.61,1.61,0,0,0-.87-.19,1.14,1.14,0,0,0-.93.35,1.27,1.27,0,0,0-.2.58H189a1.43,1.43,0,0,1,.59-1.28,2.45,2.45,0,0,1,1.33-.36,2.6,2.6,0,0,1,1.42.34,1.12,1.12,0,0,1,.55,1v2.86a.36.36,0,0,0,0,.21.27.27,0,0,0,.23.08h.12l.15,0v.61l-.3.07-.28,0a.68.68,0,0,1-.62-.31,1.18,1.18,0,0,1-.15-.46,2,2,0,0,1-.73.58,2.2,2.2,0,0,1-1.05.25,1.56,1.56,0,0,1-1.13-.42,1.4,1.4,0,0,1-.44-1,1.34,1.34,0,0,1,.43-1.07,2,2,0,0,1,1.13-.47Zm-2,1.69a.68.68,0,0,0,.27.57,1,1,0,0,0,.62.21,1.88,1.88,0,0,0,.86-.21,1.14,1.14,0,0,0,.69-1.1V53a1.42,1.42,0,0,1-.39.17l-.47.09-.51.06a2.08,2.08,0,0,0-.68.19.75.75,0,0,0-.39.7m-5.93-3.65h.8v.71a2.25,2.25,0,0,1,.74-.63,2.14,2.14,0,0,1,.88-.19,1.45,1.45,0,0,1,1.43.74,2.55,2.55,0,0,1,.2,1.15v3.19h-.84V52.44a1.66,1.66,0,0,0-.14-.73.82.82,0,0,0-.81-.47,1.61,1.61,0,0,0-.48.06,1.35,1.35,0,0,0-.61.41,1.27,1.27,0,0,0-.27.51,3.57,3.57,0,0,0-.06.75v2.6h-.84Zm-2.62,2a.42.42,0,0,0,.38-.24.8.8,0,0,0-.25-.94,1.59,1.59,0,0,0-.86-.19,1.12,1.12,0,0,0-.93.35,1.16,1.16,0,0,0-.2.58h-.78a1.43,1.43,0,0,1,.59-1.28,2.48,2.48,0,0,1,1.33-.36,2.66,2.66,0,0,1,1.43.34,1.13,1.13,0,0,1,.54,1v2.86a.46.46,0,0,0,.05.21.29.29,0,0,0,.23.08h.12l.15,0v.61l-.29.07-.28,0a.68.68,0,0,1-.63-.31,1.19,1.19,0,0,1-.14-.46,2.06,2.06,0,0,1-.73.58,2.21,2.21,0,0,1-1.06.25,1.56,1.56,0,0,1-1.13-.42,1.4,1.4,0,0,1-.44-1,1.34,1.34,0,0,1,.44-1.07,2,2,0,0,1,1.13-.47Zm-2,1.69a.68.68,0,0,0,.26.57,1,1,0,0,0,.63.21,1.84,1.84,0,0,0,.85-.21,1.14,1.14,0,0,0,.7-1.1V53a1.66,1.66,0,0,1-.4.17l-.47.09-.51.06a2.08,2.08,0,0,0-.68.19.74.74,0,0,0-.38.7m-4.53-5.68a2.79,2.79,0,0,1,2,.68,2.45,2.45,0,0,1,.8,1.55h-.9a1.77,1.77,0,0,0-1.9-1.43,2.08,2.08,0,0,0-1.63.71,3.25,3.25,0,0,0-.61,2.17,3.14,3.14,0,0,0,.55,1.94,2,2,0,0,0,1.67.75,1.79,1.79,0,0,0,1.56-.79,2.83,2.83,0,0,0,.42-1.08h.9a3.08,3.08,0,0,1-.8,1.8,2.82,2.82,0,0,1-2.19.88,2.88,2.88,0,0,1-2-.72,4.44,4.44,0,0,1-.27-5.41,2.92,2.92,0,0,1,2.38-1m-10.08,2v3.3a1.37,1.37,0,0,0,.12.62.85.85,0,0,0,.83.45,1.17,1.17,0,0,0,1.19-.78,3,3,0,0,0,.17-1.15V50.6h.84v5h-.79v-.73a1.71,1.71,0,0,1-.4.48,1.79,1.79,0,0,1-1.16.39A1.51,1.51,0,0,1,163.8,55a2.15,2.15,0,0,1-.21-1V50.6Zm-4.33-.08a1.74,1.74,0,0,1,.95.24,2.17,2.17,0,0,1,.51.48V48.73h.8v6.84h-.75v-.69a1.8,1.8,0,0,1-.69.66,2,2,0,0,1-.92.21,1.82,1.82,0,0,1-1.43-.7,2.71,2.71,0,0,1-.61-1.86,3.21,3.21,0,0,1,.55-1.88,1.82,1.82,0,0,1,1.59-.79m-1.26,2.63a2.41,2.41,0,0,0,.34,1.33,1.18,1.18,0,0,0,1.08.54,1.13,1.13,0,0,0,.95-.5,2.28,2.28,0,0,0,.38-1.43,2.14,2.14,0,0,0-.38-1.39,1.27,1.27,0,0,0-2,0,2.21,2.21,0,0,0-.39,1.42m59.88-14.93h.84V39.6h.79v.69h-.79v3.24a.36.36,0,0,0,.18.35.78.78,0,0,0,.32,0h.13l.16,0v.66a1.33,1.33,0,0,1-.3.06l-.33,0a.92.92,0,0,1-.8-.3,1.41,1.41,0,0,1-.2-.78V40.29h-.68V39.6h.68Zm-5.46,1.38h.79v.71a2.38,2.38,0,0,1,.75-.63,2.1,2.1,0,0,1,.88-.19,1.46,1.46,0,0,1,1.43.74,2.7,2.7,0,0,1,.2,1.15v3.19h-.85V41.44a1.67,1.67,0,0,0-.13-.73.82.82,0,0,0-.81-.47,1.68,1.68,0,0,0-.49.06,1.36,1.36,0,0,0-.87.92,3.57,3.57,0,0,0-.06.75v2.6h-.84Zm-1.89,2.09a2.2,2.2,0,0,0-.23-.87,1.22,1.22,0,0,0-1.15-.6,1.26,1.26,0,0,0-1,.42,1.56,1.56,0,0,0-.42,1Zm-1.33-2.2a2.37,2.37,0,0,1,1,.25,1.91,1.91,0,0,1,.75.64,2.28,2.28,0,0,1,.34.88,5.73,5.73,0,0,1,.07,1.09H208.6a2.05,2.05,0,0,0,.36,1.22,1.19,1.19,0,0,0,1,.45,1.32,1.32,0,0,0,1-.43,1.38,1.38,0,0,0,.32-.58h.82a1.6,1.6,0,0,1-.22.62,1.92,1.92,0,0,1-.41.54,1.83,1.83,0,0,1-.94.5,2.82,2.82,0,0,1-.68.08,2.12,2.12,0,0,1-1.57-.67,2.67,2.67,0,0,1-.65-1.9,2.86,2.86,0,0,1,.65-1.94,2.15,2.15,0,0,1,1.7-.75m-10,.11h.82v.71a2.63,2.63,0,0,1,.54-.53,1.63,1.63,0,0,1,.94-.29,1.52,1.52,0,0,1,1,.29,1.91,1.91,0,0,1,.37.5,1.65,1.65,0,0,1,.65-.59,1.8,1.8,0,0,1,.84-.2,1.38,1.38,0,0,1,1.37.73,2.33,2.33,0,0,1,.19,1v3.31h-.86V41.12a.81.81,0,0,0-.25-.68,1,1,0,0,0-.61-.19,1.21,1.21,0,0,0-.85.33,1.48,1.48,0,0,0-.35,1.1v2.89H203V41.33a1.71,1.71,0,0,0-.12-.74.74.74,0,0,0-.71-.35,1.26,1.26,0,0,0-.86.37,1.79,1.79,0,0,0-.39,1.33v2.63h-.83Zm-1.89,2.09a2,2,0,0,0-.24-.87,1.2,1.2,0,0,0-1.14-.6,1.28,1.28,0,0,0-1,.42,1.55,1.55,0,0,0-.41,1Zm-1.33-2.2a2.33,2.33,0,0,1,1,.25,1.87,1.87,0,0,1,.76.64,2.12,2.12,0,0,1,.33.88,5.54,5.54,0,0,1,.08,1.09H195.4a2.12,2.12,0,0,0,.35,1.22,1.22,1.22,0,0,0,1,.45,1.32,1.32,0,0,0,1-.43,1.38,1.38,0,0,0,.32-.58H199a1.6,1.6,0,0,1-.22.62,2.13,2.13,0,0,1-.41.54,1.83,1.83,0,0,1-.94.5,2.82,2.82,0,0,1-.68.08,2.12,2.12,0,0,1-1.57-.67,2.67,2.67,0,0,1-.65-1.9,2.86,2.86,0,0,1,.65-1.94,2.14,2.14,0,0,1,1.7-.75m-7.36.11h.8v.71a2.25,2.25,0,0,1,.74-.63,2.14,2.14,0,0,1,.88-.19,1.46,1.46,0,0,1,1.43.74,2.7,2.7,0,0,1,.2,1.15v3.19h-.85V41.44a1.67,1.67,0,0,0-.13-.73.82.82,0,0,0-.81-.47,1.68,1.68,0,0,0-.49.06,1.32,1.32,0,0,0-.6.41,1.27,1.27,0,0,0-.27.51,3.57,3.57,0,0,0-.06.75v2.6h-.84Zm-3.14,0h.8v.86a1.8,1.8,0,0,1,.47-.61,1.26,1.26,0,0,1,.88-.36h.08l.19,0v.88l-.14,0h-.13a1.18,1.18,0,0,0-1,.41,1.39,1.39,0,0,0-.34.93v2.86h-.84Zm-1.91,2.09a2,2,0,0,0-.24-.87,1.2,1.2,0,0,0-1.14-.6,1.28,1.28,0,0,0-1,.42,1.55,1.55,0,0,0-.41,1Zm-1.33-2.2a2.4,2.4,0,0,1,1,.25,1.91,1.91,0,0,1,.75.64,2.28,2.28,0,0,1,.34.88,6.73,6.73,0,0,1,.07,1.09h-3.64a2.05,2.05,0,0,0,.36,1.22,1.19,1.19,0,0,0,1,.45,1.32,1.32,0,0,0,1-.43,1.38,1.38,0,0,0,.32-.58h.82a1.6,1.6,0,0,1-.22.62,1.92,1.92,0,0,1-.41.54,1.83,1.83,0,0,1-.94.5,2.82,2.82,0,0,1-.68.08,2.12,2.12,0,0,1-1.57-.67,2.67,2.67,0,0,1-.65-1.9,2.86,2.86,0,0,1,.65-1.94,2.15,2.15,0,0,1,1.7-.75m-6.41.11,1.33,4,1.38-4h.92l-1.88,5h-.89l-1.83-5Zm-4.86,0v3.3a1.37,1.37,0,0,0,.12.62.84.84,0,0,0,.83.45,1.18,1.18,0,0,0,1.19-.78,3.21,3.21,0,0,0,.17-1.15V39.6H175v5h-.79v-.73a1.56,1.56,0,0,1-.4.48,1.79,1.79,0,0,1-1.16.39,1.51,1.51,0,0,1-1.45-.71,2.15,2.15,0,0,1-.21-1V39.6Zm-4.12-.14a2.22,2.22,0,0,1,1.62.64A2.51,2.51,0,0,1,170,42a3.24,3.24,0,0,1-.59,2,2.11,2.11,0,0,1-1.81.78,2,2,0,0,1-1.63-.69,2.74,2.74,0,0,1-.6-1.86,3,3,0,0,1,.63-2,2.15,2.15,0,0,1,1.71-.74m0,4.57a1.14,1.14,0,0,0,1.13-.62,3.09,3.09,0,0,0,.31-1.4,2.52,2.52,0,0,0-.22-1.14,1.25,1.25,0,0,0-1.21-.68,1.2,1.2,0,0,0-1.12.58,2.73,2.73,0,0,0-.35,1.41,2.36,2.36,0,0,0,.35,1.32,1.21,1.21,0,0,0,1.11.53m-6.31-6.45A3.48,3.48,0,0,1,163,38a2.42,2.42,0,0,1,1.24,1.87h-.91a1.61,1.61,0,0,0-.69-1.08,2.37,2.37,0,0,0-1.33-.35,2.07,2.07,0,0,0-1.59.71,3.07,3.07,0,0,0-.65,2.12,3.36,3.36,0,0,0,.54,2,2,2,0,0,0,1.74.76,2.23,2.23,0,0,0,1.52-.53,2.21,2.21,0,0,0,.62-1.74H161.4v-.76h3v3.64h-.59l-.22-.88a3.49,3.49,0,0,1-.83.72,3.12,3.12,0,0,1-1.55.34,3,3,0,0,1-2.08-.78,3.71,3.71,0,0,1-1-2.7,3.85,3.85,0,0,1,.93-2.72,2.91,2.91,0,0,1,2.28-1" />
    </g>
</svg>