<?xml version="1.0" encoding="UTF-8" standalone="no"?>
<!-- Generator: Gravit.io -->
<svg xmlns="http://www.w3.org/2000/svg" xmlns:xlink="http://www.w3.org/1999/xlink" style="isolation:isolate" viewBox="0 0 33 33" width="33pt" height="33pt"><defs><clipPath id="_clipPath_Ze2OvNw6Ze7TR5jAEVDjFRC8pAKNXiKK"><rect width="33" height="33"/></clipPath></defs><g clip-path="url(#_clipPath_Ze2OvNw6Ze7TR5jAEVDjFRC8pAKNXiKK)"><clipPath id="_clipPath_La8K9gKTml154woyeMSjlqAHWwqUE72d"><path d=" M 34.547 33.095 L 0 33.095 L 0 0 L 33.547 0" fill="rgb(255,255,255)"/></clipPath><g clip-path="url(#_clipPath_La8K9gKTml154woyeMSjlqAHWwqUE72d)"><g><rect x="0" y="0" width="33" height="33" transform="matrix(1,0,0,1,0,0)" fill="rgb(255,255,255)"/><path d=" M 16.818 5.212 C 16.676 5.457 16.324 5.457 16.182 5.212 L 13.491 0.55 C 13.35 0.305 13.526 0 13.808 0 L 19.192 0 C 19.474 0 19.651 0.305 19.509 0.55 L 16.818 5.212 Z " fill="rgb(119,135,152)"/><path d=" M 16.183 27.788 C 16.324 27.543 16.677 27.543 16.818 27.788 L 19.51 32.45 C 19.651 32.695 19.475 33 19.192 33 L 13.809 33 C 13.526 33 13.35 32.695 13.491 32.45 L 16.183 27.788 Z " fill="rgb(119,135,152)"/><path d=" M 24.705 8.743 C 24.432 8.816 24.183 8.566 24.256 8.294 L 25.649 3.093 C 25.722 2.821 26.063 2.729 26.263 2.929 L 30.07 6.736 C 30.269 6.935 30.178 7.276 29.905 7.349 L 24.705 8.743 Z " fill="rgb(119,135,152)"/><path d=" M 8.293 24.257 C 8.566 24.184 8.815 24.433 8.742 24.706 L 7.349 29.906 C 7.276 30.179 6.935 30.27 6.736 30.071 L 2.929 26.264 C 2.729 26.064 2.82 25.723 3.093 25.65 L 8.293 24.257 Z " fill="rgb(119,135,152)"/><path d=" M 27.788 16.817 C 27.543 16.676 27.543 16.323 27.788 16.182 L 32.45 13.49 C 32.695 13.349 33 13.526 33 13.808 L 33 19.192 C 33 19.474 32.695 19.65 32.45 19.509 L 27.788 16.817 Z " fill="rgb(119,135,152)"/><path d=" M 5.212 16.182 C 5.457 16.324 5.457 16.676 5.212 16.818 L 0.55 19.509 C 0.306 19.65 0 19.474 0 19.192 L 0 13.808 C 0 13.526 0.306 13.349 0.55 13.491 L 5.212 16.182 Z " fill="rgb(119,135,152)"/><path d=" M 24.256 24.706 C 24.183 24.433 24.433 24.184 24.706 24.257 L 29.906 25.65 C 30.178 25.723 30.27 26.064 30.07 26.264 L 26.263 30.071 C 26.064 30.27 25.723 30.179 25.65 29.906 L 24.256 24.706 Z " fill="rgb(119,135,152)"/><path d=" M 8.742 8.294 C 8.815 8.566 8.566 8.816 8.293 8.743 L 3.093 7.349 C 2.82 7.276 2.729 6.935 2.929 6.736 L 6.736 2.929 C 6.935 2.729 7.276 2.821 7.349 3.093 L 8.742 8.294 Z " fill="rgb(119,135,152)"/><path d=" M 11.918 7.639 C 12.331 7.226 12.891 6.994 13.474 6.994 L 19.526 6.994 C 20.109 6.994 20.669 7.226 21.082 7.639 L 25.361 11.918 C 25.774 12.331 26.005 12.89 26.005 13.474 L 26.005 19.526 C 26.005 20.109 25.774 20.669 25.361 21.082 L 21.082 25.361 C 20.669 25.774 20.109 26.005 19.526 26.005 L 13.474 26.005 C 12.891 26.005 12.331 25.774 11.918 25.361 L 7.639 21.082 C 7.226 20.669 6.994 20.109 6.994 19.526 L 6.994 13.474 C 6.994 12.89 7.226 12.331 7.639 11.918 L 11.918 7.639 Z " fill="rgb(255,0,0)"/><path d=" M 16.887 23.579 L 16.778 20.457 C 16.778 20.156 17.024 20.156 17.572 20.266 L 20.091 20.759 L 19.763 19.937 C 19.653 19.609 19.626 19.417 19.872 19.198 L 22.857 16.761 L 22.31 16.432 C 22.145 16.322 22.145 16.185 22.227 15.912 L 22.775 14.104 L 21.324 14.405 C 20.913 14.488 20.803 14.405 20.721 14.186 L 20.31 13.365 L 18.886 14.981 C 18.64 15.282 18.284 15.09 18.394 14.652 L 19.078 11.311 L 18.038 11.914 C 17.873 12.023 17.682 12.05 17.599 11.859 L 16.477 9.613 L 15.354 11.859 C 15.244 12.05 15.08 12.023 14.916 11.914 L 13.875 11.311 L 14.56 14.652 C 14.669 15.09 14.313 15.282 14.067 14.981 L 12.643 13.365 L 12.232 14.186 C 12.123 14.405 12.013 14.515 11.63 14.405 L 10.178 14.104 L 10.726 15.912 C 10.808 16.185 10.808 16.322 10.644 16.432 L 10.096 16.761 L 13.081 19.198 C 13.328 19.417 13.3 19.636 13.19 19.937 L 12.862 20.759 L 15.381 20.266 C 15.929 20.156 16.175 20.156 16.175 20.457 L 16.066 23.579 L 16.887 23.579 Z " fill="rgb(255,255,255)"/></g></g></g></svg>