<svg width="154" height="34" viewBox="0 0 154 34" fill="none" xmlns="http://www.w3.org/2000/svg">
  <g clip-path="url(#clip0)">
    <rect x="0.952637" y="0.500244" width="32.0946" height="32.0946" rx="7.5" fill="white"/>
    <path d="M17.1956 9.5967C17.1087 9.74723 16.8915 9.74723 16.8045 9.5967L15.147 6.72569C15.0601 6.57517 15.1687 6.38701 15.3425 6.38701L18.6577 6.38701C18.8315 6.38701 18.9401 6.57517 18.8532 6.72569L17.1956 9.5967Z" fill="#778798"/>
    <path d="M16.8049 23.4983C16.8918 23.3478 17.109 23.3478 17.1959 23.4983L18.8535 26.3693C18.9404 26.5199 18.8318 26.708 18.658 26.708L15.3428 26.708C15.169 26.708 15.0604 26.5199 15.1473 26.3693L16.8049 23.4983Z" fill="#778798"/>
    <path d="M22.0526 11.7708C21.8847 11.8158 21.7311 11.6621 21.7761 11.4942L22.6341 8.29205C22.6791 8.12416 22.889 8.06793 23.0119 8.19083L25.356 10.535C25.4789 10.6579 25.4227 10.8678 25.2548 10.9127L22.0526 11.7708Z" fill="#778798"/>
    <path d="M11.9465 21.3241C12.1144 21.2792 12.268 21.4328 12.2231 21.6007L11.365 24.8029C11.32 24.9708 11.1102 25.027 10.9873 24.9041L8.64311 22.5599C8.52021 22.437 8.57644 22.2271 8.74433 22.1822L11.9465 21.3241Z" fill="#778798"/>
    <path d="M23.9509 16.743C23.8004 16.6561 23.8004 16.4388 23.9509 16.3519L26.8219 14.6943C26.9724 14.6074 27.1606 14.7161 27.1606 14.8899L27.1606 18.205C27.1606 18.3788 26.9724 18.4875 26.8219 18.4006L23.9509 16.743Z" fill="#778798"/>
    <path d="M10.0493 16.352C10.1999 16.4389 10.1999 16.6562 10.0493 16.7431L7.17833 18.4006C7.0278 18.4875 6.83965 18.3789 6.83965 18.2051L6.83965 14.8899C6.83965 14.7161 7.02781 14.6075 7.17833 14.6944L10.0493 16.352Z" fill="#778798"/>
    <path d="M21.7763 21.6007C21.7314 21.4328 21.885 21.2792 22.0529 21.3242L25.2551 22.1822C25.423 22.2272 25.4792 22.4371 25.3563 22.56L23.0121 24.9041C22.8892 25.027 22.6794 24.9708 22.6344 24.8029L21.7763 21.6007Z" fill="#778798"/>
    <path d="M12.223 11.4943C12.268 11.6621 12.1144 11.8158 11.9465 11.7708L8.74432 10.9128C8.57643 10.8678 8.52019 10.6579 8.6431 10.535L10.9873 8.19084C11.1102 8.06794 11.32 8.12417 11.365 8.29206L12.223 11.4943Z" fill="#778798"/>
    <path d="M14.1787 11.091C14.4328 10.8369 14.7774 10.6942 15.1367 10.6942L18.8634 10.6942C19.2227 10.6942 19.5673 10.8369 19.8213 11.091L22.4565 13.7262C22.7106 13.9803 22.8533 14.3248 22.8533 14.6841V18.4109C22.8533 18.7702 22.7106 19.1147 22.4565 19.3688L19.8213 22.004C19.5673 22.2581 19.2227 22.4008 18.8634 22.4008H15.1367C14.7774 22.4008 14.4328 22.2581 14.1787 22.004L11.5435 19.3688C11.2895 19.1148 11.1467 18.7702 11.1467 18.4109L11.1467 14.6841C11.1467 14.3248 11.2895 13.9803 11.5435 13.7262L14.1787 11.091Z" fill="#FF0000"/>
    <path d="M17.2386 20.9069L17.1712 18.9845C17.1712 18.799 17.323 18.7991 17.6602 18.8665L19.2116 19.17L19.0092 18.6641C18.9418 18.4618 18.9249 18.3438 19.0767 18.2088L20.9148 16.708L20.5775 16.5057C20.4763 16.4382 20.4763 16.3539 20.5269 16.1853L20.8642 15.0723L19.9704 15.2578C19.7175 15.3084 19.65 15.2578 19.5994 15.1229L19.3465 14.617L18.4696 15.612C18.3179 15.7974 18.0986 15.6794 18.1661 15.4096L18.5877 13.3523L17.9469 13.7233C17.8457 13.7908 17.7277 13.8076 17.6771 13.6896L16.9857 12.3068L16.2943 13.6896C16.2269 13.8076 16.1257 13.7908 16.0245 13.7233L15.3837 13.3523L15.8053 15.4096C15.8727 15.6794 15.6535 15.7974 15.5018 15.612L14.6249 14.617L14.3719 15.1229C14.3045 15.2578 14.237 15.3253 14.001 15.2578L13.1072 15.0723L13.4445 16.1853C13.4951 16.3539 13.4951 16.4382 13.3939 16.5057L13.0566 16.708L14.8947 18.2088C15.0465 18.3438 15.0296 18.4787 14.9621 18.6641L14.7598 19.17L16.3112 18.8665C16.6484 18.7991 16.8002 18.799 16.8002 18.9845L16.7328 20.9069H17.2386Z" fill="white"/>
    <rect x="0.952637" y="0.500244" width="32.0946" height="32.0946" rx="7.5" stroke="#BCBCBC"/>
    <path d="M46.7459 11.1475C45.2126 11.1475 44.0059 11.6609 43.1259 12.6875C42.2459 13.7142 41.8059 15.1209 41.8059 16.9075C41.8059 18.6809 42.2126 20.0875 43.0259 21.1275C43.8526 22.1542 45.0859 22.6675 46.7259 22.6675C47.3392 22.6675 47.9259 22.6142 48.4859 22.5075C49.0459 22.4009 49.5992 22.2675 50.1459 22.1075V23.6675C49.6126 23.8675 49.0592 24.0142 48.4859 24.1075C47.9259 24.2009 47.2526 24.2475 46.4659 24.2475C45.0126 24.2475 43.7992 23.9475 42.8259 23.3475C41.8526 22.7475 41.1192 21.8942 40.6259 20.7875C40.1459 19.6809 39.9059 18.3809 39.9059 16.8875C39.9059 15.4475 40.1659 14.1809 40.6859 13.0875C41.2192 11.9809 41.9992 11.1209 43.0259 10.5075C44.0526 9.88088 45.2992 9.56755 46.7659 9.56755C48.2726 9.56755 49.5859 9.84755 50.7059 10.4075L49.9859 11.9275C49.5459 11.7275 49.0526 11.5475 48.5059 11.3875C47.9726 11.2275 47.3859 11.1475 46.7459 11.1475ZM65.332 16.8875C65.332 18.3675 65.0787 19.6609 64.572 20.7675C64.0787 21.8609 63.3387 22.7142 62.352 23.3275C61.3787 23.9409 60.1787 24.2475 58.752 24.2475C57.272 24.2475 56.0387 23.9409 55.052 23.3275C54.0787 22.7142 53.352 21.8542 52.872 20.7475C52.392 19.6409 52.152 18.3475 52.152 16.8675C52.152 15.4142 52.392 14.1409 52.872 13.0475C53.352 11.9409 54.0787 11.0809 55.052 10.4675C56.0387 9.85421 57.2787 9.54755 58.772 9.54755C60.1987 9.54755 61.3987 9.85421 62.372 10.4675C63.3453 11.0675 64.0787 11.9209 64.572 13.0275C65.0787 14.1209 65.332 15.4075 65.332 16.8875ZM54.052 16.8875C54.052 18.6875 54.432 20.1075 55.192 21.1475C55.952 22.1742 57.1387 22.6875 58.752 22.6875C60.3653 22.6875 61.5453 22.1742 62.292 21.1475C63.052 20.1075 63.432 18.6875 63.432 16.8875C63.432 15.0875 63.0587 13.6809 62.312 12.6675C61.5653 11.6409 60.3853 11.1275 58.772 11.1275C57.1453 11.1275 55.952 11.6409 55.192 12.6675C54.432 13.6809 54.052 15.0875 54.052 16.8875ZM78.3617 9.76755L73.2617 24.0475H71.4617L66.3617 9.76755H68.2417L71.4617 18.9275C71.675 19.5142 71.8484 20.0675 71.9817 20.5875C72.1284 21.0942 72.255 21.5809 72.3617 22.0475C72.455 21.5809 72.575 21.0875 72.7217 20.5675C72.8684 20.0475 73.0484 19.4875 73.2617 18.8875L76.4617 9.76755H78.3617ZM84.3139 24.0475H79.1539V23.0075L80.8339 22.6275V11.2075L79.1539 10.8075V9.76755H84.3139V10.8075L82.6339 11.2075V22.6275L84.3139 23.0075V24.0475ZM97.5112 16.7675C97.5112 19.1809 96.8512 21.0009 95.5312 22.2275C94.2246 23.4409 92.3979 24.0475 90.0512 24.0475H86.0712V9.76755H90.4712C91.8979 9.76755 93.1379 10.0342 94.1912 10.5675C95.2579 11.1009 96.0779 11.8875 96.6512 12.9275C97.2246 13.9675 97.5112 15.2475 97.5112 16.7675ZM95.6112 16.8275C95.6112 14.9209 95.1379 13.5275 94.1912 12.6475C93.2579 11.7542 91.9312 11.3075 90.2112 11.3075H87.8712V22.5075H89.8112C93.6779 22.5075 95.6112 20.6142 95.6112 16.8275ZM114.476 24.0475L113.436 20.6475H108.236L107.196 24.0475H103.936L108.976 9.70755H112.676L117.736 24.0475H114.476ZM112.716 18.1075L111.676 14.7875C111.609 14.5609 111.523 14.2742 111.416 13.9275C111.309 13.5809 111.203 13.2275 111.096 12.8675C110.989 12.5075 110.903 12.1942 110.836 11.9275C110.769 12.1942 110.676 12.5275 110.556 12.9275C110.449 13.3142 110.343 13.6875 110.236 14.0475C110.143 14.3942 110.069 14.6409 110.016 14.7875L108.996 18.1075H112.716ZM122.285 24.0475H119.305V8.84755H122.285V24.0475ZM129.898 12.9275C131.405 12.9275 132.598 13.3609 133.478 14.2275C134.358 15.0809 134.798 16.3009 134.798 17.8875V19.3275H127.758C127.785 20.1675 128.032 20.8275 128.498 21.3075C128.978 21.7875 129.638 22.0275 130.478 22.0275C131.172 22.0275 131.805 21.9609 132.378 21.8275C132.965 21.6809 133.565 21.4609 134.178 21.1675V23.4675C133.632 23.7342 133.065 23.9275 132.478 24.0475C131.892 24.1809 131.178 24.2475 130.338 24.2475C129.245 24.2475 128.278 24.0475 127.438 23.6475C126.598 23.2342 125.938 22.6209 125.458 21.8075C124.978 20.9809 124.738 19.9342 124.738 18.6675C124.738 17.4009 124.952 16.3409 125.378 15.4875C125.818 14.6342 126.425 13.9942 127.198 13.5675C127.972 13.1409 128.872 12.9275 129.898 12.9275ZM129.918 15.0475C129.332 15.0475 128.852 15.2342 128.478 15.6075C128.105 15.9809 127.885 16.5609 127.818 17.3475H131.998C131.985 16.6942 131.805 16.1475 131.458 15.7075C131.125 15.2675 130.612 15.0475 129.918 15.0475ZM143.315 12.9275C143.461 12.9275 143.635 12.9342 143.835 12.9475C144.035 12.9609 144.195 12.9809 144.315 13.0075L144.095 15.8075C143.988 15.7809 143.848 15.7609 143.675 15.7475C143.501 15.7209 143.348 15.7075 143.215 15.7075C142.708 15.7075 142.221 15.8009 141.755 15.9875C141.288 16.1609 140.908 16.4475 140.615 16.8475C140.335 17.2475 140.195 17.7942 140.195 18.4875V24.0475H137.215V13.1275H139.475L139.915 14.9675H140.055C140.375 14.4075 140.815 13.9275 141.375 13.5275C141.935 13.1275 142.581 12.9275 143.315 12.9275ZM150.897 21.8675C151.23 21.8675 151.55 21.8409 151.857 21.7875C152.163 21.7209 152.47 21.6342 152.777 21.5275V23.7475C152.457 23.8942 152.057 24.0142 151.577 24.1075C151.11 24.2009 150.597 24.2475 150.037 24.2475C149.383 24.2475 148.797 24.1409 148.277 23.9275C147.77 23.7142 147.363 23.3475 147.057 22.8275C146.763 22.3075 146.617 21.5742 146.617 20.6275V15.3675H145.197V14.1075L146.837 13.1075L147.697 10.8075H149.597V13.1275H152.657V15.3675H149.597V20.6275C149.597 21.0409 149.717 21.3542 149.957 21.5675C150.197 21.7675 150.51 21.8675 150.897 21.8675Z" fill="white"/>
  </g>
  <defs>
    <clipPath id="clip0">
      <rect width="153.095" height="33.0946" fill="white" transform="translate(0.452637 0.000244141)"/>
    </clipPath>
  </defs>
</svg>
