<svg width="168" height="34" viewBox="0 0 168 34" fill="none" xmlns="http://www.w3.org/2000/svg">
<g clip-path="url(#clip0)">
<rect x="1.4527" y="1.00024" width="32.0946" height="32.0946" rx="7.5" fill="white"/>
<path d="M17.6956 10.0967C17.6087 10.2472 17.3915 10.2472 17.3046 10.0967L15.647 7.22569C15.5601 7.07517 15.6687 6.88701 15.8425 6.88701L19.1577 6.88701C19.3315 6.88701 19.4401 7.07517 19.3532 7.22569L17.6956 10.0967Z" fill="#778798"/>
<path d="M17.305 23.9983C17.3919 23.8478 17.6092 23.8478 17.6961 23.9983L19.3536 26.8693C19.4405 27.0199 19.3319 27.208 19.1581 27.208L15.8429 27.208C15.6691 27.208 15.5605 27.0199 15.6474 26.8693L17.305 23.9983Z" fill="#778798"/>
<path d="M22.5527 12.2708C22.3848 12.3158 22.2312 12.1621 22.2762 11.9942L23.1342 8.79205C23.1792 8.62416 23.3891 8.56793 23.512 8.69083L25.8561 11.035C25.979 11.1579 25.9228 11.3678 25.7549 11.4127L22.5527 12.2708Z" fill="#778798"/>
<path d="M12.4466 21.8242C12.6145 21.7792 12.7682 21.9328 12.7232 22.1007L11.8651 25.3029C11.8202 25.4708 11.6103 25.527 11.4874 25.4041L9.14322 23.0599C9.02032 22.937 9.07655 22.7272 9.24444 22.6822L12.4466 21.8242Z" fill="#778798"/>
<path d="M24.451 17.243C24.3005 17.1561 24.3005 16.9388 24.451 16.8519L27.322 15.1943C27.4725 15.1074 27.6607 15.2161 27.6607 15.3899L27.6607 18.705C27.6607 18.8788 27.4725 18.9875 27.322 18.9006L24.451 17.243Z" fill="#778798"/>
<path d="M10.5494 16.852C10.6999 16.9389 10.6999 17.1562 10.5494 17.2431L7.67836 18.9006C7.52784 18.9875 7.33968 18.8789 7.33968 18.7051L7.33968 15.3899C7.33968 15.2161 7.52784 15.1075 7.67836 15.1944L10.5494 16.852Z" fill="#778798"/>
<path d="M22.2765 22.1007C22.2315 21.9328 22.3851 21.7792 22.553 21.8242L25.7552 22.6822C25.9231 22.7272 25.9793 22.9371 25.8564 23.06L23.5122 25.4041C23.3893 25.527 23.1795 25.4708 23.1345 25.3029L22.2765 22.1007Z" fill="#778798"/>
<path d="M12.7231 11.9943C12.7681 12.1621 12.6145 12.3158 12.4466 12.2708L9.24438 11.4128C9.07649 11.3678 9.02026 11.1579 9.14316 11.035L11.4873 8.69084C11.6102 8.56794 11.8201 8.62417 11.8651 8.79206L12.7231 11.9943Z" fill="#778798"/>
<path d="M14.6788 11.591C14.9328 11.3369 15.2774 11.1942 15.6367 11.1942L19.3634 11.1942C19.7227 11.1942 20.0673 11.3369 20.3214 11.591L22.9566 14.2262C23.2106 14.4802 23.3534 14.8248 23.3534 15.1841V18.9108C23.3534 19.2701 23.2106 19.6147 22.9566 19.8688L20.3214 22.504C20.0673 22.758 19.7227 22.9008 19.3634 22.9008H15.6367C15.2774 22.9008 14.9328 22.758 14.6788 22.504L12.0436 19.8688C11.7895 19.6147 11.6468 19.2701 11.6468 18.9108L11.6468 15.1841C11.6468 14.8248 11.7895 14.4802 12.0436 14.2262L14.6788 11.591Z" fill="#FF0000"/>
<path d="M17.7387 21.4069L17.6712 19.4846C17.6712 19.2991 17.823 19.2991 18.1602 19.3665L19.7116 19.6701L19.5093 19.1642C19.4418 18.9618 19.4249 18.8438 19.5767 18.7089L21.4148 17.2081L21.0775 17.0057C20.9763 16.9383 20.9763 16.854 21.0269 16.6853L21.3642 15.5724L20.4704 15.7579C20.2175 15.8085 20.1501 15.7579 20.0995 15.623L19.8465 15.1171L18.9696 16.112C18.8179 16.2975 18.5987 16.1794 18.6661 15.9096L19.0877 13.8524L18.4469 14.2233C18.3457 14.2908 18.2277 14.3077 18.1771 14.1896L17.4857 12.8069L16.7943 14.1896C16.7269 14.3077 16.6257 14.2908 16.5245 14.2233L15.8837 13.8524L16.3053 15.9096C16.3728 16.1794 16.1535 16.2975 16.0018 16.112L15.1249 15.1171L14.872 15.623C14.8045 15.7579 14.7371 15.8253 14.501 15.7579L13.6072 15.5724L13.9445 16.6853C13.9951 16.854 13.9951 16.9383 13.8939 17.0057L13.5567 17.2081L15.3947 18.7089C15.5465 18.8438 15.5296 18.9787 15.4622 19.1642L15.2598 19.6701L16.8112 19.3665C17.1485 19.2991 17.3002 19.2991 17.3002 19.4846L17.2328 21.4069H17.7387Z" fill="white"/>
<rect x="1.4527" y="1.00024" width="32.0946" height="32.0946" rx="7.5" stroke="#BCBCBC"/>
<path d="M49.8178 24.5475L48.7778 21.1475H43.5778L42.5378 24.5475H39.2778L44.3178 10.2075H48.0178L53.0778 24.5475H49.8178ZM48.0578 18.6075L47.0178 15.2875C46.9511 15.0609 46.8644 14.7742 46.7578 14.4275C46.6511 14.0809 46.5444 13.7275 46.4378 13.3675C46.3311 13.0075 46.2444 12.6942 46.1778 12.4275C46.1111 12.6942 46.0178 13.0275 45.8978 13.4275C45.7911 13.8142 45.6844 14.1875 45.5778 14.5475C45.4844 14.8942 45.4111 15.1409 45.3578 15.2875L44.3378 18.6075H48.0578ZM57.6264 24.5475H54.6464V9.34755H57.6264V24.5475ZM65.2401 13.4275C66.7468 13.4275 67.9401 13.8609 68.8201 14.7275C69.7001 15.5809 70.1401 16.8009 70.1401 18.3875V19.8275H63.1001C63.1268 20.6675 63.3734 21.3275 63.8401 21.8075C64.3201 22.2875 64.9801 22.5275 65.8201 22.5275C66.5134 22.5275 67.1468 22.4609 67.7201 22.3275C68.3068 22.1809 68.9068 21.9609 69.5201 21.6675V23.9675C68.9734 24.2342 68.4068 24.4275 67.8201 24.5475C67.2334 24.6809 66.5201 24.7475 65.6801 24.7475C64.5868 24.7475 63.6201 24.5475 62.7801 24.1475C61.9401 23.7342 61.2801 23.1209 60.8001 22.3075C60.3201 21.4809 60.0801 20.4342 60.0801 19.1675C60.0801 17.9009 60.2934 16.8409 60.7201 15.9875C61.1601 15.1342 61.7668 14.4942 62.5401 14.0675C63.3134 13.6409 64.2134 13.4275 65.2401 13.4275ZM65.2601 15.5475C64.6734 15.5475 64.1934 15.7342 63.8201 16.1075C63.4468 16.4809 63.2268 17.0609 63.1601 17.8475H67.3401C67.3268 17.1942 67.1468 16.6475 66.8001 16.2075C66.4668 15.7675 65.9534 15.5475 65.2601 15.5475ZM78.6565 13.4275C78.8032 13.4275 78.9765 13.4342 79.1765 13.4475C79.3765 13.4609 79.5365 13.4809 79.6565 13.5075L79.4365 16.3075C79.3299 16.2809 79.1899 16.2609 79.0165 16.2475C78.8432 16.2209 78.6899 16.2075 78.5565 16.2075C78.0499 16.2075 77.5632 16.3009 77.0965 16.4875C76.6299 16.6609 76.2499 16.9475 75.9565 17.3475C75.6765 17.7475 75.5365 18.2942 75.5365 18.9875V24.5475H72.5565V13.6275H74.8165L75.2565 15.4675H75.3965C75.7165 14.9075 76.1565 14.4275 76.7165 14.0275C77.2765 13.6275 77.9232 13.4275 78.6565 13.4275ZM86.2386 22.3675C86.5719 22.3675 86.8919 22.3409 87.1986 22.2875C87.5052 22.2209 87.8119 22.1342 88.1186 22.0275V24.2475C87.7986 24.3942 87.3986 24.5142 86.9186 24.6075C86.4519 24.7009 85.9386 24.7475 85.3786 24.7475C84.7252 24.7475 84.1386 24.6409 83.6186 24.4275C83.1119 24.2142 82.7052 23.8475 82.3986 23.3275C82.1052 22.8075 81.9586 22.0742 81.9586 21.1275V15.8675H80.5386V14.6075L82.1786 13.6075L83.0386 11.3075H84.9386V13.6275H87.9986V15.8675H84.9386V21.1275C84.9386 21.5409 85.0586 21.8542 85.2986 22.0675C85.5386 22.2675 85.8519 22.3675 86.2386 22.3675ZM94.8104 13.4275C96.3171 13.4275 97.5104 13.8609 98.3904 14.7275C99.2704 15.5809 99.7104 16.8009 99.7104 18.3875V19.8275H92.6704C92.6971 20.6675 92.9438 21.3275 93.4104 21.8075C93.8904 22.2875 94.5504 22.5275 95.3904 22.5275C96.0838 22.5275 96.7171 22.4609 97.2904 22.3275C97.8771 22.1809 98.4771 21.9609 99.0904 21.6675V23.9675C98.5438 24.2342 97.9771 24.4275 97.3904 24.5475C96.8038 24.6809 96.0904 24.7475 95.2504 24.7475C94.1571 24.7475 93.1904 24.5475 92.3504 24.1475C91.5104 23.7342 90.8504 23.1209 90.3704 22.3075C89.8904 21.4809 89.6504 20.4342 89.6504 19.1675C89.6504 17.9009 89.8638 16.8409 90.2904 15.9875C90.7304 15.1342 91.3371 14.4942 92.1104 14.0675C92.8838 13.6409 93.7838 13.4275 94.8104 13.4275ZM94.8304 15.5475C94.2438 15.5475 93.7638 15.7342 93.3904 16.1075C93.0171 16.4809 92.7971 17.0609 92.7304 17.8475H96.9104C96.8971 17.1942 96.7171 16.6475 96.3704 16.2075C96.0371 15.7675 95.5238 15.5475 94.8304 15.5475ZM113.822 11.6475C112.289 11.6475 111.082 12.1609 110.202 13.1875C109.322 14.2142 108.882 15.6209 108.882 17.4075C108.882 19.1809 109.289 20.5875 110.102 21.6275C110.929 22.6542 112.162 23.1675 113.802 23.1675C114.415 23.1675 115.002 23.1142 115.562 23.0075C116.122 22.9009 116.675 22.7675 117.222 22.6075V24.1675C116.689 24.3675 116.135 24.5142 115.562 24.6075C115.002 24.7009 114.329 24.7475 113.542 24.7475C112.089 24.7475 110.875 24.4475 109.902 23.8475C108.929 23.2475 108.195 22.3942 107.702 21.2875C107.222 20.1809 106.982 18.8809 106.982 17.3875C106.982 15.9475 107.242 14.6809 107.762 13.5875C108.295 12.4809 109.075 11.6209 110.102 11.0075C111.129 10.3809 112.375 10.0675 113.842 10.0675C115.349 10.0675 116.662 10.3475 117.782 10.9075L117.062 12.4275C116.622 12.2275 116.129 12.0475 115.582 11.8875C115.049 11.7275 114.462 11.6475 113.822 11.6475ZM132.408 17.3875C132.408 18.8675 132.155 20.1609 131.648 21.2675C131.155 22.3609 130.415 23.2142 129.428 23.8275C128.455 24.4409 127.255 24.7475 125.828 24.7475C124.348 24.7475 123.115 24.4409 122.128 23.8275C121.155 23.2142 120.428 22.3542 119.948 21.2475C119.468 20.1409 119.228 18.8475 119.228 17.3675C119.228 15.9142 119.468 14.6409 119.948 13.5475C120.428 12.4409 121.155 11.5809 122.128 10.9675C123.115 10.3542 124.355 10.0475 125.848 10.0475C127.275 10.0475 128.475 10.3542 129.448 10.9675C130.422 11.5675 131.155 12.4209 131.648 13.5275C132.155 14.6209 132.408 15.9075 132.408 17.3875ZM121.128 17.3875C121.128 19.1875 121.508 20.6075 122.268 21.6475C123.028 22.6742 124.215 23.1875 125.828 23.1875C127.442 23.1875 128.622 22.6742 129.368 21.6475C130.128 20.6075 130.508 19.1875 130.508 17.3875C130.508 15.5875 130.135 14.1809 129.388 13.1675C128.642 12.1409 127.462 11.6275 125.848 11.6275C124.222 11.6275 123.028 12.1409 122.268 13.1675C121.508 14.1809 121.128 15.5875 121.128 17.3875ZM145.438 10.2675L140.338 24.5475H138.538L133.438 10.2675H135.318L138.538 19.4275C138.751 20.0142 138.925 20.5675 139.058 21.0875C139.205 21.5942 139.331 22.0809 139.438 22.5475C139.531 22.0809 139.651 21.5875 139.798 21.0675C139.945 20.5475 140.125 19.9875 140.338 19.3875L143.538 10.2675H145.438ZM151.39 24.5475H146.23V23.5075L147.91 23.1275V11.7075L146.23 11.3075V10.2675H151.39V11.3075L149.71 11.7075V23.1275L151.39 23.5075V24.5475ZM165.587 17.2675C165.587 19.6809 164.927 21.5009 163.607 22.7275C162.301 23.9409 160.474 24.5475 158.127 24.5475H154.147V10.2675H158.547C159.974 10.2675 161.214 10.5342 162.267 11.0675C163.334 11.6009 164.154 12.3875 164.727 13.4275C165.301 14.4675 165.587 15.7475 165.587 17.2675ZM163.687 17.3275C163.687 15.4209 163.214 14.0275 162.267 13.1475C161.334 12.2542 160.007 11.8075 158.287 11.8075H155.947V23.0075H157.887C161.754 23.0075 163.687 21.1142 163.687 17.3275Z" fill="white"/>
</g>
<defs>
<clipPath id="clip0">
<rect width="166.095" height="33.0946" fill="white" transform="translate(0.952698 0.500244)"/>
</clipPath>
</defs>
</svg>
