<svg width="277" height="150" viewBox="0 0 277 150" fill="none" xmlns="http://www.w3.org/2000/svg">
<g clip-path="url(#clip0)">
<path d="M0.246582 9H104.247V141H0.246582V9Z" fill="white"/>
<rect x="0.246582" y="33" width="104" height="84" fill="#FFEAC0"/>
<rect width="72" height="72" transform="translate(16.2466 39)" fill="white"/>
<rect x="26.2466" y="71.5" width="16" height="7" fill="black" stroke="black" stroke-width="2"/>
<rect x="48.7466" y="49" width="7" height="7" fill="black" stroke="black" stroke-width="2"/>
<rect x="71.2466" y="71.5" width="7" height="7" fill="black" stroke="black" stroke-width="2"/>
<rect x="48.7466" y="62.5" width="7" height="7" fill="black" stroke="black" stroke-width="2"/>
<rect x="71.2466" y="94" width="7" height="7" fill="black" stroke="black" stroke-width="2"/>
<rect x="57.7466" y="94" width="7" height="7" fill="black" stroke="black" stroke-width="2"/>
<rect x="48.7466" y="80.5" width="7" height="20.5" fill="black" stroke="black" stroke-width="2"/>
<rect x="57.7466" y="71.5" width="7" height="7" fill="black" stroke="black" stroke-width="2"/>
<rect x="71.2466" y="80.5" width="7" height="7" fill="black" stroke="black" stroke-width="2"/>
<path fill-rule="evenodd" clip-rule="evenodd" d="M37.2466 54H31.2466V60H37.2466V54ZM25.2466 48V66H43.2466V48H25.2466Z" fill="black"/>
<path fill-rule="evenodd" clip-rule="evenodd" d="M37.2466 90H31.2466V96H37.2466V90ZM25.2466 84V102H43.2466V84H25.2466Z" fill="black"/>
<path fill-rule="evenodd" clip-rule="evenodd" d="M73.2466 54H67.2466V60H73.2466V54ZM61.2466 48V66H79.2466V48H61.2466Z" fill="black"/>
</g>
<path d="M0.246582 9V4H-4.75342V9H0.246582ZM104.247 9H109.247V4H104.247V9ZM104.247 141V146H109.247V141H104.247ZM0.246582 141H-4.75342V146H0.246582V141ZM0.246582 14H104.247V4H0.246582V14ZM99.2466 9V141H109.247V9H99.2466ZM104.247 136H0.246582V146H104.247V136ZM5.24658 141V9H-4.75342V141H5.24658Z" fill="black"/>
<path d="M144.247 48.333L139.547 53.033L158.147 71.6663H117.58V78.333H158.147L139.547 96.9663L144.247 101.666L170.913 74.9997L144.247 48.333Z" fill="#FFEAC0"/>
<g clip-path="url(#clip1)">
<path d="M240.41 50.784C243.164 53.5291 247.492 53.5291 250.246 50.784L270.41 30.686C273.164 27.9409 273.164 23.6272 270.41 20.8821C267.656 18.137 263.328 18.137 260.574 20.8821L240.41 40.9801C237.755 43.6272 237.755 48.0389 240.41 50.784Z" fill="#D1D4D4"/>
<path d="M262.148 22.5487L241.984 42.5487C241.099 43.431 240.607 44.6075 240.607 45.882C240.607 47.1565 241.099 48.333 241.984 49.2153C243.853 51.0781 246.804 51.0781 248.574 49.2153L268.738 29.1173C270.607 27.2545 270.607 24.3134 268.738 22.5487C267.853 21.6663 266.672 21.1761 265.394 21.1761C264.213 21.1761 263.033 21.5683 262.148 22.5487ZM238.836 52.3526C237.066 50.5879 236.181 48.333 236.181 45.882C236.181 43.431 237.164 41.0781 238.836 39.4114L259 19.3134C262.541 15.6859 268.443 15.6859 271.984 19.3134C273.754 21.0781 274.639 23.333 274.639 25.7839C274.639 28.2349 273.656 30.5879 271.984 32.2545L251.82 52.3526C250.049 54.1173 247.689 54.9996 245.328 54.9996C242.968 54.9996 240.607 54.1173 238.836 52.3526Z" fill="black"/>
<path d="M234.017 147.451L235.689 128.726L249.164 108.04L207.558 94.02L206.574 76.2749C206.574 76.2749 207.656 61.4709 206.869 56.569C206.377 52.8435 204.214 43.9219 197.82 44.5102C191.427 45.1964 192.214 53.2357 192.115 55.5886C192.115 56.7651 190.148 65.9807 188.771 75.5886C187.787 82.6474 187.099 83.9219 186.804 90.0004C186.509 95.9808 191.623 104.51 192.607 109.902C193.492 115.393 194.574 147.451 194.574 147.451" fill="#D1D4D4"/>
<path d="M234.017 150C235.295 150 236.377 149.02 236.476 147.745L238.049 129.608L251.131 109.412C251.525 108.726 251.623 107.942 251.426 107.255C251.131 106.569 250.64 105.981 249.853 105.687L210.017 92.1572L209.132 76.2749C209.23 74.5102 210.115 61.0788 209.427 56.1769C208.345 48.8239 204.705 41.2749 197.623 42.0592C189.558 42.9416 189.656 51.8631 189.656 54.8043C189.656 55.0984 189.656 55.2945 189.656 55.4906C189.656 55.9808 189.263 58.1376 188.869 60.1965C188.181 64.118 187.197 69.5102 186.312 75.1965C185.919 77.7455 185.623 79.5102 185.328 81.0788C184.837 83.8239 184.443 85.8827 184.246 89.8043C184.05 93.922 185.82 98.6278 187.689 103.138C188.771 105.883 189.755 108.432 190.148 110.295C190.837 114.51 191.722 136.471 192.115 147.451C192.115 148.824 193.296 149.902 194.673 149.902C196.05 149.902 197.132 148.726 197.132 147.353C197.132 146.079 196.05 115.098 195.066 109.51C194.673 107.059 193.591 104.216 192.41 101.275C190.837 97.5494 189.164 93.1376 189.263 90.0984C189.46 86.471 189.755 84.7063 190.246 81.9612C190.541 80.3925 190.837 78.5298 191.23 75.8827C192.115 70.3925 193.099 65.0984 193.787 61.1769C194.476 57.5494 194.673 56.3729 194.673 55.6867C194.673 55.4906 194.673 55.1965 194.673 54.8043C194.673 49.5102 195.558 47.3533 198.115 47.0592C198.804 46.9612 200.574 46.7651 202.345 50.0984C203.722 52.6474 204.214 55.6867 204.41 56.9612C205 60.6867 204.312 72.0592 204.017 76.1769C204.017 76.2749 204.017 76.3729 204.017 76.471L205 94.2161C205.099 95.1965 205.689 96.0788 206.673 96.471L245.23 109.412L233.525 127.451C233.328 127.745 233.131 128.138 233.131 128.628L231.459 147.353C231.361 148.726 232.345 149.902 233.722 150.098C233.918 150 233.918 150 234.017 150Z" fill="black"/>
<path d="M212.968 13.1369L212.869 14.9016H256.836L256.738 13.1369C256.541 8.92122 253.098 5.58789 248.869 5.58789H220.836C216.607 5.58789 213.164 8.92122 212.968 13.1369Z" fill="#FFEAC0"/>
<path d="M212.869 95.6865L212.968 97.4512C213.164 101.667 216.607 105 220.836 105H248.967C253.197 105 256.639 101.667 256.836 97.4512L256.934 95.6865H212.869Z" fill="#FFEAC0"/>
<path d="M256.836 19.3145H212.968V91.1772H256.836V19.3145Z" fill="black"/>
<rect width="47.2129" height="47.0588" transform="translate(210.804 17.6475)" fill="black"/>
<rect x="217.705" y="39.2363" width="9.80322" height="3.88235" fill="white" stroke="white" stroke-width="2"/>
<rect x="232.459" y="24.5303" width="3.90161" height="3.88235" fill="white" stroke="white" stroke-width="2"/>
<rect x="247.213" y="39.2363" width="3.90161" height="3.88235" fill="white" stroke="white" stroke-width="2"/>
<rect x="232.459" y="33.3535" width="3.90161" height="3.88235" fill="white" stroke="white" stroke-width="2"/>
<rect x="247.213" y="53.9424" width="3.90161" height="3.88235" fill="white" stroke="white" stroke-width="2"/>
<rect x="238.361" y="53.9424" width="3.90161" height="3.88235" fill="white" stroke="white" stroke-width="2"/>
<rect x="232.459" y="45.1182" width="3.90161" height="12.7059" fill="white" stroke="white" stroke-width="2"/>
<rect x="238.361" y="39.2363" width="3.90161" height="3.88235" fill="white" stroke="white" stroke-width="2"/>
<rect x="247.213" y="45.1182" width="3.90161" height="3.88235" fill="white" stroke="white" stroke-width="2"/>
<path fill-rule="evenodd" clip-rule="evenodd" d="M224.574 27.4518H220.639V31.3734H224.574V27.4518ZM216.705 23.5303V35.295H228.508V23.5303H216.705Z" fill="white"/>
<path fill-rule="evenodd" clip-rule="evenodd" d="M224.574 50.9811H220.639V54.9027H224.574V50.9811ZM216.705 47.0596V58.8243H228.508V47.0596H216.705Z" fill="white"/>
<path fill-rule="evenodd" clip-rule="evenodd" d="M248.18 27.4518H244.246V31.3734H248.18V27.4518ZM240.312 23.5303V35.295H252.115V23.5303H240.312Z" fill="white"/>
<path d="M212.869 14.902L212.968 13.1373C213.165 8.92157 216.607 5.58823 220.837 5.58823H248.968C253.197 5.58823 256.64 8.92157 256.836 13.1373L256.935 14.902H212.869ZM212.968 19.3137H256.836V91.1765H212.968V19.3137ZM212.869 95.6863H256.836L256.738 97.451C256.541 101.667 253.099 105 248.869 105H220.837C216.607 105 213.165 101.667 212.968 97.451L212.869 95.6863ZM207.361 13.4314V97.1569C207.361 98.7255 207.656 100.294 208.148 101.765C208.542 102.843 209.033 103.824 209.722 104.706C212.279 108.431 216.41 110.588 220.837 110.588H248.968C256.443 110.588 262.443 104.608 262.443 97.1569V42.9412L263.23 42.451C263.722 42.1569 264.017 41.5686 264.017 41.0784V38.5294C264.017 37.9412 263.722 37.451 263.23 37.1569L262.443 36.6667V13.4314C262.443 5.98039 256.443 0 248.968 0H220.837C213.361 0 207.361 5.98039 207.361 13.4314Z" fill="black"/>
<path d="M208.542 118.725L217.984 113.725L211.886 99.7054C211.886 99.7054 205.197 92.3525 204.214 92.3525C203.23 92.3525 197.82 91.3721 197.82 91.3721L202.837 107.451L208.542 118.725Z" fill="#D1D4D4"/>
<path d="M219.066 113.137C219.066 113.137 218.476 108.235 216.509 103.725C214.542 99.3135 206.968 92.5488 206.968 92.5488" fill="white"/>
<path d="M219.066 115.686C219.164 115.686 219.263 115.686 219.361 115.686C220.738 115.49 221.722 114.314 221.623 112.941C221.623 112.745 221.033 107.549 218.869 102.843C216.705 98.0391 209.525 91.5685 208.738 90.8822C207.656 89.9998 206.082 90.0979 205.197 91.0783C204.312 92.1567 204.41 93.7253 205.394 94.6077C207.361 96.3724 212.869 101.667 214.246 104.902C216.017 108.921 216.607 113.529 216.607 113.529C216.705 114.706 217.787 115.686 219.066 115.686Z" fill="black"/>
<path d="M258.41 75.1956C260.771 77.3525 264.41 77.1564 266.476 74.8035L271.984 68.2349C274.148 65.8819 273.951 62.2545 271.591 60.1956C269.23 58.0388 265.591 58.2349 263.525 60.5878L258.017 67.1564C255.853 69.5094 256.05 73.1368 258.41 75.1956Z" fill="#D1D4D4"/>
<path d="M270.213 66.6664C270.213 66.5683 270.213 66.5683 270.213 66.6664C270.803 65.9801 271.098 65.0978 271.098 64.3134C271.098 63.4311 270.705 62.6468 270.016 62.0585C269.328 61.4703 268.541 61.1762 267.656 61.2742C266.771 61.2742 265.984 61.6664 265.492 62.3527L259.984 68.8232C259.984 68.8232 259.984 68.8232 259.885 68.9213C258.705 70.1958 258.803 72.2546 260.082 73.4311C261.361 74.6076 263.426 74.5095 264.607 73.235L270.213 66.6664ZM256.738 77.0585C253.394 74.0193 253.099 68.8232 256.049 65.4899L261.558 59.0193C261.558 59.0193 261.557 59.0193 261.656 58.9213C263.131 57.2546 265.197 56.3723 267.361 56.1762C269.525 56.0781 271.689 56.7644 273.361 58.235C275.033 59.7056 275.918 61.7644 276.115 63.9213C276.213 66.0781 275.525 68.235 274.049 69.8036L268.541 76.2742C268.541 76.2742 268.541 76.2742 268.443 76.3723C266.771 78.137 264.607 79.1174 262.344 79.1174C260.279 79.2154 258.312 78.5291 256.738 77.0585Z" fill="black"/>
<path d="M258.213 89.6077C259.886 92.2548 263.427 93.0391 266.181 91.3724L271.885 87.647C274.541 85.9803 275.328 82.4509 273.656 79.7058C271.984 77.0587 268.443 76.2744 265.689 77.9411L259.984 81.7646C257.23 83.4313 256.443 86.9607 258.213 89.6077Z" fill="#D1D4D4"/>
<path d="M267.066 80.0982L261.361 83.8237C259.886 84.8041 259.394 86.7648 260.377 88.2354C261.361 89.706 263.328 90.1962 264.804 89.2158L270.509 85.4903C271.197 85.0001 271.787 84.3139 271.886 83.4315C272.082 82.5492 271.886 81.7648 271.492 80.9805C271 80.2942 270.312 79.706 269.427 79.608C269.23 79.5099 268.935 79.5099 268.738 79.5099C268.148 79.608 267.558 79.8041 267.066 80.0982ZM256.05 90.9805C253.591 87.157 254.771 82.059 258.607 79.608L264.312 75.8825C266.181 74.706 268.345 74.3139 270.509 74.8041C272.672 75.2943 274.541 76.5688 275.722 78.4315C276.902 80.2942 277.295 82.4511 276.804 84.608C276.312 86.7648 275.033 88.6276 273.164 89.706L267.459 93.4315C266.082 94.3139 264.607 94.706 263.033 94.706C260.279 94.8041 257.623 93.4315 256.05 90.9805Z" fill="black"/>
<path d="M254.672 57.5492C257.131 60.0002 261.066 60.0002 263.426 57.5492L271.394 51.2747C273.853 48.8237 273.853 44.9021 271.394 42.5492C268.935 40.0982 265 40.0982 262.64 42.5492L254.672 48.8237C252.213 51.1766 252.213 55.0982 254.672 57.5492Z" fill="#D1D4D4"/>
<path d="M269.623 44.3133C268.148 42.8427 265.885 42.8427 264.41 44.3133C264.312 44.4113 264.312 44.4113 264.213 44.5094L256.443 50.6858C255.754 51.3721 255.459 52.2545 255.459 53.2349C255.459 54.2153 255.853 55.0976 256.541 55.8819C258.017 57.3525 260.279 57.3525 261.754 55.8819C261.853 55.7839 261.853 55.7839 261.951 55.6858L269.721 49.5094C271 48.0388 271 45.7839 269.623 44.3133ZM252.902 59.3133C249.459 55.8819 249.459 50.3917 252.902 47.0584C253 46.9603 253 46.9603 253.098 46.8623L260.967 40.6858C264.41 37.4505 269.82 37.4505 273.164 40.7839C276.607 44.2152 276.607 49.7054 273.164 53.0388C273.066 53.1368 273.066 53.1368 272.967 53.2349L265.098 59.4113C263.426 61.078 261.262 61.8623 259 61.8623C256.836 61.8623 254.574 60.98 252.902 59.3133Z" fill="black"/>
</g>
<defs>
<clipPath id="clip0">
<path d="M0.246582 9H104.247V141H0.246582V9Z" fill="white"/>
</clipPath>
<clipPath id="clip1">
<rect width="92.7536" height="150" fill="white" transform="translate(184.247)"/>
</clipPath>
</defs>
</svg>
