<svg width="24" height="24" viewBox="0 0 24 24" fill="none" xmlns="http://www.w3.org/2000/svg">
<path fill-rule="evenodd" clip-rule="evenodd" d="M14.9649 14.2559H15.7549L20.7449 19.2559L19.2549 20.7459L14.2549 15.7559V14.9659L13.9849 14.6859C12.8449 15.6659 11.3649 16.2559 9.75488 16.2559C6.16488 16.2559 3.25488 13.3459 3.25488 9.75586C3.25488 6.16586 6.16488 3.25586 9.75488 3.25586C13.3449 3.25586 16.2549 6.16586 16.2549 9.75586C16.2549 11.3659 15.6649 12.8459 14.6849 13.9859L14.9649 14.2559ZM5.25488 9.75586C5.25488 12.2459 7.26488 14.2559 9.75488 14.2559C12.2449 14.2559 14.2549 12.2459 14.2549 9.75586C14.2549 7.26586 12.2449 5.25586 9.75488 5.25586C7.26488 5.25586 5.25488 7.26586 5.25488 9.75586Z" fill="white"/>
</svg>
