<svg width="58" height="94" viewBox="0 0 58 94" fill="none" xmlns="http://www.w3.org/2000/svg">
<path fill-rule="evenodd" clip-rule="evenodd" d="M20.5136 33.0465L12.3385 24.8714C10.2821 22.815 6.94806 22.815 4.89166 24.8714C2.83527 26.9278 2.83527 30.2619 4.89166 32.3183L6.29085 33.7175C7.11878 34.5454 7.7337 35.5617 8.08294 36.6792L10.1702 43.3586C5.06736 49.1114 2.23218 56.548 2.23218 64.2713V69.454C2.23218 77.5138 6.53462 84.9605 13.5171 88.9861C22.2595 94.0264 33.2865 92.6435 40.5135 85.6003L53.7359 72.7143C56.4207 70.0978 56.4484 65.7914 53.7976 63.1405C51.1706 60.5136 46.9116 60.5136 44.2847 63.1405L44.2536 63.1708C46.8975 60.5269 46.8975 56.2402 44.2536 53.5962C41.6096 50.9523 37.3229 50.9523 34.679 53.5962C37.3229 50.9523 37.3233 46.666 34.6793 44.022C32.0355 41.3782 27.7491 41.3781 25.1052 44.0216L27.4395 41.6875C29.0505 40.0765 31.0279 38.88 33.2025 38.2004L42.0515 35.4351C44.7217 34.6007 46.1873 31.7374 45.3026 29.0833C44.4296 26.4643 41.5988 25.0489 38.9798 25.9219L25.7533 30.3308C23.8695 30.9587 22.1024 31.8768 20.5136 33.0465Z" fill="#26374A"/>
<path d="M21.4796 3.65686C19.2665 1.44789 15.6784 1.44789 13.4653 3.65686C11.2523 5.86584 11.2523 9.4473 13.4653 11.6563L22.9758 21.1491L32.4864 11.6561C34.6994 9.44717 34.6994 5.86571 32.4864 3.65673C30.2733 1.44776 26.6852 1.44776 24.4721 3.65673L22.9758 5.15028L21.4796 3.65686Z" fill="#26374A" stroke="white" stroke-width="4" stroke-linecap="round" stroke-linejoin="round"/>
<path d="M19.2536 49.8731L27.4395 41.6873C29.0505 40.0763 31.0279 38.8798 33.2025 38.2002L42.0515 35.4349C44.7217 34.6005 46.1873 31.7371 45.3026 29.0831C44.4296 26.4641 41.5988 25.0487 38.9798 25.9217L25.7533 30.3305C22.8805 31.2881 20.2792 32.9205 18.1676 35.0909L11.1599 42.2932C5.43521 48.1769 2.23218 56.062 2.23218 64.2711V69.4538C2.23218 77.5135 6.53462 84.9603 13.5171 88.9859C22.2595 94.0262 33.2865 92.6432 40.5135 85.6001L53.7359 72.714C56.4207 70.0975 56.4484 65.7912 53.7976 63.1403C51.1706 60.5134 46.9116 60.5134 44.2847 63.1403L38.4027 69.0222" stroke="white" stroke-width="4" stroke-linecap="round"/>
<path d="M21.3811 33.9143L12.3384 24.8717C10.282 22.8153 6.94794 22.8153 4.89154 24.8717C2.83514 26.9281 2.83514 30.2622 4.89154 32.3186L6.29072 33.7178C7.11866 34.5457 7.73357 35.562 8.08281 36.6795L10.2107 43.4889" stroke="white" stroke-width="4"/>
<path d="M28.8271 59.4471L34.6783 53.596C37.3222 50.952 41.6089 50.952 44.2528 53.596C46.8968 56.2399 46.8968 60.5266 44.2528 63.1705L38.4017 69.0216" stroke="white" stroke-width="4" stroke-linecap="round"/>
<path d="M19.2538 49.8727L25.1049 44.0216C27.7488 41.3776 32.0355 41.3776 34.6795 44.0216C37.3234 46.6655 37.3234 50.9522 34.6795 53.5961L28.8283 59.4472" stroke="white" stroke-width="4" stroke-linecap="round"/>
</svg>
