<svg width="52" height="68" viewBox="0 0 52 68" fill="none" xmlns="http://www.w3.org/2000/svg">
<path d="M11.3989 54.7091L2.4901 38.1224C1.76244 36.7677 1.85042 35.1203 2.71824 33.8507C4.15502 31.7488 7.13599 31.4416 8.97123 33.2064L14.4294 38.4549C15.2366 39.2621 16.6167 38.6904 16.6167 37.5489V6.37459C16.6167 3.95857 18.5753 2 20.9913 2C23.4074 2 25.3659 3.95857 25.3659 6.37459V23.1439C25.3659 20.7278 27.3245 18.7693 29.7405 18.7693C32.1565 18.7693 34.1151 20.7278 34.1151 23.1439V27.883C34.1151 25.6683 35.9105 23.873 38.1251 23.873C40.3398 23.873 42.1352 25.6683 42.1352 27.883V31.9538C42.1352 29.9069 43.7945 28.2475 45.8414 28.2475C47.8403 28.2475 49.479 29.8326 49.5456 31.8303L49.9903 45.1707C50.0982 48.4071 49.3063 51.6099 47.7028 54.4232L47.2823 55.1608C39.3001 69.1646 19.0259 68.9094 11.3989 54.7091Z" fill="white"/>
<path d="M42.1352 31.9538V36.2676M42.1352 31.9538V27.883C42.1352 25.6683 40.3398 23.873 38.1251 23.873C35.9105 23.873 34.1151 25.6683 34.1151 27.883M42.1352 31.9538C42.1352 29.9069 43.7945 28.2475 45.8414 28.2475C47.8403 28.2475 49.479 29.8326 49.5456 31.8303L49.9903 45.1707C50.0982 48.4071 49.3063 51.6099 47.7028 54.4232L47.2823 55.1608C39.3001 69.1646 19.0259 68.9094 11.3989 54.7091L2.4901 38.1224C1.76244 36.7677 1.85042 35.1203 2.71824 33.8507C4.15502 31.7488 7.13599 31.4416 8.97123 33.2064L14.4294 38.4549C15.2366 39.2621 16.6167 38.6904 16.6167 37.5489V6.37459C16.6167 3.95857 18.5753 2 20.9913 2C23.4074 2 25.3659 3.95857 25.3659 6.37459V23.1439M34.1151 27.883V31.1639M34.1151 27.883V23.1439C34.1151 20.7278 32.1565 18.7693 29.7405 18.7693C27.3245 18.7693 25.3659 20.7278 25.3659 23.1439M25.3659 23.1439V31.1639" stroke="black" stroke-width="3.75" stroke-linecap="round" stroke-linejoin="round"/>
<path d="M12.9266 5.40449C15.2896 7.28508 16.2905 9.95897 15.1622 11.3768C14.0338 12.7946 11.2035 12.4195 8.84047 10.5389C6.47743 8.65829 5.47652 5.9844 6.60487 4.56658C7.73323 3.14876 10.5636 3.52391 12.9266 5.40449Z" fill="white"/>
<path d="M12.1183 18.8686C9.31283 19.9865 6.49478 19.5281 5.82404 17.8448C5.1533 16.1615 6.88387 13.8907 9.68938 12.7728C12.4949 11.6549 15.3129 12.1132 15.9837 13.7965C16.6544 15.4798 14.9238 17.7507 12.1183 18.8686Z" fill="white"/>
<path d="M16.6162 10.0197H25.3653V16.5816H16.6162V10.0197Z" fill="white"/>
<path d="M12.9266 5.40449C15.2896 7.28508 16.2905 9.95897 15.1622 11.3768C14.0338 12.7946 11.2035 12.4195 8.84047 10.5389C6.47743 8.65829 5.47652 5.9844 6.60487 4.56658C7.73323 3.14876 10.5636 3.52391 12.9266 5.40449Z" stroke="black" stroke-width="3"/>
<path d="M12.1183 18.8686C9.31283 19.9865 6.49478 19.5281 5.82404 17.8448C5.1533 16.1615 6.88387 13.8907 9.68938 12.7728C12.4949 11.6549 15.3129 12.1132 15.9837 13.7965C16.6544 15.4798 14.9238 17.7507 12.1183 18.8686Z" stroke="black" stroke-width="3"/>
<path d="M16.6162 10.0197H25.3653V16.5816H16.6162V10.0197Z" stroke="black" stroke-width="3"/>
</svg>
