<svg width="48" height="48" viewBox="0 0 48 48" fill="none" xmlns="http://www.w3.org/2000/svg">
<path fill-rule="evenodd" clip-rule="evenodd" d="M24.002 10.1523C18.6568 10.1523 14.3086 14.5005 14.3086 19.8458C14.3086 23.1415 15.9565 26.0357 18.4629 27.7944V30.924C18.4629 31.6856 19.0861 32.3087 19.8477 32.3087H28.1563C28.918 32.3087 29.5411 31.6856 29.5411 30.924V27.7944C32.0476 26.0357 33.6954 23.1415 33.6954 19.8458C33.6954 14.5005 29.3473 10.1523 24.002 10.1523ZM19.8485 36.4629C19.8485 37.2246 20.4718 37.8479 21.2335 37.8479H26.7735C27.5352 37.8479 28.1585 37.2246 28.1585 36.4629V35.0779H19.8485V36.4629ZM26.7715 26.3538L27.9486 25.523C29.818 24.2213 30.9258 22.1026 30.9258 19.8454C30.9258 16.0234 27.8239 12.9215 24.002 12.9215C20.18 12.9215 17.0781 16.0234 17.0781 19.8454C17.0781 22.1026 18.1859 24.2213 20.0553 25.523L21.2324 26.3538V29.5388H26.7715V26.3538Z" fill="black"/>
<rect x="1" y="1" width="46" height="46" rx="23" stroke="black" stroke-width="2"/>
</svg>
