<svg width="20" height="22" viewBox="0 0 20 22" fill="none" xmlns="http://www.w3.org/2000/svg">
<path d="M19.8662 6.35536L14.5329 1.02204C14.4932 0.979336 14.445 0.945414 14.3914 0.922451C14.3378 0.899488 14.2801 0.887992 14.2218 0.888703H3.4929C3.03862 0.891039 2.60362 1.07253 2.2824 1.39376C1.96117 1.71498 1.77968 2.14998 1.77734 2.60426V7.77758C1.77734 7.89545 1.82417 8.0085 1.90752 8.09185C1.99087 8.1752 2.10391 8.22202 2.22179 8.22202C2.33966 8.22202 2.45271 8.1752 2.53606 8.09185C2.61941 8.0085 2.66623 7.89545 2.66623 7.77758V2.60426C2.66623 2.38501 2.75333 2.17474 2.90836 2.01972C3.06339 1.86469 3.27365 1.77759 3.4929 1.77759H13.7773V6.66647C13.7773 6.78435 13.8241 6.89739 13.9075 6.98074C13.9908 7.06409 14.1039 7.11092 14.2218 7.11092H19.1106V19.3953C19.1106 19.6146 19.0236 19.8248 18.8685 19.9799C18.7135 20.1349 18.5032 20.222 18.284 20.222H3.4929C3.27365 20.222 3.06339 20.1349 2.90836 19.9799C2.75333 19.8248 2.66623 19.6146 2.66623 19.3953V19.3331C2.66623 19.2152 2.61941 19.1022 2.53606 19.0188C2.45271 18.9355 2.33966 18.8887 2.22179 18.8887C2.10391 18.8887 1.99087 18.9355 1.90752 19.0188C1.82417 19.1022 1.77734 19.2152 1.77734 19.3331V19.3953C1.77968 19.8496 1.96117 20.2846 2.2824 20.6058C2.60362 20.9271 3.03862 21.1085 3.4929 21.1109H18.284C18.7383 21.1085 19.1733 20.9271 19.4945 20.6058C19.8157 20.2846 19.9972 19.8496 19.9995 19.3953V6.66647C20.0002 6.60818 19.9887 6.55039 19.9658 6.49681C19.9428 6.44323 19.9089 6.39505 19.8662 6.35536ZM14.6662 2.4087L18.4795 6.22203H14.6662V2.4087Z" fill="black"/>
<path d="M16.4444 16.5602V10.5514C16.4456 10.3619 16.4092 10.1741 16.3372 9.9989C16.2653 9.82366 16.1593 9.66444 16.0253 9.53049C15.8914 9.39654 15.7321 9.29051 15.5569 9.21856C15.3817 9.14662 15.1939 9.11018 15.0044 9.11136H1.44003C1.25059 9.11018 1.06281 9.14662 0.887569 9.21856C0.712327 9.29051 0.553114 9.39654 0.419162 9.53049C0.28521 9.66444 0.179186 9.82366 0.107237 9.9989C0.0352883 10.1741 -0.00115252 10.3619 2.77807e-05 10.5514V16.5602C-0.00115252 16.7497 0.0352883 16.9374 0.107237 17.1127C0.179186 17.2879 0.28521 17.4471 0.419162 17.5811C0.553114 17.715 0.712327 17.8211 0.887569 17.893C1.06281 17.965 1.25059 18.0014 1.44003 18.0002H15.0044C15.1939 18.0014 15.3817 17.965 15.5569 17.893C15.7321 17.8211 15.8914 17.715 16.0253 17.5811C16.1593 17.4471 16.2653 17.2879 16.3372 17.1127C16.4092 16.9374 16.4456 16.7497 16.4444 16.5602ZM4.93335 14.1247C4.48674 14.4185 3.95533 14.5561 3.42224 14.5158H2.59558V15.8758H1.81336V11.2358H3.40447C3.94923 11.1865 4.49388 11.3314 4.94224 11.6447C5.11374 11.8007 5.24703 11.9941 5.33181 12.2099C5.41658 12.4257 5.45057 12.6581 5.43113 12.8891C5.44944 13.1196 5.41401 13.3511 5.32764 13.5655C5.24126 13.7799 5.10629 13.9713 4.93335 14.1247ZM9.88446 15.2447C9.32745 15.7048 8.61372 15.9311 7.89335 15.8758H6.35557V11.2358H7.94668C8.6385 11.19 9.3218 11.4093 9.85779 11.8491C10.0857 12.0632 10.2643 12.3244 10.3809 12.6146C10.4976 12.9047 10.5496 13.2168 10.5333 13.5291C10.5485 13.8443 10.4987 14.1592 10.3871 14.4543C10.2755 14.7494 10.1044 15.0185 9.88446 15.2447ZM14.6222 11.9647H12.32V13.2447H14.3733V14.0002H12.32V15.9113H11.5378V11.2358H14.6311L14.6222 11.9647Z" fill="black"/>
<path d="M7.91894 11.9648H7.13672V15.1382H8.02561C8.49268 15.1691 8.95474 15.0266 9.32338 14.7382C9.4774 14.5841 9.59674 14.399 9.67339 14.1951C9.75004 13.9912 9.78224 13.7733 9.76783 13.556C9.74116 12.4893 9.11005 11.9648 7.91894 11.9648Z" fill="black"/>
<path d="M3.3957 11.9475H2.5957V13.8052H3.48459C3.64187 13.8255 3.80162 13.8139 3.95433 13.7711C4.10704 13.7284 4.24958 13.6553 4.37348 13.5563C4.46843 13.4605 4.54329 13.3467 4.59366 13.2215C4.64403 13.0963 4.6689 12.9624 4.66681 12.8275C4.67846 12.6971 4.65684 12.566 4.60398 12.4463C4.55113 12.3265 4.46876 12.2222 4.36459 12.143C4.06661 11.9876 3.73066 11.9197 3.3957 11.9475Z" fill="black"/>
</svg>
